<svg width="449" height="416" viewBox="0 0 449 416" fill="none"
    xmlns="http://www.w3.org/2000/svg">
    <path d="M211.981 415.891H6.08829C4.47357 415.891 2.92499 415.249 1.78322 414.108C0.641443 412.966 0 411.417 0 409.802V6.03497C0.0140588 4.42952 0.661702 2.8946 1.80196 1.76433C2.94221 0.634059 4.48277 -6.15503e-05 6.08829 4.48097e-09H211.981C212.781 4.48097e-09 213.572 0.157477 214.311 0.463442C215.05 0.769407 215.721 1.21787 216.286 1.78322C216.852 2.34857 217.3 3.01974 217.606 3.7584C217.912 4.49707 218.069 5.28876 218.069 6.08829V409.802C218.069 410.602 217.912 411.394 217.606 412.132C217.3 412.871 216.852 413.542 216.286 414.108C215.721 414.673 215.05 415.121 214.311 415.427C213.572 415.733 212.781 415.891 211.981 415.891ZM6.08829 0.213251C4.54513 0.216069 3.06599 0.830332 1.97482 1.92151C0.883643 3.01268 0.269381 4.49182 0.266562 6.03497V409.802C0.269381 411.346 0.883643 412.825 1.97482 413.916C3.06599 415.007 4.54513 415.621 6.08829 415.624H211.981C213.524 415.621 215.003 415.007 216.095 413.916C217.186 412.825 217.8 411.346 217.803 409.802V6.03497C217.8 4.49182 217.186 3.01268 216.095 1.92151C215.003 0.830332 213.524 0.216069 211.981 0.213251H6.08829Z" fill="#EBEBEB"/>
    <path d="M442.611 415.891H236.718C235.103 415.891 233.555 415.249 232.413 414.108C231.271 412.966 230.63 411.417 230.63 409.802V6.03497C230.644 4.42952 231.292 2.8946 232.432 1.76433C233.572 0.634059 235.113 -6.15503e-05 236.718 4.48097e-09H442.611C444.226 4.48098e-09 445.774 0.641443 446.916 1.78322C448.058 2.92499 448.699 4.47357 448.699 6.08829V409.802C448.699 410.602 448.542 411.394 448.236 412.132C447.93 412.871 447.481 413.542 446.916 414.108C446.351 414.673 445.68 415.121 444.941 415.427C444.202 415.733 443.411 415.891 442.611 415.891ZM236.718 0.213251C235.175 0.216069 233.696 0.830332 232.605 1.92151C231.514 3.01268 230.899 4.49182 230.896 6.03497V409.802C230.899 411.346 231.514 412.825 232.605 413.916C233.696 415.007 235.175 415.621 236.718 415.624H442.611C444.154 415.621 445.633 415.007 446.724 413.916C447.816 412.825 448.43 411.346 448.433 409.802V6.03497C448.43 4.49182 447.816 3.01268 446.724 1.92151C445.633 0.830332 444.154 0.216069 442.611 0.213251H236.718Z" fill="#EBEBEB"/>
    <path d="M78.3267 120.752L80.0541 124.239L83.9139 124.804L81.1203 127.523L81.7814 131.362L78.3267 129.549L74.8827 131.362L75.5438 127.523L72.7502 124.804L76.6101 124.239L78.3267 120.752Z" fill="#EBEBEB"/>
    <path d="M423.419 285.201L425.146 288.698L429.006 289.263L426.212 291.971L426.873 295.821L423.419 294.008L419.975 295.821L420.636 291.971L417.842 289.263L421.702 288.698L423.419 285.201Z" fill="#F5F5F5"/>
    <path d="M355.072 386.59L356.799 390.077L360.649 390.642L357.855 393.361L358.516 397.2L355.072 395.387L351.628 397.2L352.279 393.361L349.496 390.642L353.345 390.077L355.072 386.59Z" fill="#F5F5F5"/>
    <path d="M198.696 58.8039L199.336 60.1047L200.775 60.318C200.855 60.3285 200.931 60.3616 200.993 60.4136C201.055 60.4655 201.101 60.5341 201.126 60.6113C201.151 60.6885 201.153 60.7711 201.132 60.8494C201.111 60.9278 201.069 60.9986 201.01 61.0537L199.943 62.0666L200.189 63.4954C200.201 63.5749 200.192 63.6564 200.161 63.7308C200.13 63.8052 200.079 63.8696 200.014 63.9171C199.949 63.9645 199.872 63.993 199.792 63.9995C199.712 64.006 199.631 63.9902 199.559 63.9539L198.28 63.2715L197 63.9539C196.929 63.9902 196.848 64.006 196.768 63.9995C196.688 63.993 196.611 63.9645 196.546 63.9171C196.481 63.8696 196.43 63.8052 196.399 63.7308C196.368 63.6564 196.359 63.5749 196.371 63.4954L196.606 62.0666L195.54 61.0537C195.48 60.9979 195.438 60.9262 195.417 60.847C195.397 60.7679 195.4 60.6846 195.426 60.6071C195.452 60.5296 195.5 60.4612 195.563 60.4099C195.627 60.3587 195.704 60.3267 195.785 60.318L197.214 60.1047L197.853 58.8039C197.879 58.7119 197.934 58.6308 198.01 58.573C198.086 58.5152 198.179 58.4839 198.275 58.4839C198.37 58.4839 198.463 58.5152 198.539 58.573C198.615 58.6308 198.67 58.7119 198.696 58.8039Z" fill="#EBEBEB"/>
    <path d="M22.5941 369.989L23.2338 371.279L24.6626 371.492C24.7437 371.503 24.8201 371.537 24.8829 371.59C24.9458 371.642 24.9927 371.711 25.0183 371.789C25.0438 371.867 25.047 371.95 25.0275 372.03C25.008 372.109 24.9665 372.181 24.9078 372.239L23.8416 373.241L24.0868 374.67C24.0994 374.749 24.0898 374.831 24.0591 374.905C24.0283 374.979 23.9776 375.044 23.9125 375.091C23.8475 375.139 23.7706 375.167 23.6903 375.174C23.6101 375.18 23.5296 375.164 23.4577 375.128L22.1782 374.456L20.8987 375.128C20.8269 375.164 20.7464 375.18 20.6662 375.174C20.5859 375.167 20.509 375.139 20.444 375.091C20.3789 375.044 20.3282 374.979 20.2974 374.905C20.2667 374.831 20.2571 374.749 20.2697 374.67L20.5149 373.241L19.4486 372.239C19.3902 372.182 19.3485 372.111 19.3285 372.032C19.3084 371.953 19.3107 371.87 19.3351 371.793C19.3594 371.715 19.4049 371.646 19.4664 371.593C19.5279 371.54 19.603 371.505 19.6832 371.492L21.112 371.279L21.7624 369.989C21.7909 369.901 21.8465 369.824 21.9212 369.77C21.9959 369.716 22.0859 369.687 22.1782 369.687C22.2706 369.687 22.3606 369.716 22.4353 369.77C22.51 369.824 22.5656 369.901 22.5941 369.989Z" fill="#F5F5F5"/>
    <path d="M51.3504 45.1027L51.9901 46.4035L53.4296 46.6061C53.5098 46.6189 53.5849 46.6538 53.6464 46.7069C53.7079 46.76 53.7534 46.8292 53.7777 46.9068C53.8021 46.9843 53.8044 47.067 53.7843 47.1458C53.7642 47.2245 53.7226 47.2961 53.6642 47.3525L52.5979 48.4188L52.8431 49.8369C52.8602 49.9174 52.8536 50.0011 52.8241 50.0779C52.7946 50.1547 52.7436 50.2214 52.6771 50.2698C52.6106 50.3183 52.5315 50.3465 52.4493 50.351C52.3672 50.3556 52.2855 50.3362 52.2141 50.2953L50.9346 49.6236L49.6551 50.2953C49.5836 50.3362 49.5019 50.3556 49.4198 50.351C49.3376 50.3465 49.2585 50.3183 49.192 50.2698C49.1255 50.2214 49.0745 50.1547 49.045 50.0779C49.0155 50.0011 49.0089 49.9174 49.026 49.8369L49.2605 48.4188L48.1943 47.3525C48.1356 47.2954 48.0941 47.223 48.0746 47.1434C48.0551 47.0639 48.0583 46.9805 48.0839 46.9027C48.1094 46.8249 48.1563 46.7559 48.2192 46.7035C48.2821 46.651 48.3584 46.6173 48.4395 46.6061L49.8683 46.4035L50.5507 45.1027C50.585 45.0252 50.641 44.9594 50.712 44.9131C50.7829 44.8669 50.8658 44.8423 50.9505 44.8423C51.0353 44.8423 51.1182 44.8669 51.1891 44.9131C51.2601 44.9594 51.3161 45.0252 51.3504 45.1027Z" fill="#EBEBEB"/>
    <path d="M49.6233 302.09C49.6254 302.371 49.544 302.646 49.3895 302.88C49.235 303.115 49.0142 303.298 48.7553 303.407C48.4964 303.516 48.2109 303.546 47.9351 303.492C47.6593 303.439 47.4057 303.305 47.2063 303.107C47.0069 302.909 46.8707 302.656 46.8152 302.381C46.7596 302.105 46.787 301.82 46.894 301.56C47.001 301.3 47.1828 301.078 47.4162 300.922C47.6497 300.766 47.9243 300.682 48.2052 300.682C48.5794 300.682 48.9385 300.83 49.2042 301.094C49.4698 301.357 49.6205 301.715 49.6233 302.09Z" fill="#EBEBEB"/>
    <path d="M251.72 124.634C251.723 124.915 251.641 125.19 251.487 125.425C251.332 125.659 251.111 125.843 250.852 125.952C250.594 126.061 250.308 126.09 250.032 126.037C249.756 125.983 249.503 125.849 249.303 125.651C249.104 125.453 248.968 125.201 248.912 124.925C248.857 124.65 248.884 124.364 248.991 124.105C249.098 123.845 249.28 123.623 249.513 123.466C249.747 123.31 250.021 123.227 250.302 123.227C250.488 123.225 250.672 123.261 250.844 123.331C251.016 123.401 251.173 123.504 251.304 123.635C251.436 123.766 251.541 123.922 251.612 124.093C251.684 124.264 251.72 124.448 251.72 124.634Z" fill="#EBEBEB"/>
    <path d="M178.192 46.275C178.192 46.5555 178.109 46.8297 177.953 47.0629C177.797 47.2961 177.575 47.4779 177.316 47.5852C177.057 47.6925 176.772 47.7206 176.497 47.6659C176.222 47.6112 175.969 47.4761 175.771 47.2778C175.572 47.0795 175.437 46.8268 175.383 46.5517C175.328 46.2766 175.356 45.9915 175.463 45.7324C175.571 45.4732 175.753 45.2518 175.986 45.0959C176.219 44.9401 176.493 44.8569 176.774 44.8569C177.149 44.8597 177.508 45.01 177.773 45.2754C178.039 45.5407 178.189 45.8998 178.192 46.275Z" fill="#F5F5F5"/>
    <path d="M180.438 391.893C184.65 390.899 187.259 386.678 186.265 382.466C185.27 378.253 181.05 375.645 176.837 376.639C172.625 377.633 170.016 381.854 171.01 386.066C172.004 390.279 176.225 392.888 180.438 391.893Z" fill="#F0F0F0"/>
    <path d="M175.942 379.681C174.336 379.677 172.772 380.185 171.474 381.131C170.812 382.651 170.649 384.342 171.01 385.961C171.37 387.579 172.236 389.041 173.481 390.136C174.727 391.231 176.288 391.902 177.939 392.052C179.591 392.203 181.247 391.824 182.67 390.972C183.3 389.807 183.616 388.499 183.588 387.175C183.56 385.851 183.189 384.558 182.511 383.42C181.833 382.283 180.871 381.342 179.719 380.688C178.568 380.034 177.266 379.691 175.942 379.691V379.681Z" fill="#E6E6E6"/>
    <path d="M115.251 248.051H50.3694V218.761L115.251 141.629H146.3V220.425H162.39V248.051H146.3V272.021H115.251V248.051ZM115.251 220.425V180.078L80.9601 220.425H115.251Z" fill="#3E83FF"/>
    <path d="M173.49 207.396C173.49 183.021 177.875 165.961 186.647 156.216C195.419 146.47 208.786 141.601 226.749 141.608C235.371 141.608 242.455 142.674 247.999 144.807C253.036 146.622 257.648 149.448 261.551 153.113C264.841 156.254 267.628 159.882 269.815 163.871C271.978 168.036 273.608 172.456 274.666 177.029C277.077 186.796 278.28 196.823 278.249 206.884C278.249 230.142 274.314 247.163 266.445 257.946C258.576 268.73 245.024 274.125 225.789 274.132C214.999 274.132 206.28 272.412 199.634 268.971C192.934 265.475 187.291 260.251 183.288 253.841C180.196 249.121 177.79 242.664 176.07 234.468C174.284 225.556 173.419 216.484 173.49 207.396ZM208.825 207.481C208.825 223.83 210.265 234.979 213.143 240.929C216.022 246.879 220.205 249.868 225.693 249.896C227.435 249.916 229.163 249.589 230.777 248.936C232.391 248.282 233.86 247.315 235.097 246.09C237.756 243.552 239.711 239.543 240.962 234.062C242.213 228.582 242.838 220.052 242.838 208.472C242.838 191.455 241.395 180.014 238.509 174.15C235.623 168.285 231.295 165.357 225.523 165.364C219.637 165.364 215.372 168.353 212.728 174.331C210.083 180.309 208.782 191.359 208.825 207.481Z" fill="#3E83FF"/>
    <path d="M354.154 248.052H289.273V218.762L354.154 141.629H385.204V220.425H401.347V248.052H385.204V272.021H354.154V248.052ZM354.154 220.425V180.078L319.875 220.425H354.154Z" fill="#3E83FF"/>
    <g opacity="0.3">
        <path opacity="0.3" d="M172.104 96.6238C172.104 97.0186 171.987 97.4045 171.767 97.7326C171.547 98.0608 171.235 98.3163 170.87 98.4669C170.505 98.6175 170.104 98.6564 169.717 98.5786C169.33 98.5008 168.975 98.3098 168.696 98.0299C168.418 97.75 168.229 97.3937 168.153 97.0062C168.077 96.6187 168.118 96.2175 168.271 95.8534C168.423 95.4892 168.681 95.1785 169.01 94.9607C169.339 94.7429 169.726 94.6278 170.121 94.6299C170.382 94.6299 170.641 94.6816 170.882 94.7819C171.123 94.8822 171.342 95.0293 171.527 95.2145C171.711 95.3998 171.857 95.6197 171.956 95.8616C172.055 96.1034 172.105 96.3625 172.104 96.6238Z" fill="#3E83FF"/>
        <path opacity="0.3" d="M35.5918 173.213C36.3691 173.213 36.9992 172.583 36.9992 171.805C36.9992 171.028 36.3691 170.398 35.5918 170.398C34.8145 170.398 34.1843 171.028 34.1843 171.805C34.1843 172.583 34.8145 173.213 35.5918 173.213Z" fill="#3E83FF"/>
        <path opacity="0.3" d="M268.12 378.754C269.233 378.754 270.135 377.851 270.135 376.738C270.135 375.625 269.233 374.723 268.12 374.723C267.007 374.723 266.104 375.625 266.104 376.738C266.104 377.851 267.007 378.754 268.12 378.754Z" fill="#3E83FF"/>
        <path opacity="0.3" d="M316.581 296.759C317.358 296.759 317.988 296.129 317.988 295.351C317.988 294.574 317.358 293.944 316.581 293.944C315.803 293.944 315.173 294.574 315.173 295.351C315.173 296.129 315.803 296.759 316.581 296.759Z" fill="#3E83FF"/>
        <path opacity="0.3" d="M410.059 43.3113C410.059 43.5896 409.976 43.8617 409.822 44.0932C409.667 44.3246 409.447 44.505 409.19 44.6116C408.933 44.7181 408.65 44.746 408.377 44.6917C408.104 44.6374 407.853 44.5033 407.656 44.3065C407.459 44.1096 407.325 43.8589 407.271 43.5858C407.217 43.3128 407.245 43.0298 407.351 42.7727C407.458 42.5155 407.638 42.2957 407.869 42.141C408.101 41.9864 408.373 41.9038 408.651 41.9038C409.025 41.9038 409.383 42.0521 409.647 42.316C409.911 42.58 410.059 42.938 410.059 43.3113Z" fill="#3E83FF"/>
        <path opacity="0.3" d="M141.982 14.928C141.982 15.2063 141.9 15.4784 141.745 15.7099C141.591 15.9413 141.371 16.1217 141.114 16.2283C140.856 16.3348 140.573 16.3627 140.3 16.3084C140.027 16.2541 139.777 16.12 139.58 15.9232C139.383 15.7263 139.249 15.4756 139.195 15.2025C139.14 14.9295 139.168 14.6465 139.275 14.3893C139.381 14.1322 139.562 13.9124 139.793 13.7577C140.024 13.6031 140.297 13.5205 140.575 13.5205C140.947 13.5233 141.304 13.6725 141.567 13.9358C141.83 14.1992 141.98 14.5555 141.982 14.928Z" fill="#3E83FF"/>
        <path opacity="0.3" d="M253.885 88.7763C254.663 88.7763 255.293 88.1462 255.293 87.3689C255.293 86.5916 254.663 85.9614 253.885 85.9614C253.108 85.9614 252.478 86.5916 252.478 87.3689C252.478 88.1462 253.108 88.7763 253.885 88.7763Z" fill="#3E83FF"/>
    </g>
    <path d="M108.374 88.787C121.276 88.787 131.736 78.3277 131.736 65.4255C131.736 52.5233 121.276 42.064 108.374 42.064C95.4718 42.064 85.0125 52.5233 85.0125 65.4255C85.0125 78.3277 95.4718 88.787 108.374 88.787Z" fill="#3E83FF"/>
    <path opacity="0.7" d="M108.374 88.787C121.276 88.787 131.736 78.3277 131.736 65.4255C131.736 52.5233 121.276 42.064 108.374 42.064C95.4718 42.064 85.0125 52.5233 85.0125 65.4255C85.0125 78.3277 95.4718 88.787 108.374 88.787Z" fill="white"/>
    <path opacity="0.2" d="M100.324 47.8004C97.1424 47.7907 93.9926 48.4329 91.0689 49.6877C87.4756 53.6369 85.3429 58.6975 85.0255 64.0274C84.7081 69.3573 86.2252 74.6352 89.3244 78.983C92.4235 83.3308 96.9179 86.4864 102.06 87.9248C107.202 89.3632 112.681 88.9977 117.587 86.8891C120.628 83.5375 122.631 79.375 123.352 74.907C124.073 70.439 123.481 65.8578 121.649 61.7196C119.816 57.5814 116.821 54.0643 113.028 51.5953C109.235 49.1263 104.807 47.8117 100.281 47.8111L100.324 47.8004Z" fill="#3E83FF"/>
    <path opacity="0.2" d="M97.9991 53.9743C97.9991 54.3961 97.8741 54.8084 97.6397 55.159C97.4054 55.5097 97.0724 55.7831 96.6827 55.9445C96.293 56.1059 95.8643 56.1481 95.4506 56.0658C95.0369 55.9835 94.657 55.7804 94.3587 55.4822C94.0605 55.184 93.8574 54.804 93.7751 54.3903C93.6928 53.9767 93.7351 53.5479 93.8965 53.1582C94.0579 52.7686 94.3312 52.4355 94.6819 52.2012C95.0326 51.9669 95.4449 51.8418 95.8666 51.8418C96.4322 51.8418 96.9746 52.0665 97.3745 52.4664C97.7745 52.8663 97.9991 53.4087 97.9991 53.9743Z" fill="#3E83FF"/>
    <path opacity="0.2" d="M123.12 51.8415C123.12 52.2633 122.995 52.6755 122.761 53.0262C122.527 53.3769 122.193 53.6502 121.804 53.8117C121.414 53.9731 120.985 54.0153 120.572 53.933C120.158 53.8507 119.778 53.6476 119.48 53.3494C119.182 53.0511 118.978 52.6712 118.896 52.2575C118.814 51.8438 118.856 51.4151 119.018 51.0254C119.179 50.6357 119.452 50.3027 119.803 50.0684C120.154 49.8341 120.566 49.709 120.988 49.709C121.553 49.709 122.096 49.9337 122.496 50.3336C122.896 50.7335 123.12 51.2759 123.12 51.8415Z" fill="#3E83FF"/>
    <path opacity="0.2" d="M118.855 67.0676C118.855 67.7593 118.65 68.4355 118.266 69.0106C117.882 69.5857 117.335 70.034 116.696 70.2987C116.057 70.5634 115.354 70.6327 114.676 70.4977C113.997 70.3628 113.374 70.0297 112.885 69.5406C112.396 69.0515 112.063 68.4283 111.928 67.7499C111.793 67.0715 111.862 66.3683 112.127 65.7293C112.392 65.0902 112.84 64.544 113.415 64.1597C113.99 63.7754 114.666 63.5703 115.358 63.5703C116.285 63.5703 117.175 63.9388 117.831 64.5946C118.487 65.2505 118.855 66.1401 118.855 67.0676Z" fill="#3E83FF"/>
    <path opacity="0.2" d="M107.745 77.0374C107.745 77.961 107.471 78.864 106.958 79.632C106.444 80.4 105.715 80.9986 104.862 81.352C104.008 81.7055 103.069 81.798 102.163 81.6178C101.257 81.4376 100.425 80.9928 99.7722 80.3397C99.119 79.6865 98.6742 78.8544 98.494 77.9485C98.3138 77.0425 98.4063 76.1035 98.7598 75.2502C99.1133 74.3968 99.7119 73.6674 100.48 73.1542C101.248 72.6411 102.151 72.3672 103.074 72.3672C104.313 72.3672 105.501 72.8592 106.377 73.735C107.253 74.6109 107.745 75.7988 107.745 77.0374Z" fill="#3E83FF"/>
    <path d="M385.247 347.221C387.848 336.199 381.022 325.156 370.001 322.555C358.98 319.954 347.937 326.779 345.335 337.801C342.734 348.822 349.56 359.865 360.581 362.466C371.602 365.068 382.646 358.242 385.247 347.221Z" fill="#3E83FF"/>
    <path opacity="0.3" d="M385.247 347.221C387.848 336.199 381.022 325.156 370.001 322.555C358.98 319.954 347.937 326.779 345.335 337.801C342.734 348.822 349.56 359.865 360.581 362.466C371.602 365.068 382.646 358.242 385.247 347.221Z" fill="white"/>
    <path opacity="0.4" d="M378.242 326.635C373.697 325.264 368.816 325.512 364.434 327.34C360.052 329.167 356.44 332.459 354.215 336.653C351.991 340.848 351.292 345.685 352.238 350.337C353.184 354.99 355.716 359.17 359.401 362.163C361.313 362.743 363.3 363.038 365.298 363.037C369.531 363.036 373.66 361.725 377.118 359.284C380.576 356.843 383.194 353.391 384.612 349.403C386.03 345.415 386.179 341.085 385.039 337.009C383.898 332.932 381.524 329.309 378.242 326.635Z" fill="#3E83FF"/>
    <path d="M345.721 348.664C323.831 358.964 340.155 366.907 371.002 355.818C399.567 345.55 410.453 332.606 384.863 336.626C386.239 342.011 350.466 355.946 345.721 348.664Z" fill="#3E83FF"/>
    <path opacity="0.2" d="M377.996 141.63C349.325 161.004 312.208 186.594 301.962 248.052H299.776C309.745 187.276 345.507 161.078 374.189 141.63H377.996Z" fill="black"/>
    <path d="M229.681 334.024C211.554 334.024 193.631 325.846 184.898 312.496C179.514 304.244 173.255 286.96 191.893 263.897L193.545 265.24C180.367 281.554 177.935 297.921 186.689 311.334C197.352 327.648 222.505 335.858 243.979 330.015C265.976 324.033 279.325 304.905 280.615 277.534C285.019 183.907 334.759 155.065 371.076 134.006C393.648 120.923 409.951 111.476 406.369 91.5269C405.868 88.7653 404.769 86.8567 402.989 85.6838C398.351 82.6237 389.288 84.7455 378.796 87.1872C358.206 91.9854 330.015 98.5535 313.221 69.9886L315.066 68.9224C331.06 96.1437 357.257 90.0341 378.316 85.1294C389.288 82.581 398.756 80.3739 404.162 83.9245C406.454 85.4279 407.862 87.8056 408.427 91.175C412.276 112.585 394.565 122.864 372.121 135.872C336.22 156.685 287.066 185.186 282.716 277.683C281.372 306.046 267.447 325.889 244.501 332.126C239.667 333.414 234.683 334.052 229.681 334.024Z" fill="#3E83FF"/>
    <path opacity="0.2" d="M229.681 334.024C211.554 334.024 193.631 325.846 184.898 312.496C179.514 304.244 173.255 286.96 191.893 263.897L193.545 265.24C180.367 281.554 177.935 297.921 186.689 311.334C197.352 327.648 222.505 335.858 243.979 330.015C265.976 324.033 279.325 304.905 280.615 277.534C285.019 183.907 334.759 155.065 371.076 134.006C393.648 120.923 409.951 111.476 406.369 91.5269C405.868 88.7653 404.769 86.8567 402.989 85.6838C398.351 82.6237 389.288 84.7455 378.796 87.1872C358.206 91.9854 330.015 98.5535 313.221 69.9886L315.066 68.9224C331.06 96.1437 357.257 90.0341 378.316 85.1294C389.288 82.581 398.756 80.3739 404.162 83.9245C406.454 85.4279 407.862 87.8056 408.427 91.175C412.276 112.585 394.565 122.864 372.121 135.872C336.22 156.685 287.066 185.186 282.716 277.683C281.372 306.046 267.447 325.889 244.501 332.126C239.667 333.414 234.683 334.052 229.681 334.024Z" fill="white"/>
    <path d="M291.267 44.7827C296.18 44.8111 301.061 45.5766 305.747 47.0538C305.747 47.0538 317.476 67.0673 318.862 71.6522C318.371 76.1731 310.747 83.5835 310.747 83.5835L291.267 44.7827Z" fill="#3E83FF"/>
    <path opacity="0.3" d="M291.267 44.7827C296.18 44.8111 301.061 45.5766 305.747 47.0538C305.747 47.0538 317.476 67.0673 318.862 71.6522C318.371 76.1731 310.747 83.5835 310.747 83.5835L291.267 44.7827Z" fill="white"/>
    <path d="M326.005 141.95C321.489 136.427 317.37 130.59 313.68 124.484C312.784 122.942 311.934 121.371 311.131 119.772C310.673 118.865 310.236 117.959 309.809 117.042C309.249 116.15 308.815 115.185 308.519 114.174C307.239 100.664 311.867 90.7163 307.453 79.8726L289.881 86.7392C289.881 86.7392 291.374 106.06 294.786 117.66C296.918 124.836 301.695 131.042 306.312 136.789C307.751 138.58 309.137 140.425 310.577 142.227C312.016 144.029 313.466 145.49 314.842 147.185C316.921 149.755 317.603 152.218 316.036 155.246L315.769 155.726C315.322 156.515 317.411 157.41 318.734 155.726C320.866 152.975 320.568 153.145 322.423 150.799C323.553 149.381 324.843 147.835 325.963 146.534C326.503 145.895 326.803 145.087 326.81 144.25C326.818 143.413 326.533 142.599 326.005 141.95Z" fill="#3E83FF"/>
    <path opacity="0.7" d="M326.005 141.95C321.489 136.427 317.37 130.59 313.68 124.484C312.784 122.942 311.934 121.371 311.131 119.772C310.673 118.865 310.236 117.959 309.809 117.042C309.249 116.15 308.815 115.185 308.519 114.174C307.239 100.664 311.867 90.7163 307.453 79.8726L289.881 86.7392C289.881 86.7392 291.374 106.06 294.786 117.66C296.918 124.836 301.695 131.042 306.312 136.789C307.751 138.58 309.137 140.425 310.577 142.227C312.016 144.029 313.466 145.49 314.842 147.185C316.921 149.755 317.603 152.218 316.036 155.246L315.769 155.726C315.322 156.515 317.411 157.41 318.734 155.726C320.866 152.975 320.568 153.145 322.423 150.799C323.553 149.381 324.843 147.835 325.963 146.534C326.503 145.895 326.803 145.087 326.81 144.25C326.818 143.413 326.533 142.599 326.005 141.95Z" fill="white"/>
    <path opacity="0.3" d="M321.708 136.395C318.92 139.384 315.825 142.071 312.475 144.413C312.933 144.925 313.381 145.479 313.839 145.969C317.194 143.703 320.24 141.012 322.903 137.962L321.708 136.395Z" fill="#3E83FF"/>
    <path opacity="0.3" d="M326.006 141.95L325.878 141.8C325.057 142.742 324.58 143.933 324.524 145.18C324.455 146.036 324.594 146.896 324.929 147.686L325.942 146.481C326.471 145.848 326.767 145.052 326.778 144.227C326.79 143.401 326.517 142.597 326.006 141.95Z" fill="#3E83FF"/>
    <path d="M287.087 57.577C285.183 60.4293 282.897 63.0085 280.295 65.2433C278.853 66.4869 277.271 67.5603 275.583 68.4421C274.695 68.8966 273.776 69.2851 272.832 69.6043L272.107 69.8388L271.872 69.9028L271.371 70.0414C271.062 70.1146 270.749 70.1645 270.433 70.1907C269.533 70.2595 268.628 70.1766 267.756 69.9455C266.657 69.6333 265.603 69.178 264.622 68.5913C263.832 68.1298 263.067 67.628 262.329 67.0879C260.996 66.0963 259.721 65.0283 258.512 63.8892C256.18 61.6793 254.039 59.2751 252.114 56.7026C251.744 56.2015 251.56 55.5867 251.594 54.9642C251.628 54.3418 251.878 53.7509 252.302 53.2934C252.725 52.8359 253.295 52.5405 253.913 52.4583C254.531 52.376 255.158 52.512 255.686 52.8428H255.772C258.288 54.4422 260.826 56.1269 263.299 57.6303C264.558 58.366 265.773 59.1124 266.978 59.6881C267.528 59.9761 268.094 60.2324 268.673 60.4558C269.034 60.6152 269.421 60.709 269.814 60.7331C269.878 60.7331 269.814 60.6584 269.42 60.6691C269.295 60.6617 269.171 60.6617 269.047 60.6691L268.812 60.7224L269.164 60.5411C269.638 60.2862 270.097 60.005 270.539 59.6988C271.493 59.0261 272.385 58.2696 273.205 57.4384C275.068 55.4862 276.812 53.4247 278.43 51.2648C279.316 50.2734 280.54 49.649 281.863 49.5139C283.186 49.3788 284.511 49.7429 285.579 50.5347C286.647 51.3264 287.381 52.4888 287.636 53.7936C287.892 55.0984 287.65 56.4516 286.96 57.5876L287.087 57.577Z" fill="#3E83FF"/>
    <path opacity="0.7" d="M287.087 57.577C285.183 60.4293 282.897 63.0085 280.295 65.2433C278.853 66.4869 277.271 67.5603 275.583 68.4421C274.695 68.8966 273.776 69.2851 272.832 69.6043L272.107 69.8388L271.872 69.9028L271.371 70.0414C271.062 70.1146 270.749 70.1645 270.433 70.1907C269.533 70.2595 268.628 70.1766 267.756 69.9455C266.657 69.6333 265.603 69.178 264.622 68.5913C263.832 68.1298 263.067 67.628 262.329 67.0879C260.996 66.0963 259.721 65.0283 258.512 63.8892C256.18 61.6793 254.039 59.2751 252.114 56.7026C251.744 56.2015 251.56 55.5867 251.594 54.9642C251.628 54.3418 251.878 53.7509 252.302 53.2934C252.725 52.8359 253.295 52.5405 253.913 52.4583C254.531 52.376 255.158 52.512 255.686 52.8428H255.772C258.288 54.4422 260.826 56.1269 263.299 57.6303C264.558 58.366 265.773 59.1124 266.978 59.6881C267.528 59.9761 268.094 60.2324 268.673 60.4558C269.034 60.6152 269.421 60.709 269.814 60.7331C269.878 60.7331 269.814 60.6584 269.42 60.6691C269.295 60.6617 269.171 60.6617 269.047 60.6691L268.812 60.7224L269.164 60.5411C269.638 60.2862 270.097 60.005 270.539 59.6988C271.493 59.0261 272.385 58.2696 273.205 57.4384C275.068 55.4862 276.812 53.4247 278.43 51.2648C279.316 50.2734 280.54 49.649 281.863 49.5139C283.186 49.3788 284.511 49.7429 285.579 50.5347C286.647 51.3264 287.381 52.4888 287.636 53.7936C287.892 55.0984 287.65 56.4516 286.96 57.5876L287.087 57.577Z" fill="white"/>
    <path d="M248.116 50.5611L249.364 52.6936C249.364 52.6936 250.313 55.4872 252.221 55.999L257.403 54.325L257.137 53.8878C256.476 52.8855 256.55 50.9343 256.774 49.3136C256.998 47.6929 256.166 47.6396 255.548 48.0447C255.11 48.5489 254.802 49.153 254.652 49.8041C254.398 49.452 254.116 49.1204 253.81 48.8124L252.232 47.2344C251.901 46.9108 251.46 46.7244 250.997 46.7125C250.534 46.7007 250.084 46.8642 249.737 47.1704L248.457 48.3113C248.154 48.5921 247.955 48.9676 247.893 49.3764C247.831 49.7852 247.909 50.203 248.116 50.5611Z" fill="#3E83FF"/>
    <path opacity="0.7" d="M248.116 50.5611L249.364 52.6936C249.364 52.6936 250.313 55.4872 252.221 55.999L257.403 54.325L257.137 53.8878C256.476 52.8855 256.55 50.9343 256.774 49.3136C256.998 47.6929 256.166 47.6396 255.548 48.0447C255.11 48.5489 254.802 49.153 254.652 49.8041C254.398 49.452 254.116 49.1204 253.81 48.8124L252.232 47.2344C251.901 46.9108 251.46 46.7244 250.997 46.7125C250.534 46.7007 250.084 46.8642 249.737 47.1704L248.457 48.3113C248.154 48.5921 247.955 48.9676 247.893 49.3764C247.831 49.7852 247.909 50.203 248.116 50.5611Z" fill="white"/>
    <path d="M296.502 42.8845C290.755 44.4081 285.249 46.7302 280.146 49.7832C279.35 50.2814 278.725 51.0111 278.356 51.8744C277.986 52.7376 277.889 53.6933 278.078 54.6133C280.135 64.6787 284.816 78.1561 289.87 86.7394L313.445 76.9832C313.605 72.8248 307.879 59.3688 302.047 46.3605C301.002 44.0254 298.987 42.2874 296.502 42.8845Z" fill="#3E83FF"/>
    <path opacity="0.8" d="M296.502 42.8845C290.755 44.4081 285.249 46.7302 280.146 49.7832C279.35 50.2814 278.725 51.0111 278.356 51.8744C277.986 52.7376 277.889 53.6933 278.078 54.6133C280.135 64.6787 284.816 78.1561 289.87 86.7394L313.445 76.9832C313.605 72.8248 307.879 59.3688 302.047 46.3605C301.002 44.0254 298.987 42.2874 296.502 42.8845Z" fill="white"/>
    <path opacity="0.3" d="M305.704 54.6025L301.023 53.0352C302.09 55.7754 305.854 59.2407 308.487 61.2773C307.634 59.1448 306.685 56.9056 305.704 54.6025Z" fill="#3E83FF"/>
    <path d="M294.957 32.3287C293.005 28.6181 288.794 26.7522 283.74 27.168C279.475 27.5305 275.7 31.8808 276.148 34.2266C276.596 36.5723 280.178 37.5746 280.861 38.385L277.907 40.5175C277.557 40.77 277.262 41.0907 277.04 41.4603C276.817 41.8299 276.671 42.2407 276.612 42.6681C276.552 43.0954 276.579 43.5304 276.692 43.9469C276.805 44.3634 277 44.7528 277.268 45.0917C278.515 46.6697 280.157 48.2904 281.106 49.4846C289.274 49.2714 295.319 46.1579 297.505 43.1618C296.684 39.3659 296.855 36.0179 294.957 32.3287Z" fill="#3E83FF"/>
    <path opacity="0.8" d="M294.957 32.3287C293.005 28.6181 288.794 26.7522 283.74 27.168C279.475 27.5305 275.7 31.8808 276.148 34.2266C276.596 36.5723 280.178 37.5746 280.861 38.385L277.907 40.5175C277.557 40.77 277.262 41.0907 277.04 41.4603C276.817 41.8299 276.671 42.2407 276.612 42.6681C276.552 43.0954 276.579 43.5304 276.692 43.9469C276.805 44.3634 277 44.7528 277.268 45.0917C278.515 46.6697 280.157 48.2904 281.106 49.4846C289.274 49.2714 295.319 46.1579 297.505 43.1618C296.684 39.3659 296.855 36.0179 294.957 32.3287Z" fill="white"/>
    <path d="M290.948 34.6323C291.527 36.1193 291.653 37.7448 291.309 39.3033C290.966 40.8619 290.167 42.2835 289.016 43.3886C287.864 44.4936 286.411 45.2324 284.839 45.5115C283.268 45.7907 281.649 45.5977 280.187 44.957C278.725 44.3162 277.486 43.2565 276.627 41.9117C275.767 40.567 275.325 38.9975 275.358 37.4018C275.39 35.8061 275.894 34.2557 276.807 32.9467C277.72 31.6376 279.001 30.6287 280.488 30.0474C282.483 29.2701 284.705 29.3164 286.666 30.176C288.627 31.0356 290.167 32.6383 290.948 34.6323Z" fill="#263238"/>
    <path d="M360.179 130.722C360.062 127.214 359.902 127.524 359.806 124.57C359.742 122.758 359.731 120.742 359.721 119.004C359.717 118.179 359.429 117.38 358.904 116.743C358.38 116.106 357.651 115.669 356.842 115.507C355.434 115.219 354.016 114.953 352.577 114.654C350.732 114.259 348.909 113.833 347.107 113.311C345.699 112.905 344.313 112.458 342.938 111.956C341.562 111.455 340.016 110.89 338.588 110.229C336.903 109.515 335.24 108.747 333.597 107.947C331.753 107.073 329.93 106.156 328.106 105.228C321.09 93.6169 320.941 85.9612 313.413 76.9834L297.249 84.2979C297.249 84.2979 309.127 105.367 317.209 114.302C321.869 119.441 329.173 121.766 335.687 123.451C340.39 124.655 345.156 125.583 349.922 126.468C351.777 126.809 353.792 126.937 355.392 128.046C356.575 128.953 357.386 130.261 357.673 131.725C357.744 132.023 357.808 132.322 357.865 132.62C358.068 133.516 360.254 132.834 360.179 130.722Z" fill="#3E83FF"/>
    <path opacity="0.8" d="M360.179 130.722C360.062 127.214 359.902 127.524 359.806 124.57C359.742 122.758 359.731 120.742 359.721 119.004C359.717 118.179 359.429 117.38 358.904 116.743C358.38 116.106 357.651 115.669 356.842 115.507C355.434 115.219 354.016 114.953 352.577 114.654C350.732 114.259 348.909 113.833 347.107 113.311C345.699 112.905 344.313 112.458 342.938 111.956C341.562 111.455 340.016 110.89 338.588 110.229C336.903 109.515 335.24 108.747 333.597 107.947C331.753 107.073 329.93 106.156 328.106 105.228C321.09 93.6169 320.941 85.9612 313.413 76.9834L297.249 84.2979C297.249 84.2979 309.127 105.367 317.209 114.302C321.869 119.441 329.173 121.766 335.687 123.451C340.39 124.655 345.156 125.583 349.922 126.468C351.777 126.809 353.792 126.937 355.392 128.046C356.575 128.953 357.386 130.261 357.673 131.725C357.744 132.023 357.808 132.322 357.865 132.62C358.068 133.516 360.254 132.834 360.179 130.722Z" fill="white"/>
    <path opacity="0.3" d="M351.979 114.515C351.34 114.376 350.7 114.238 350.049 114.078C350.103 117.767 348.375 124.122 347.746 126.052L349.772 126.435C351.1 122.595 351.844 118.576 351.979 114.515Z" fill="#3E83FF"/>
    <path opacity="0.3" d="M359.763 119.005C359.76 118.181 359.473 117.383 358.951 116.746C358.428 116.109 357.702 115.672 356.895 115.507L355.829 115.305C356 116.517 356.62 117.62 357.567 118.397C358.175 118.96 358.905 119.375 359.699 119.612C359.763 119.42 359.763 119.207 359.763 119.005Z" fill="#3E83FF"/>
    <path d="M289.444 34.6959C289.87 36.3166 288.058 38.0119 286.618 36.6152C285.275 35.1747 283.805 33.8579 282.225 32.6807C280.743 31.7531 282.716 30.1324 285.051 30.7615C286.047 31.0118 286.968 31.5007 287.733 32.1862C288.499 32.8716 289.086 33.733 289.444 34.6959Z" fill="white"/>
    <path d="M289.561 86.2165C288.815 86.4937 290.18 87.7732 290.18 87.7732C290.18 87.7732 305.107 82.6659 314.17 77.4093C314.192 77.091 314.138 76.7722 314.012 76.4792C313.886 76.1862 313.691 75.9275 313.445 75.7246C305.689 79.6703 297.714 83.1733 289.561 86.2165Z" fill="#3E83FF"/>
    <path opacity="0.5" d="M289.561 86.2165C288.815 86.4937 290.18 87.7732 290.18 87.7732C290.18 87.7732 305.107 82.6659 314.17 77.4093C314.192 77.091 314.138 76.7722 314.012 76.4792C313.886 76.1862 313.691 75.9275 313.445 75.7246C305.689 79.6703 297.714 83.1733 289.561 86.2165Z" fill="white"/>
    <path d="M300.544 42.181C303.486 43.6738 306.248 45.2411 309.074 46.9791C310.449 47.8535 311.814 48.7384 313.168 49.6981C314.522 50.6577 315.866 51.6386 317.22 52.7475L317.721 53.1634L318.35 53.7392C318.725 54.0746 319.081 54.4305 319.416 54.8054C319.757 55.1786 320.045 55.5411 320.323 55.8717C320.6 56.2022 320.898 56.5967 321.144 56.9379C322.137 58.3087 323.055 59.7324 323.894 61.2029C325.547 64.0544 326.973 67.0313 328.159 70.1061C328.379 70.687 328.39 71.326 328.192 71.9144C327.993 72.5027 327.597 73.0041 327.07 73.3334C326.544 73.6626 325.919 73.7993 325.304 73.7202C324.688 73.6412 324.118 73.3512 323.692 72.8997L323.639 72.8357C321.506 70.5646 319.448 68.1762 317.38 65.9477C315.311 63.7193 313.211 61.4588 311.473 60.4672C309.052 58.9638 306.355 57.4604 303.678 55.9889L295.618 51.5107C294.368 50.849 293.432 49.7178 293.016 48.3661C292.6 47.0144 292.738 45.5528 293.4 44.3028C294.061 43.0529 295.193 42.1171 296.544 41.7011C297.896 41.2852 299.358 41.4233 300.608 42.085L300.544 42.181Z" fill="#3E83FF"/>
    <path opacity="0.8" d="M300.544 42.181C303.486 43.6738 306.248 45.2411 309.074 46.9791C310.449 47.8535 311.814 48.7384 313.168 49.6981C314.522 50.6577 315.866 51.6386 317.22 52.7475L317.721 53.1634L318.35 53.7392C318.725 54.0746 319.081 54.4305 319.416 54.8054C319.757 55.1786 320.045 55.5411 320.323 55.8717C320.6 56.2022 320.898 56.5967 321.144 56.9379C322.137 58.3087 323.055 59.7324 323.894 61.2029C325.547 64.0544 326.973 67.0313 328.159 70.1061C328.379 70.687 328.39 71.326 328.192 71.9144C327.993 72.5027 327.597 73.0041 327.07 73.3334C326.544 73.6626 325.919 73.7993 325.304 73.7202C324.688 73.6412 324.118 73.3512 323.692 72.8997L323.639 72.8357C321.506 70.5646 319.448 68.1762 317.38 65.9477C315.311 63.7193 313.211 61.4588 311.473 60.4672C309.052 58.9638 306.355 57.4604 303.678 55.9889L295.618 51.5107C294.368 50.849 293.432 49.7178 293.016 48.3661C292.6 47.0144 292.738 45.5528 293.4 44.3028C294.061 43.0529 295.193 42.1171 296.544 41.7011C297.896 41.2852 299.358 41.4233 300.608 42.085L300.544 42.181Z" fill="white"/>
    <path d="M330.686 75.4265L329.78 73.1554C329.78 73.1554 329.279 70.2552 327.477 69.4448L322.146 70.2872L322.327 70.7563C322.818 71.8226 322.444 73.7738 321.965 75.3305C321.485 76.8873 322.295 77.0898 322.977 76.7806C323.361 76.61 323.735 75.917 324.14 75.1813C324.338 75.5519 324.563 75.9082 324.811 76.2475L326.123 78.0495C326.397 78.4229 326.802 78.6788 327.257 78.7658C327.712 78.8528 328.183 78.7645 328.575 78.5186L330.025 77.591C330.365 77.3587 330.615 77.0179 330.735 76.6246C330.855 76.2312 330.838 75.8088 330.686 75.4265Z" fill="#3E83FF"/>
    <path opacity="0.8" d="M330.686 75.4265L329.78 73.1554C329.78 73.1554 329.279 70.2552 327.477 69.4448L322.146 70.2872L322.327 70.7563C322.818 71.8226 322.444 73.7738 321.965 75.3305C321.485 76.8873 322.295 77.0898 322.977 76.7806C323.361 76.61 323.735 75.917 324.14 75.1813C324.338 75.5519 324.563 75.9082 324.811 76.2475L326.123 78.0495C326.397 78.4229 326.802 78.6788 327.257 78.7658C327.712 78.8528 328.183 78.7645 328.575 78.5186L330.025 77.591C330.365 77.3587 330.615 77.0179 330.735 76.6246C330.855 76.2312 330.838 75.8088 330.686 75.4265Z" fill="white"/>
    <path opacity="0.3" d="M296.044 54.4424L294.743 54.549L286.757 73.8268C287.193 73.8582 287.632 73.8223 288.058 73.7202C288.058 73.7202 298.464 69.839 301.61 68.3889C299.499 64.028 296.044 54.4424 296.044 54.4424Z" fill="#3E83FF"/>
    <path d="M281.468 59.4967C282.438 64.536 284.24 69.3789 286.799 73.8271C290.702 72.4836 297.206 69.946 300.362 68.4959C298.241 63.9482 296.358 59.2931 294.721 54.5493C291.384 54.7732 284.059 57.5775 281.468 59.4967Z" fill="white"/>
    <path opacity="0.3" d="M289.391 63.6658C289.235 64.1872 288.928 64.6507 288.509 64.9976C288.089 65.3445 287.576 65.5592 287.035 65.6145C286.494 65.6699 285.948 65.5634 285.467 65.3086C284.986 65.0538 284.592 64.6621 284.333 64.183C284.075 63.7039 283.965 63.159 284.017 62.6173C284.068 62.0755 284.279 61.5612 284.623 61.1394C284.967 60.7176 285.428 60.4073 285.949 60.2478C286.469 60.0883 287.025 60.0867 287.546 60.2431C288.244 60.4528 288.831 60.931 289.177 61.5728C289.523 62.2145 289.6 62.9673 289.391 63.6658Z" fill="#3E83FF"/>
    <path opacity="0.6" d="M291.427 59.9981C291.386 60.1761 291.291 60.3374 291.157 60.4607C291.022 60.5841 290.853 60.6638 290.672 60.6894C290.491 60.715 290.306 60.6853 290.142 60.6042C289.979 60.5231 289.843 60.3943 289.754 60.2349C289.665 60.0754 289.626 59.8927 289.642 59.7106C289.659 59.5286 289.73 59.3558 289.846 59.2149C289.962 59.074 290.119 58.9715 290.294 58.921C290.47 58.8705 290.657 58.8743 290.83 58.9319C291.046 59.001 291.228 59.1495 291.339 59.3474C291.45 59.5453 291.481 59.7778 291.427 59.9981Z" fill="#3E83FF"/>
    <path opacity="0.6" d="M293.815 59.0704C293.79 59.1941 293.74 59.3112 293.667 59.4142C293.594 59.5173 293.5 59.6039 293.392 59.6686C293.284 59.7334 293.163 59.7748 293.038 59.7902C292.913 59.8056 292.785 59.7947 292.665 59.7582C292.544 59.7217 292.432 59.6603 292.336 59.5781C292.241 59.4958 292.163 59.3945 292.109 59.2805C292.055 59.1666 292.025 59.0426 292.021 58.9165C292.018 58.7903 292.04 58.6648 292.088 58.548C292.122 58.4352 292.178 58.3302 292.253 58.239C292.328 58.1479 292.42 58.0725 292.524 58.017C292.628 57.9615 292.742 57.9271 292.859 57.9158C292.976 57.9044 293.095 57.9164 293.208 57.9509C293.436 58.02 293.628 58.1763 293.741 58.3859C293.855 58.5954 293.882 58.8414 293.815 59.0704Z" fill="#3E83FF"/>
    <path opacity="0.5" d="M297.164 67.3761L287.301 71.2679L286.714 69.3274L296.567 65.4355L297.164 67.3761Z" fill="#3E83FF"/>
    <path opacity="0.2" d="M242.753 215.564C242.73 221.772 242.131 227.965 240.962 234.063C239.704 239.544 237.749 243.553 235.098 246.09C233.863 247.316 232.396 248.284 230.783 248.938C229.171 249.591 227.444 249.917 225.704 249.897C220.223 249.897 216.04 246.908 213.154 240.93C212.647 239.856 212.216 238.748 211.864 237.614C205.769 242.849 200.093 248.553 194.889 254.674L189.228 261.348C192.274 264.437 195.79 267.024 199.645 269.015C206.284 272.448 214.999 274.168 225.789 274.175C227.687 274.175 229.521 274.122 231.302 274.016C237.83 264.356 243.232 253.981 247.402 243.094L263.236 201.809L242.753 215.564Z" fill="black"/>
    <path d="M100.014 271.894L118.674 290.553L170.92 241.324C152.911 234.447 117.895 253.97 100.014 271.894Z" fill="#263238"/>
    <path d="M165.088 336.935C159.127 330.964 146.428 318.276 146.428 318.276L195.657 266.029C202.492 283.996 182.969 319.043 165.088 336.935Z" fill="#263238"/>
    <path d="M236.505 219.328L256.859 180.079L217.611 200.455C205.004 206.993 193.364 215.246 183.022 224.979L116.115 287.962L148.987 320.835L211.97 253.928C221.707 243.583 229.964 231.939 236.505 219.328Z" fill="#3E83FF"/>
    <path opacity="0.6" d="M236.505 219.328L256.859 180.079L217.611 200.455C205.004 206.993 193.364 215.246 183.022 224.979L116.115 287.962L148.987 320.835L211.97 253.928C221.707 243.583 229.964 231.939 236.505 219.328Z" fill="white"/>
    <path d="M194.708 255.985C202.305 255.985 208.463 249.827 208.463 242.231C208.463 234.634 202.305 228.476 194.708 228.476C187.112 228.476 180.954 234.634 180.954 242.231C180.954 249.827 187.112 255.985 194.708 255.985Z" fill="white"/>
    <path d="M194.708 251.07C199.589 251.07 203.547 247.112 203.547 242.23C203.547 237.349 199.589 233.391 194.708 233.391C189.826 233.391 185.868 237.349 185.868 242.23C185.868 247.112 189.826 251.07 194.708 251.07Z" fill="#3E83FF"/>
    <path opacity="0.3" d="M160.108 309.021L127.918 276.831L154.276 252.03L184.909 282.674L160.108 309.021Z" fill="#3E83FF"/>
    <path d="M107.297 301.343C83.1996 303.294 75.2133 318.723 72.4837 339.227C71.0976 349.687 70.4792 360.275 61.704 366.395C61.176 366.754 60.7786 367.274 60.5711 367.878C60.3636 368.481 60.3572 369.136 60.5529 369.744C60.7486 370.351 61.1359 370.879 61.6567 371.248C62.1775 371.617 62.8039 371.807 63.4419 371.79C95.792 370.777 110.879 354.944 112.777 348.333C112.279 351.789 111.388 355.176 110.122 358.43C109.89 359.004 109.844 359.637 109.992 360.239C110.14 360.841 110.474 361.38 110.947 361.781C111.42 362.181 112.007 362.422 112.624 362.47C113.242 362.517 113.859 362.369 114.387 362.045C123.461 356.362 134.849 345.891 135.606 328.906C128.931 319.448 107.297 301.343 107.297 301.343Z" fill="#3E83FF"/>
    <path opacity="0.2" d="M107.297 301.343C83.1996 303.294 75.2133 318.723 72.4837 339.227C71.0976 349.687 70.4792 360.275 61.704 366.395C61.176 366.754 60.7786 367.274 60.5711 367.878C60.3636 368.481 60.3572 369.136 60.5529 369.744C60.7486 370.351 61.1359 370.879 61.6567 371.248C62.1775 371.617 62.8039 371.807 63.4419 371.79C95.792 370.777 110.879 354.944 112.777 348.333C112.279 351.789 111.388 355.176 110.122 358.43C109.89 359.004 109.844 359.637 109.992 360.239C110.14 360.841 110.474 361.38 110.947 361.781C111.42 362.181 112.007 362.422 112.624 362.47C113.242 362.517 113.859 362.369 114.387 362.045C123.461 356.362 134.849 345.891 135.606 328.906C128.931 319.448 107.297 301.343 107.297 301.343Z" fill="white"/>
    <path d="M139.348 336.189L100.75 297.59L121.307 293.144L143.794 315.631L139.348 336.189Z" fill="#3E83FF"/>
</svg>
