<svg xmlns="http://www.w3.org/2000/svg" xmlns:xlink="http://www.w3.org/1999/xlink" viewBox="0 0 33.56 19.58"><defs><style>.cls-1{fill:none;}.cls-2{clip-path:url(#clip-path);}.cls-3{fill:#b5002a;}.cls-4{fill:#f4c327;}.cls-5{fill:#9d0025;}.cls-6{fill:#c1b020;}.cls-7{fill:#fff;}.cls-8{fill:#3d8e6d;}.cls-9{fill:#3057bb;}.cls-10{fill:#cacaca;}.cls-11{fill:#c0b420;}.cls-12{fill:#ca3e4b;}.cls-13{fill:#de6ba8;}.cls-14{fill:#f7d591;}.cls-15{fill:#2f2aec;}.cls-16{clip-path:url(#clip-path-4);}</style><clipPath id="clip-path"><rect class="cls-1" width="33.56" height="19.58"/></clipPath><clipPath id="clip-path-4"><rect class="cls-1" x="9.28" y="10.43" width="0.89" height="1.04"/></clipPath></defs><g id="Camada_2" data-name="Camada 2"><g id="_4" data-name="4"><g id="SPAIN"><g class="cls-2"><g class="cls-2"><rect class="cls-3" width="33.56" height="19.58"/><rect class="cls-4" y="4.89" width="33.56" height="9.79"/><g class="cls-2"><path class="cls-5" d="M6.52,8.67h0l0,0h0l0,0a.11.11,0,0,1,0-.08.07.07,0,0,1,.06-.05l.06,0,0,0H7l.08,0,.09,0s0,0,0,0l0,0a0,0,0,0,1,0,.05l0,0,0,0,0,0,0,0s-.2,0-.31,0a2.32,2.32,0,0,0-.3,0Z"/><path d="M7.13,8.67h0l-.31,0a2.32,2.32,0,0,0-.3,0l-.08,0-.05-.05s0-.05,0-.09a.08.08,0,0,1,0-.06l.07,0,0,0h0l0,0H7l.06,0,.08,0,.09,0s0,0,.05.05v0h0v.05l0,.07,0,0,0,0Zm-.31,0,.28,0h.06l.06-.07,0-.07,0,0s0,0,0,0H7.12L7,8.38s0,0,0,0h-.3l-.06,0h0l0,0-.06,0a.11.11,0,0,0-.06.06s0,.07,0,.07l0,0,.07.06s.21,0,.33,0Z"/><path class="cls-6" d="M6.77,8.41c0-.05,0-.09.05-.09s0,0,0,.09,0,.1,0,.1-.05,0-.05-.1Z"/><path d="M6.82,8.52s-.06,0-.06-.11.12-.11.12,0,0,.11-.06.11Zm0-.2s-.05,0-.05.09.1.1.1,0,0-.09,0-.09Z"/><path class="cls-6" d="M6.8,8.41s0-.08,0-.08,0,0,0,.08,0,.09,0,.09,0,0,0-.09Z"/><path d="M6.82,8.51s0,0,0-.1,0-.09,0-.09,0,0,0,.09,0,.1,0,.1Z"/><path class="cls-6" d="M6.78,8.31s0,0,0,0,0,0,0,0a0,0,0,1,1-.08,0Z"/><polygon class="cls-6" points="6.85 8.3 6.85 8.32 6.79 8.32 6.79 8.3 6.81 8.3 6.81 8.25 6.78 8.25 6.78 8.23 6.81 8.23 6.81 8.2 6.83 8.2 6.83 8.23 6.86 8.23 6.86 8.25 6.83 8.25 6.83 8.3 6.85 8.3"/><polygon class="cls-1" points="6.85 8.3 6.85 8.32 6.79 8.32 6.79 8.3 6.81 8.3 6.81 8.25 6.78 8.25 6.78 8.23 6.81 8.23 6.81 8.2 6.83 8.2 6.83 8.23 6.86 8.23 6.86 8.25 6.83 8.25 6.83 8.3 6.85 8.3 6.85 8.3"/><polygon class="cls-6" points="6.87 8.3 6.87 8.32 6.77 8.32 6.77 8.3 6.81 8.3 6.81 8.25 6.78 8.25 6.78 8.23 6.81 8.23 6.81 8.2 6.83 8.2 6.83 8.23 6.86 8.23 6.86 8.25 6.83 8.25 6.83 8.3 6.87 8.3"/><polygon class="cls-1" points="6.87 8.3 6.87 8.32 6.77 8.32 6.77 8.3 6.81 8.3 6.81 8.25 6.78 8.25 6.78 8.23 6.81 8.23 6.81 8.2 6.83 8.2 6.83 8.23 6.86 8.23 6.86 8.25 6.83 8.25 6.83 8.3 6.87 8.3 6.87 8.3"/><path d="M6.82,8.35a0,0,0,0,1,0,0s0,0,0,0l0,0s.06,0,.06,0l0,0s0,0,0,0a0,0,0,0,1,0,0Z"/><path class="cls-6" d="M6.82,8.66H6.63V8.51c-.05-.07-.1-.11-.11-.1s0,0,0,0,.13,0,.21.14,0,0,0,0H6.9s0,0,0,0,.16-.17.2-.14,0,0,0,0-.07,0-.12.1v.15Z"/><path d="M7,8.67H6.63l0-.16c-.06-.07-.09-.1-.11-.1h0s.09.08.11.1l0,.15H7l0-.15a.35.35,0,0,1,.1-.11h0s0,0-.11.1l0,.16Zm-.27-.11c-.08-.12-.15-.18-.2-.18h0l0,0a.3.3,0,0,1,.19.15l.12,0-.11,0Zm.17,0c.07-.11.14-.16.19-.16h0s-.12.06-.18.15Z"/><path d="M7,8.55c.06-.11.14-.17.18-.15h0S7,8.46,7,8.55Zm-.27,0c-.07-.09-.15-.16-.18-.14h0s.12,0,.19.15Z"/><path class="cls-6" d="M6.54,8.75a.08.08,0,0,0,0-.05,1.52,1.52,0,0,1,.6,0l0,0,0,0a.88.88,0,0,0-.26,0,1,1,0,0,0-.27,0v0Z"/><path d="M6.55,8.78h0v0l0,0a.9.9,0,0,1,.3-.05,1.28,1.28,0,0,1,.3,0l0,.05h0V8.7a2,2,0,0,0-.29,0,1.19,1.19,0,0,0-.29,0l0,0v0a1,1,0,0,1,.27,0h0a1,1,0,0,0-.27,0Z"/><path class="cls-6" d="M6.82,8.84l.24,0s0,0,0,0l0,0a1.14,1.14,0,0,0-.52,0l0,0s0,0,0,0l.24,0Z"/><path d="M6.82,8.85a1.19,1.19,0,0,1-.24,0s0,0,0,0a.84.84,0,0,1,.54,0s0,.05,0,.05a1.09,1.09,0,0,1-.24,0Zm0-.1a.93.93,0,0,0-.26,0s0,0,0,0a1.85,1.85,0,0,0,.47,0s0,0,0,0a.73.73,0,0,0-.27,0Z"/><path class="cls-6" d="M7.12,8.66l0,0a.05.05,0,0,1,0,0s0,0,0,0,0,0,0,0a0,0,0,0,1,0,0l0,0a.07.07,0,0,1,0,0s0,0-.05,0l0,0a.07.07,0,0,1-.05,0,0,0,0,0,1,0,0l0,0s0,0,0,0v0h0a1.17,1.17,0,0,1,.29,0,1.26,1.26,0,0,1,.3,0v0Z"/><path d="M7.12,8.69a1.28,1.28,0,0,0-.3,0,1.19,1.19,0,0,0-.29,0v0h0a.08.08,0,0,0,0,0,.1.1,0,0,0,.06,0c.05,0,0,0,0,0l0,0s0,0,0,0l.06,0h0l0,0,0,0H7l0,0,0,0h0v0H7.06s0,0,0,0l0,0,0,0,0,0s0,0,0,0a.07.07,0,0,1-.05,0h0l0,0a.07.07,0,0,1,0,0,.11.11,0,0,1-.07,0s0,0,0,0h.22a1.19,1.19,0,0,1,.29,0h0Z"/><path class="cls-6" d="M6.82,8.56h0v0a0,0,0,0,0,0,0s0,0,0,0h0s0,0,0,0a0,0,0,0,0,0,0H7v0H7a0,0,0,0,0,.05,0l0,0h0v0s0,0,0,0l0,0,0,0v0l0,0h0l0,0h0a.05.05,0,0,1,0,0l0,0,0,0,0,0a.09.09,0,0,1,0,0,.09.09,0,0,1-.05,0l0,0-.05,0,0,0a.05.05,0,0,1,0,0h0l0,0h0l0,0v0l0,0,0,0s0,0,0,0v0h0l0,0a0,0,0,0,0,0,0h0v0h0a0,0,0,0,0,0,0,0,0,0,0,0,0,0h0s0,0,0,0a0,0,0,0,0,0,0v0Z"/><path d="M7.12,8.68h0l0-.05s-.06,0-.06,0h0l0,0s-.08,0-.08,0,0,0,.05,0v0h0l0,.05,0,0,0,0s0,.05,0,.06Zm-.6,0h0l0,0h0l0,.05h0l0,0h0l0,0,0,0h0v0h0s.07,0,.08,0,.07,0,.09,0a.07.07,0,0,0,.1,0s.07,0,.09,0,.07,0,.09,0l.06,0h0a.06.06,0,0,1-.07,0s-.06,0-.09,0-.07,0-.09,0-.07,0-.1,0-.07,0-.09,0,0,0,0,0Zm.05,0,0,0h0a0,0,0,0,0,0,0v0c0,.09.09.07.09,0h0s-.09,0-.09,0,0,.06-.06.06Z"/><path class="cls-6" d="M6.82,8.67a1.26,1.26,0,0,0-.3,0s0,0,0,0h0a.84.84,0,0,1,.3,0,.84.84,0,0,1,.3,0h0s0,0,0,0a1.26,1.26,0,0,0-.3,0Z"/><path d="M7.12,8.71h0a1.22,1.22,0,0,0-.6,0l.05,0a1.68,1.68,0,0,1,.55,0Zm0,0a1.21,1.21,0,0,0-.3,0l-.22,0a.73.73,0,0,1,.22,0,1.14,1.14,0,0,1,.3,0Z"/><path class="cls-7" d="M6.71,8.71s0,0,0,0a0,0,0,0,1,0,0l0,0s0,0,0,0Z"/><path class="cls-1" d="M6.71,8.71s0,0,0,0a0,0,0,0,1,0,0l0,0S6.71,8.72,6.71,8.71Z"/><path class="cls-5" d="M6.82,8.72h0a0,0,0,0,1,0,0h.1s0,0,0,0Z"/><path class="cls-1" d="M6.82,8.72h0a0,0,0,0,1,0,0h.1s0,0,0,0Z"/><path class="cls-8" d="M6.63,8.73h0s0,0,0,0h.08v0Z"/><path class="cls-1" d="M6.63,8.73h0s0,0,0,0h.08v0Z"/><polygon class="cls-5" points="6.52 8.75 6.54 8.73 6.56 8.73 6.55 8.76 6.52 8.75"/><polygon class="cls-1" points="6.52 8.75 6.54 8.73 6.56 8.73 6.55 8.76 6.52 8.75 6.52 8.75"/><path class="cls-7" d="M6.9,8.71a0,0,0,0,1,0,0s0,0,0,0,0,0,0,0l0,0Z"/><path class="cls-1" d="M6.9,8.71a0,0,0,0,1,0,0s0,0,0,0,0,0,0,0Z"/><path class="cls-8" d="M7,8.73H7s0,0,0,0H7v0Z"/><path class="cls-1" d="M7,8.73H7s0,0,0,0H7v0Z"/><polygon class="cls-5" points="7.11 8.75 7.11 8.73 7.08 8.73 7.09 8.76 7.11 8.75"/><polygon class="cls-1" points="7.11 8.75 7.11 8.73 7.08 8.73 7.09 8.76 7.11 8.75 7.11 8.75"/><path class="cls-5" d="M6.82,8.82l-.25,0a1.06,1.06,0,0,1,.5,0l-.25,0Z"/><path d="M6.82,8.83h0a.85.85,0,0,1-.25,0,1.06,1.06,0,0,1,.5,0,.62.62,0,0,1-.25,0Zm0-.06a1,1,0,0,0-.25,0l.25,0a.9.9,0,0,0,.25,0l-.25,0Z"/><path class="cls-6" d="M7.12,8.62s0,0,0,0h0v0Z"/><path class="cls-1" d="M7.12,8.62s0,0,0,0h0v0Z"/><path class="cls-6" d="M6.93,8.58v0h0Z"/><path class="cls-1" d="M6.93,8.58v0h0Z"/><path class="cls-6" d="M6.71,8.58v0s0,0,0,0h0Z"/><path class="cls-1" d="M6.71,8.58v0s0,0,0,0h0Z"/><path class="cls-6" d="M6.52,8.62s0,0,0,0h0v0Z"/><path class="cls-1" d="M6.52,8.62s0,0,0,0h0v0Z"/><polygon class="cls-6" points="6.82 8.47 6.79 8.49 6.81 8.55 6.82 8.55 6.83 8.55 6.85 8.49 6.82 8.47"/><polygon class="cls-1" points="6.82 8.47 6.79 8.49 6.81 8.55 6.82 8.55 6.83 8.55 6.85 8.49 6.82 8.47 6.82 8.47"/><polygon class="cls-6" points="6.75 8.55 6.76 8.57 6.81 8.56 6.82 8.55 6.81 8.54 6.76 8.53 6.75 8.55"/><polygon class="cls-1" points="6.75 8.55 6.76 8.57 6.81 8.56 6.82 8.55 6.81 8.54 6.76 8.53 6.75 8.55 6.75 8.55"/><polygon class="cls-6" points="6.89 8.55 6.88 8.57 6.83 8.56 6.82 8.55 6.83 8.54 6.88 8.53 6.89 8.55"/><polygon class="cls-1" points="6.89 8.55 6.88 8.57 6.83 8.56 6.82 8.55 6.83 8.54 6.88 8.53 6.89 8.55 6.89 8.55"/><polygon class="cls-6" points="6.6 8.49 6.58 8.52 6.61 8.56 6.62 8.57 6.63 8.56 6.64 8.51 6.6 8.49"/><polygon class="cls-1" points="6.6 8.49 6.58 8.52 6.61 8.56 6.62 8.57 6.63 8.56 6.64 8.51 6.6 8.49 6.6 8.49"/><polygon class="cls-6" points="6.55 8.58 6.57 8.6 6.62 8.58 6.62 8.57 6.61 8.56 6.56 8.56 6.55 8.58"/><polygon class="cls-1" points="6.55 8.58 6.57 8.6 6.62 8.58 6.62 8.57 6.61 8.56 6.56 8.56 6.55 8.58 6.55 8.58"/><polygon class="cls-6" points="6.69 8.56 6.68 8.58 6.63 8.57 6.62 8.57 6.63 8.56 6.67 8.54 6.69 8.56"/><polygon class="cls-1" points="6.69 8.56 6.68 8.58 6.63 8.57 6.62 8.57 6.63 8.56 6.67 8.54 6.69 8.56 6.69 8.56"/><polygon class="cls-6" points="6.5 8.59 6.49 8.62 6.44 8.62 6.43 8.62 6.43 8.61 6.47 8.57 6.5 8.59"/><polygon class="cls-1" points="6.5 8.59 6.49 8.62 6.44 8.62 6.43 8.62 6.43 8.61 6.47 8.57 6.5 8.59 6.5 8.59"/><path class="cls-6" d="M6.6,8.57l0,0,0,0,0,0,0,0Z"/><path class="cls-1" d="M6.6,8.57l0,0,0,0,0,0Z"/><polygon class="cls-6" points="7.04 8.49 7.07 8.52 7.03 8.56 7.02 8.57 7.01 8.56 7 8.51 7.04 8.49"/><polygon class="cls-1" points="7.04 8.49 7.07 8.52 7.03 8.56 7.02 8.57 7.01 8.56 7 8.51 7.04 8.49 7.04 8.49"/><polygon class="cls-6" points="7.09 8.58 7.07 8.6 7.03 8.58 7.02 8.57 7.03 8.56 7.08 8.56 7.09 8.58"/><polygon class="cls-1" points="7.09 8.58 7.07 8.6 7.03 8.58 7.02 8.57 7.03 8.56 7.08 8.56 7.09 8.58 7.09 8.58"/><polygon class="cls-6" points="6.95 8.56 6.96 8.58 7.01 8.57 7.02 8.57 7.02 8.56 6.97 8.54 6.95 8.56"/><polygon class="cls-1" points="6.95 8.56 6.96 8.58 7.01 8.57 7.02 8.57 7.02 8.56 6.97 8.54 6.95 8.56 6.95 8.56"/><polygon class="cls-6" points="7.14 8.59 7.14 8.62 7.2 8.62 7.2 8.62 7.2 8.61 7.16 8.57 7.14 8.59"/><polygon class="cls-1" points="7.14 8.59 7.14 8.62 7.2 8.62 7.2 8.62 7.2 8.61 7.16 8.57 7.14 8.59 7.14 8.59"/><path class="cls-6" d="M6.8,8.55a0,0,0,0,1,0,0,0,0,0,0,1,0,0l0,0,0,0Z"/><path class="cls-1" d="M6.8,8.55a0,0,0,0,1,0,0,0,0,0,0,1,0,0l0,0Z"/><path class="cls-6" d="M7,8.57l0,0,0,0,0,0,0,0Z"/><path class="cls-1" d="M7,8.57l0,0,0,0,0,0Z"/><path class="cls-6" d="M6.42,8.62l0,0h0a0,0,0,0,1,0,0Z"/><path class="cls-1" d="M6.42,8.62l0,0h0a0,0,0,0,1,0,0Z"/><path class="cls-6" d="M6.42,8.61h0a0,0,0,0,1,0,0h0v0Z"/><path class="cls-1" d="M6.42,8.61h0a0,0,0,0,1,0,0h0Z"/><path class="cls-6" d="M7.21,8.62l0,0h0a0,0,0,0,0,0,0Z"/><path class="cls-1" d="M7.21,8.62l0,0h0a0,0,0,0,0,0,0Z"/><path class="cls-6" d="M7.21,8.61h0s0,0,0,0h0v0Z"/><path class="cls-1" d="M7.21,8.61h0s0,0,0,0h0Z"/><rect class="cls-6" x="6.39" y="8.83" width="0.86" height="0.23"/><path d="M7.26,9.07H6.39V8.83h.87v.24Zm0-.24H6.39v.22h.85V8.83Z"/><path class="cls-6" d="M6.48,9.21h.68a0,0,0,0,1,0-.05s0,0,0-.05H6.48a.07.07,0,0,1,0,.05,0,0,0,0,1,0,.05Z"/><path d="M7.16,9.22H6.51l.62,0s0,0,0,0a.08.08,0,0,1,0-.05.43.43,0,0,1,0,.05.05.05,0,0,0,0,.05h0Zm-.66,0a.43.43,0,0,0,0-.05l0,0h0s0,0,0,0a.05.05,0,0,1,0,.05Z"/><path class="cls-6" d="M6.5,9.21h.64s.05,0,.05,0,0,0-.05,0H6.5s0,0,0,0,0,0,0,0Z"/><path d="M7.14,9.28H6.5a0,0,0,1,1,0-.08h.64a0,0,0,1,1,0,.08ZM6.5,9.22v0h.64s0,0,0,0l-.68,0Z"/><path class="cls-6" d="M6.5,9.06h.65a0,0,0,0,1,0,0l0,0H6.5s0,0,0,0,0,0,0,0Z"/><path d="M7.15,9.12H6.5s0,0,0,0,0,0,0,0h.65s0,0,0,0,0,0,0,0Zm-.65,0,.65,0,0,0-.68,0Z"/><path class="cls-9" d="M7.43,12.89a.38.38,0,0,1-.16,0,.33.33,0,0,0-.15,0,.37.37,0,0,0-.15,0,.3.3,0,0,1-.3,0,.37.37,0,0,0-.15,0,.33.33,0,0,0-.15,0,.34.34,0,0,1-.16,0V13a.35.35,0,0,0,.16,0,.33.33,0,0,1,.15,0l.15,0a.24.24,0,0,0,.15,0A.33.33,0,0,0,7,13a.37.37,0,0,1,.15,0,.33.33,0,0,1,.15,0,.38.38,0,0,0,.16,0v-.09Z"/><path d="M7.43,13h0a.27.27,0,0,1-.16,0A.37.37,0,0,0,7,13a.36.36,0,0,1-.32,0,.37.37,0,0,0-.29,0,.27.27,0,0,1-.16,0v-.1l.16,0a.35.35,0,0,1,.3,0,.35.35,0,0,0,.3,0,.34.34,0,0,1,.31,0,.33.33,0,0,0,.15,0V13Zm-.91-.16a.33.33,0,0,0-.15,0,.38.38,0,0,1-.16,0V13l.15,0a.39.39,0,0,1,.3,0,.39.39,0,0,0,.3,0,.42.42,0,0,1,.31,0,.32.32,0,0,0,.14,0v-.08a.37.37,0,0,1-.15,0,.37.37,0,0,0-.29,0,.44.44,0,0,1-.32,0,.32.32,0,0,0-.14,0Z"/><path class="cls-10" d="M7.43,13a.38.38,0,0,1-.16,0,.33.33,0,0,0-.15,0A.37.37,0,0,0,7,13a.33.33,0,0,1-.15,0,.24.24,0,0,1-.15,0l-.15,0a.33.33,0,0,0-.15,0,.35.35,0,0,1-.16,0v.09a.35.35,0,0,0,.16,0,.33.33,0,0,1,.15,0,.37.37,0,0,1,.15,0A.39.39,0,0,0,7,13a.37.37,0,0,1,.15,0,.33.33,0,0,1,.15,0,.38.38,0,0,0,.16,0V13Z"/><path d="M7.43,13.08h0a.27.27,0,0,1-.16,0,.33.33,0,0,0-.29,0,.4.4,0,0,1-.32,0,.37.37,0,0,0-.29,0,.27.27,0,0,1-.16,0V13l.16,0a.39.39,0,0,1,.3,0,.39.39,0,0,0,.3,0,.42.42,0,0,1,.31,0,.33.33,0,0,0,.15,0v.1Zm-.91-.16a.33.33,0,0,0-.15,0,.27.27,0,0,1-.16,0v.08a.42.42,0,0,0,.15,0,.39.39,0,0,1,.3,0A.35.35,0,0,0,7,13a.42.42,0,0,1,.31,0,.33.33,0,0,0,.14,0V13a.2.2,0,0,1-.15,0A.37.37,0,0,0,7,13a.36.36,0,0,1-.32,0,.32.32,0,0,0-.14,0Z"/><path class="cls-9" d="M7.43,13.07a.38.38,0,0,1-.16,0,.33.33,0,0,0-.15,0A.37.37,0,0,0,7,13a.39.39,0,0,1-.3,0,.37.37,0,0,0-.15,0,.33.33,0,0,0-.15,0,.35.35,0,0,1-.16,0v.1a.34.34,0,0,0,.16,0,.33.33,0,0,1,.15,0,.37.37,0,0,1,.15,0,.33.33,0,0,0,.15,0,.24.24,0,0,0,.15,0,.37.37,0,0,1,.15,0,.33.33,0,0,1,.15,0,.27.27,0,0,0,.16,0v-.1Z"/><path d="M7.43,13.17h0a.38.38,0,0,1-.16,0,.37.37,0,0,0-.29,0,.4.4,0,0,1-.32,0,.37.37,0,0,0-.29,0,.38.38,0,0,1-.16,0v-.1a.42.42,0,0,0,.16,0,.39.39,0,0,1,.3,0A.35.35,0,0,0,7,13a.42.42,0,0,1,.31,0,.33.33,0,0,0,.15,0v.1ZM6.52,13a.57.57,0,0,0-.15,0,.27.27,0,0,1-.16,0v.09l.15,0a.39.39,0,0,1,.3,0,.35.35,0,0,0,.3,0,.37.37,0,0,1,.31,0,.32.32,0,0,0,.14,0v-.09a.2.2,0,0,1-.15,0,.33.33,0,0,0-.29,0,.4.4,0,0,1-.32,0,.58.58,0,0,0-.14,0Z"/><path class="cls-10" d="M7.43,13.26a.31.31,0,0,1-.15,0,.42.42,0,0,0-.16,0,.37.37,0,0,0-.15,0,.33.33,0,0,1-.15,0,.24.24,0,0,1-.15,0l-.15,0a.33.33,0,0,0-.15,0,.35.35,0,0,1-.16,0v-.09a.34.34,0,0,0,.16,0,.33.33,0,0,1,.15,0,.37.37,0,0,1,.15,0,.33.33,0,0,0,.15,0,.24.24,0,0,0,.15,0,.37.37,0,0,1,.15,0,.41.41,0,0,1,.16,0,.22.22,0,0,0,.15,0v.09Z"/><path d="M7.43,13.27h0a.27.27,0,0,1-.16,0,.37.37,0,0,0-.29,0,.36.36,0,0,1-.32,0,.37.37,0,0,0-.29,0,.27.27,0,0,1-.16,0v-.1l.16,0a.39.39,0,0,1,.3,0,.35.35,0,0,0,.3,0,.34.34,0,0,1,.31,0,.33.33,0,0,0,.15,0v.1Zm-.91-.16a.33.33,0,0,0-.15,0,.38.38,0,0,1-.16,0v.09l.15,0a.39.39,0,0,1,.3,0,.39.39,0,0,0,.3,0,.42.42,0,0,1,.31,0,.29.29,0,0,0,.14,0v-.08a.37.37,0,0,1-.15,0,.37.37,0,0,0-.29,0,.4.4,0,0,1-.32,0,.32.32,0,0,0-.14,0Z"/><path class="cls-9" d="M7.43,13.35a.31.31,0,0,1-.15,0,.41.41,0,0,0-.16,0,.37.37,0,0,0-.15,0,.39.39,0,0,1-.3,0,.37.37,0,0,0-.15,0,.33.33,0,0,0-.15,0,.35.35,0,0,1-.16,0v-.09a.35.35,0,0,0,.16,0,.33.33,0,0,1,.15,0l.15,0a.24.24,0,0,0,.15,0,.33.33,0,0,0,.15,0,.37.37,0,0,1,.15,0,.41.41,0,0,1,.16,0,.31.31,0,0,0,.15,0v.09Z"/><path d="M7.43,13.36h0a.38.38,0,0,1-.16,0,.37.37,0,0,0-.29,0,.44.44,0,0,1-.32,0,.37.37,0,0,0-.29,0,.38.38,0,0,1-.16,0v-.1l.16,0a.39.39,0,0,1,.3,0,.39.39,0,0,0,.3,0,.42.42,0,0,1,.31,0,.33.33,0,0,0,.15,0v.1Zm-.91-.16a.33.33,0,0,0-.15,0,.27.27,0,0,1-.16,0v.08a.42.42,0,0,0,.15,0,.39.39,0,0,1,.3,0,.32.32,0,0,0,.3,0,.42.42,0,0,1,.31,0,.29.29,0,0,0,.14,0v-.09a.2.2,0,0,1-.15,0,.37.37,0,0,0-.29,0,.36.36,0,0,1-.32,0,.32.32,0,0,0-.14,0Z"/><path class="cls-6" d="M6.48,12.5v0a.1.1,0,0,1-.1.11h.89a.11.11,0,0,1-.11-.11v0H6.48Z"/><path d="M7.27,12.64H6.38a.14.14,0,0,0,.1-.12h0a.14.14,0,0,1-.12.12l.83,0a.12.12,0,0,1-.06-.1h0c0,.08.07.12.13.12h0Z"/><path class="cls-6" d="M6.5,12.44h.64s.05,0,.05,0,0,0-.05,0H6.5s0,0,0,0,0,0,0,0Z"/><path d="M7.14,12.51H6.5s0,0,0,0,0,0,0,0h.64s.05,0,.05,0,0,0-.05,0Zm-.64-.06v.05h.64s0,0,0,0l-.68,0Z"/><rect class="cls-6" x="6.38" y="12.63" width="0.89" height="0.23"/><path d="M7.27,12.86H6.38v-.23h.9v.24Zm0-.23H6.38v.21h.88v-.22Z"/><path class="cls-5" d="M6.31,11.64c-.09,0-.15.1-.14.13s0,0,.07.07.1.12.07.16a.23.23,0,0,0,.09-.18.24.24,0,0,0-.09-.18Z"/><path d="M6.32,12h0a0,0,0,0,0,0,0,.17.17,0,0,0-.07-.11.19.19,0,0,1-.08-.07s.1-.11.14-.14a.24.24,0,0,1,.11.19.24.24,0,0,1-.09.18Zm0-.35c-.09,0-.13.1-.12.12s0,0,.06.06a.2.2,0,0,1,.09.12v0a.22.22,0,0,0,.06-.15.2.2,0,0,0-.09-.17Z"/><rect class="cls-10" x="6.5" y="9.31" width="0.63" height="3.1"/><path d="M7,12.4V9.31H7V12.4ZM7,12.4V9.31H7V12.4Z"/><path d="M7.14,12.41H6.5V9.31h.64v3.11Zm0-3.1H6.5v3.09h.62V9.31Z"/><path class="cls-5" d="M7.78,10.47a2,2,0,0,0-.64-.11l-.3,0c-.38.06-.67.21-.64.33h0l-.15-.33c0-.13.3-.3.72-.37a1.63,1.63,0,0,1,.37,0,2.08,2.08,0,0,1,.64.08v.39Z"/><path d="M6.19,10.74h0c0-.06-.14-.32-.15-.34a.16.16,0,0,1,0-.09A1.21,1.21,0,0,1,6.76,10a2.18,2.18,0,0,1,1,.06v.39a2.54,2.54,0,0,0-.65-.1l-.3,0a1.06,1.06,0,0,0-.62.25.11.11,0,0,0,0,.07h0ZM7.13,10a2,2,0,0,0-.36,0,1.21,1.21,0,0,0-.69.28.13.13,0,0,0,0,.08,3.15,3.15,0,0,0,.13.29l0,0a1.1,1.1,0,0,1,.63-.26l.3,0a2.13,2.13,0,0,1,.65.11l0-.38A2.48,2.48,0,0,0,7.14,10Z"/><path class="cls-5" d="M6.5,10.86c-.17,0-.29-.06-.3-.14s0-.12.15-.18H6.5v.31Z"/><path d="M6.51,10.86h0c-.18,0-.3-.06-.31-.14s0-.12.15-.19l.16,0v.31Zm-.13-.31c-.13.06-.19.12-.18.17s.12.11.3.13v-.3Z"/><path class="cls-5" d="M7.14,10.62a.46.46,0,0,1,.23.08h0s-.08.13-.24.22v-.3Z"/><path d="M7.13,10.94v-.32a.58.58,0,0,1,.25.07c0,.07-.14.18-.24.24Zm0-.31v.28c.19-.11.24-.18.23-.2a.44.44,0,0,0-.23-.08Z"/><path class="cls-5" d="M6.11,11.45s.16-.15.4-.23l.31-.14c.34-.14.58-.32.56-.38h0a1.92,1.92,0,0,1,0,.32c0,.06-.2.22-.51.37l-.4.16c-.18.06-.36.18-.34.22l-.06-.32Z"/><path d="M6.16,11.78h0l-.06-.32c0-.06.19-.16.4-.24l.3-.13c.36-.15.57-.31.57-.37h0a1.6,1.6,0,0,1,0,.31c0,.1-.23.25-.51.38l-.4.15c-.17.07-.34.17-.33.21h0Zm1.21-1.06c0,.08-.27.25-.55.37l-.31.13c-.27.1-.4.2-.39.23l0,.29a.78.78,0,0,1,.33-.2,3.47,3.47,0,0,0,.41-.16,1.22,1.22,0,0,0,.5-.34,2.51,2.51,0,0,0,0-.32Z"/><path class="cls-6" d="M6.46,10.32c.08,0,.13-.06.1-.12s0,0-.11,0l-.11,0,.1.24,0,0h0l0-.1Zm0-.12h0a0,0,0,0,1,.06,0s0,0,0,.06h0l0-.1Z"/><path class="cls-6" d="M6.71,10.11H6.64l.06.24.17,0s0,0,0,0h0l-.11,0,0-.22Z"/><path class="cls-6" d="M7.05,10.32a2,2,0,0,1,.11-.26h0a1.54,1.54,0,0,1-.08.19L7,10.07H6.87l.14.24h0Z"/><path class="cls-6" d="M7.41,10.13s0,0,0,0l-.06,0c-.08,0-.12,0-.12.07s.13.08.12.14,0,0-.06,0,0,0,0-.05h0l0,0a.11.11,0,0,0,.07,0c.07,0,.12,0,.13-.07s-.13-.09-.13-.14,0,0,.06,0,0,0,.05,0Z"/><path class="cls-5" d="M12.62,8.6s0,0,0,0,0,0,0,0l0,0s-.05,0-.05,0a.11.11,0,0,1,0,0s0,0,0,0l0,0h-.05l0,0h0V8.55s0-.06.09-.07h.08a.25.25,0,0,1,.24,0,.19.19,0,0,1,.12,0,.25.25,0,0,1,.13,0H13c.05,0,.09,0,.08.07v.06h0l0,0h0l0,0s0,0,0,0l0,0s0,0-.05,0l0,0s0,0-.05,0-.05,0-.05,0Z"/><path d="M12.93,8.67h0l0,0,0,0-.06,0s0,0,0,0l-.06,0a0,0,0,0,1,0,0l-.05,0s0,0,0,0l-.05,0a0,0,0,0,1,0,0h0l-.05,0,0,0h0a.07.07,0,0,0,0,0l.06,0,0,0h0l.05,0,0,0,.05,0,0,0,0,0,.05,0,0,0h0l0,0,.09-.1s0-.07-.08-.08h0c.05,0,.09,0,.09.07l0,.06-.09.06Zm-.69-.05h0v0c0-.05,0-.08.09-.09h0a.38.38,0,0,1,.28,0,.33.33,0,0,1,.24,0,.38.38,0,0,0-.24,0,.29.29,0,0,0-.24,0H12.3c-.06,0-.09,0-.09.06l0,.07Z"/><path class="cls-6" d="M12.57,8.44s0-.08,0-.08.05,0,.05.08,0,.07-.05.07,0,0,0-.07Z"/><path d="M12.62,8.52s-.06,0-.06-.08.12-.1.12,0,0,.08-.06.08Zm0-.16s0,0,0,.08a.05.05,0,1,0,.1,0s0-.08-.05-.08Z"/><path class="cls-6" d="M12.6,8.44s0-.07,0-.07,0,0,0,.07,0,.06,0,.06,0,0,0-.06Z"/><path class="cls-1" d="M12.6,8.44s0-.07,0-.07,0,0,0,.07,0,.06,0,.06S12.6,8.47,12.6,8.44Z"/><path class="cls-6" d="M12.34,8.75a.08.08,0,0,0,0-.05,1.51,1.51,0,0,1,.6,0l0,0,0,0a.88.88,0,0,0-.26,0,1,1,0,0,0-.27,0v0Z"/><path d="M12.35,8.78h0v0l0,0a.9.9,0,0,1,.3-.05,1.28,1.28,0,0,1,.3,0l0,.05h0l0-.05a2.33,2.33,0,0,0-.3,0,1.19,1.19,0,0,0-.29,0l0,0v0a1,1,0,0,1,.27,0h0a.84.84,0,0,0-.26,0Z"/><path class="cls-6" d="M12.62,8.84l.24,0s0,0,0,0v0a1.14,1.14,0,0,0-.52,0l0,0s0,0,0,0l.24,0Z"/><path d="M12.62,8.85a1.19,1.19,0,0,1-.24,0s0,0,0,0a.84.84,0,0,1,.54,0s0,.05,0,.05a1.09,1.09,0,0,1-.24,0Zm0-.1a.93.93,0,0,0-.26,0s0,0,0,0a1.93,1.93,0,0,0,.48,0s0,0,0,0a.73.73,0,0,0-.27,0Z"/><path class="cls-7" d="M12.85,8.47a0,0,0,0,1,0,0s0,0,0,0,0,0,0,0l0,0Z"/><path class="cls-1" d="M12.85,8.47a0,0,0,0,1,0,0s0,0,0,0,0,0,0,0Z"/><path class="cls-1" d="M12.84,8.41l0,0,0,0,0,0Zm0,0h0a0,0,0,0,1,0,0S12.8,8.38,12.8,8.37Zm-.06,0,0,0,0,0h0Zm-.05,0s0,0,0,0a0,0,0,0,1,0,0,0,0,0,0,1,0,0S12.69,8.37,12.69,8.36Z"/><path d="M13,8.59h0s0,0,0,0a.11.11,0,0,0-.16-.09.05.05,0,0,1,.05,0,.12.12,0,0,1,.12.12s0,0,0,0Z"/><path d="M12.83,8.49v0c0-.06-.09-.1-.16-.06s.17,0,.17.06v0Z"/><path class="cls-1" d="M13,8.53l0,0s0,0,0,0,0,0,0,0Zm0-.06a0,0,0,0,1,0,0,0,0,0,0,1,0,0l0,0Zm0-.05h0l0,0Zm-.05,0,0,0s0,0,0,0,0,0,0,0Zm-.06,0,0,0,0,0,0,0Z"/><path class="cls-6" d="M12.93,8.66l0,0a.05.05,0,0,1-.05,0s0,0,0,0a.1.1,0,0,1-.06,0,0,0,0,0,1,0,0l-.05,0a.07.07,0,0,1-.05,0s0,0,0,0l0,0a.07.07,0,0,1,0,0,.06.06,0,0,1-.06,0l0,0s-.05,0-.05,0v0h0a1.17,1.17,0,0,1,.29,0,1.26,1.26,0,0,1,.3,0v0Z"/><path d="M12.92,8.69a1.28,1.28,0,0,0-.3,0,1.19,1.19,0,0,0-.29,0v0h.05s0,0,0,0a0,0,0,0,0,.09,0l.05,0s0,0,0,0l.05,0h0l.05,0,0,0h0a.08.08,0,0,0,.05,0s0,0,0,0h.05v0h-.05s0,0,0,0a.08.08,0,0,1-.05,0l0,0,0,0s-.05,0-.05,0a.07.07,0,0,1,0,0h0l0,0,0,0s-.06,0-.06,0,0,0,0,0h.22a1.12,1.12,0,0,1,.29,0h0Z"/><path class="cls-7" d="M12.35,8.47a0,0,0,0,1,0,0,0,0,0,0,1,0,0l0,0,0,0Z"/><path class="cls-1" d="M12.35,8.47a0,0,0,0,1,0,0,0,0,0,0,1,0,0l0,0Z"/><path class="cls-1" d="M12.36,8.41a0,0,0,0,1,0,0l0,0,0,0A0,0,0,0,1,12.36,8.41Zm.05,0h0s0,0,0,0A0,0,0,0,1,12.41,8.37Zm.05,0,0,0,0,0h0Zm.06,0,0,0s0,0,0,0,0,0,0,0Z"/><path d="M12.21,8.59h0s0,0,0,0a.11.11,0,0,1,.17-.1c-.09,0-.16,0-.16.1a.06.06,0,0,0,0,0h0Z"/><path d="M12.41,8.5v0c0-.07.1-.11.17-.07-.08,0-.16,0-.16.07v0Z"/><path class="cls-1" d="M12.16,8.53l0,0s0,0,0,0,0,0,0,0A0,0,0,0,1,12.16,8.53Zm0-.06a0,0,0,0,1,0,0l0,0,0,0Zm0-.05h0s0,0,0,0Zm0,0,0,0,0,0,0,0Zm.06,0,0,0,0,0,0,0Z"/><path class="cls-6" d="M12.62,8.56h0v0a0,0,0,0,0,0,0s0,0,0,0h0s0,0,0,0a0,0,0,0,0,0,0h0v0h0a0,0,0,0,0,0,0l0,0h0v0l0,0a0,0,0,0,0,0,0l0,0v0l0,0h0l0,0h0a.06.06,0,0,1-.06,0l0,0,0,0-.05,0a.09.09,0,0,1-.05,0,.09.09,0,0,1,0,0l0,0,0,0-.05,0s0,0,0,0h0l0,0h0l0,0v0l0,0,0,0s0,0,0,0v0h0a.05.05,0,0,0,0,0,0,0,0,0,0,0,0h0v0h0s0,0,0,0a0,0,0,0,0,0,0h0s0,0,0,0a0,0,0,0,0,0,0v0Z"/><path d="M12.93,8.68h0l0-.05s-.06,0-.06,0h0l0,0s-.08,0-.08,0,0,0,0,0v0h0l0,.05,0,0,0,0s0,.05,0,.06Zm-.61,0h0l0,0h0a.1.1,0,0,0,0,.05h0l0,0h0l.06,0,0,0h0v0h0c.05,0,.07,0,.08,0a.06.06,0,0,0,.09,0,.07.07,0,0,0,.1,0s.07,0,.09,0,.08,0,.09,0a.09.09,0,0,0,.07,0h0a.06.06,0,0,1-.07,0s-.06,0-.09,0-.07,0-.09,0-.07,0-.1,0-.07,0-.09,0,0,0,0,0Zm.06,0,0,0h0s0,0,0,0v0c0,.09.09.07.1,0h0s-.09,0-.09,0,0,.06,0,.06Z"/><path class="cls-6" d="M12.62,8.67a1.26,1.26,0,0,0-.3,0s0,0,0,0h0a.84.84,0,0,1,.3,0,.93.93,0,0,1,.31,0h0s0,0,0,0a1.26,1.26,0,0,0-.3,0Z"/><path d="M12.92,8.71h0a1.22,1.22,0,0,0-.6,0l0,0a1.66,1.66,0,0,1,.55,0Zm0,0a1.37,1.37,0,0,0-.31,0l-.22,0a.73.73,0,0,1,.22,0,1.3,1.3,0,0,1,.31,0Z"/><path class="cls-7" d="M12.51,8.71a0,0,0,0,1,0,0,0,0,0,0,1,0,0v0l0,0Z"/><path class="cls-1" d="M12.51,8.71a0,0,0,0,1,0,0,0,0,0,0,1,0,0v0Z"/><path class="cls-5" d="M12.62,8.72h0a0,0,0,0,1,0,0h.1s0,0,0,0Z"/><path class="cls-1" d="M12.62,8.72h0a0,0,0,0,1,0,0h.1s0,0,0,0Z"/><path class="cls-8" d="M12.44,8.73h0s0,0,0,0h.08v0Z"/><path class="cls-1" d="M12.44,8.73h0s0,0,0,0h.08v0Z"/><polygon class="cls-5" points="12.32 8.75 12.34 8.73 12.36 8.73 12.35 8.76 12.32 8.75"/><polygon class="cls-1" points="12.32 8.75 12.34 8.73 12.36 8.73 12.35 8.76 12.32 8.75 12.32 8.75"/><path class="cls-7" d="M12.7,8.71a0,0,0,0,1,0,0s0,0,0,0,0,0,0,0l0,0Z"/><path class="cls-1" d="M12.7,8.71a0,0,0,0,1,0,0s0,0,0,0,0,0,0,0Z"/><path class="cls-8" d="M12.81,8.73h0v0Z"/><path class="cls-1" d="M12.81,8.73h0v0Z"/><polygon class="cls-5" points="12.92 8.75 12.9 8.73 12.88 8.73 12.89 8.76 12.92 8.75"/><polygon class="cls-1" points="12.92 8.75 12.9 8.73 12.88 8.73 12.89 8.76 12.92 8.75 12.92 8.75"/><path class="cls-5" d="M12.62,8.82l-.24,0a.83.83,0,0,1,.24,0,.9.9,0,0,1,.25,0l-.25,0Z"/><path d="M12.62,8.83h0a.9.9,0,0,1-.25,0,1.06,1.06,0,0,1,.5,0,.62.62,0,0,1-.25,0Zm0-.06a.88.88,0,0,0-.24,0l.24,0a.9.9,0,0,0,.25,0l-.25,0Z"/><path class="cls-6" d="M12.92,8.62s0,0,0,0h0v0Z"/><path class="cls-1" d="M12.92,8.62s0,0,0,0h0v0Z"/><path class="cls-6" d="M12.73,8.58v0h0Z"/><path class="cls-1" d="M12.73,8.58v0h0Z"/><path class="cls-6" d="M12.51,8.58v0s0,0,0,0h0Z"/><path class="cls-1" d="M12.51,8.58v0s0,0,0,0h0Z"/><path class="cls-6" d="M12.32,8.62s0,0,0,0h0v0Z"/><path class="cls-1" d="M12.32,8.62s0,0,0,0h0v0Z"/><polygon class="cls-6" points="12.62 8.47 12.59 8.49 12.61 8.55 12.62 8.55 12.63 8.55 12.65 8.49 12.62 8.47"/><polygon class="cls-1" points="12.62 8.47 12.59 8.49 12.61 8.55 12.62 8.55 12.63 8.55 12.65 8.49 12.62 8.47 12.62 8.47"/><polygon class="cls-6" points="12.55 8.55 12.56 8.57 12.62 8.56 12.62 8.55 12.62 8.54 12.56 8.53 12.55 8.55"/><polygon class="cls-1" points="12.55 8.55 12.56 8.57 12.62 8.56 12.62 8.55 12.62 8.54 12.56 8.53 12.55 8.55 12.55 8.55"/><polygon class="cls-6" points="12.7 8.55 12.68 8.57 12.63 8.56 12.62 8.55 12.63 8.54 12.68 8.53 12.7 8.55"/><polygon class="cls-1" points="12.7 8.55 12.68 8.57 12.63 8.56 12.62 8.55 12.63 8.54 12.68 8.53 12.7 8.55 12.7 8.55"/><polygon class="cls-6" points="12.4 8.49 12.38 8.52 12.41 8.56 12.42 8.57 12.43 8.56 12.44 8.51 12.4 8.49"/><polygon class="cls-1" points="12.4 8.49 12.38 8.52 12.41 8.56 12.42 8.57 12.43 8.56 12.44 8.51 12.4 8.49 12.4 8.49"/><polygon class="cls-6" points="12.35 8.58 12.37 8.6 12.42 8.58 12.42 8.57 12.41 8.56 12.36 8.56 12.35 8.58"/><polygon class="cls-1" points="12.35 8.58 12.37 8.6 12.42 8.58 12.42 8.57 12.41 8.56 12.36 8.56 12.35 8.58 12.35 8.58"/><polygon class="cls-6" points="12.49 8.56 12.48 8.58 12.43 8.57 12.42 8.57 12.43 8.56 12.47 8.54 12.49 8.56"/><polygon class="cls-1" points="12.49 8.56 12.48 8.58 12.43 8.57 12.42 8.57 12.43 8.56 12.47 8.54 12.49 8.56 12.49 8.56"/><polygon class="cls-6" points="12.3 8.59 12.29 8.62 12.24 8.62 12.23 8.62 12.23 8.61 12.27 8.57 12.3 8.59"/><polygon class="cls-1" points="12.3 8.59 12.29 8.62 12.24 8.62 12.23 8.62 12.23 8.61 12.27 8.57 12.3 8.59 12.3 8.59"/><path class="cls-6" d="M12.4,8.57l0,0,0,0,0,0,0,0Z"/><path class="cls-1" d="M12.4,8.57l0,0,0,0,0,0Z"/><polygon class="cls-6" points="12.84 8.49 12.87 8.52 12.83 8.56 12.82 8.57 12.82 8.56 12.8 8.51 12.84 8.49"/><polygon class="cls-1" points="12.84 8.49 12.87 8.52 12.83 8.56 12.82 8.57 12.82 8.56 12.8 8.51 12.84 8.49 12.84 8.49"/><polygon class="cls-6" points="12.89 8.58 12.88 8.6 12.82 8.58 12.82 8.57 12.83 8.56 12.88 8.56 12.89 8.58"/><polygon class="cls-1" points="12.89 8.58 12.88 8.6 12.82 8.58 12.82 8.57 12.83 8.56 12.88 8.56 12.89 8.58 12.89 8.58"/><polygon class="cls-6" points="12.75 8.56 12.76 8.58 12.81 8.57 12.82 8.57 12.82 8.56 12.77 8.54 12.75 8.56"/><polygon class="cls-1" points="12.75 8.56 12.76 8.58 12.81 8.57 12.82 8.57 12.82 8.56 12.77 8.54 12.75 8.56 12.75 8.56"/><polygon class="cls-6" points="12.94 8.59 12.94 8.62 13 8.62 13.01 8.62 13 8.61 12.96 8.57 12.94 8.59"/><polygon class="cls-1" points="12.94 8.59 12.94 8.62 13 8.62 13.01 8.62 13 8.61 12.96 8.57 12.94 8.59 12.94 8.59"/><path class="cls-6" d="M12.6,8.55a0,0,0,0,1,0,0,0,0,0,0,1,0,0,0,0,0,0,1,0,0l0,0Z"/><path class="cls-1" d="M12.6,8.55a0,0,0,0,1,0,0,0,0,0,0,1,0,0,0,0,0,0,1,0,0Z"/><path class="cls-6" d="M12.8,8.57l0,0,0,0,0,0,0,0Z"/><path class="cls-1" d="M12.8,8.57l0,0,0,0,0,0Z"/><path class="cls-6" d="M12.59,8.35s0,0,0,0a0,0,0,0,1,0,0s0,0,0,0a0,0,0,0,1,0,0Z"/><polygon class="cls-6" points="12.65 8.33 12.65 8.36 12.59 8.36 12.59 8.33 12.61 8.33 12.61 8.28 12.59 8.28 12.59 8.26 12.61 8.26 12.61 8.24 12.63 8.24 12.63 8.26 12.66 8.26 12.66 8.28 12.63 8.28 12.63 8.33 12.65 8.33 12.65 8.33"/><polygon class="cls-1" points="12.65 8.33 12.65 8.36 12.59 8.36 12.59 8.33 12.61 8.33 12.61 8.28 12.59 8.28 12.59 8.26 12.61 8.26 12.61 8.24 12.63 8.24 12.63 8.26 12.66 8.26 12.66 8.28 12.63 8.28 12.63 8.33 12.65 8.33 12.65 8.33"/><polygon class="cls-6" points="12.67 8.33 12.67 8.36 12.57 8.36 12.57 8.33 12.61 8.33 12.61 8.28 12.59 8.28 12.59 8.26 12.61 8.26 12.61 8.24 12.63 8.24 12.63 8.26 12.66 8.26 12.66 8.28 12.63 8.28 12.63 8.33 12.67 8.33"/><path d="M12.62,8.39a0,0,0,0,1,0,0s0,0,0,0l0,0s.06,0,.06,0l0,0s0,0,0,0a0,0,0,0,1,0,0Z"/><path class="cls-6" d="M12.22,8.62l0,0h0a0,0,0,0,1,0,0Z"/><path class="cls-1" d="M12.22,8.62l0,0h0a0,0,0,0,1,0,0Z"/><path class="cls-6" d="M12.22,8.61h0a0,0,0,0,1,0,0h0v0Z"/><path class="cls-1" d="M12.22,8.61h0a0,0,0,0,1,0,0h0Z"/><path class="cls-6" d="M13,8.62l0,0h0s0,0,0,0Z"/><path class="cls-1" d="M13,8.62l0,0h0s0,0,0,0Z"/><path class="cls-6" d="M13,8.61h0s0,0,0,0h0s0,0,0,0Z"/><path class="cls-1" d="M13,8.61h0s0,0,0,0h0S13,8.62,13,8.61Z"/><rect class="cls-6" x="12.19" y="8.83" width="0.87" height="0.23"/><path d="M13.06,9.07h-.87V8.83h.87v.24Zm0-.24h-.86v.22h.85V8.83Z"/><path class="cls-6" d="M13,9.21h-.68a0,0,0,0,0,0-.05.07.07,0,0,0,0-.05H13a.05.05,0,0,0,0,.05s0,.05,0,.05Z"/><path d="M12.28,9.22h0a.05.05,0,0,0,0-.05s0,0,0,0h0l0,0a.05.05,0,0,1,0,0h.63s0,0,0,0a.05.05,0,0,1,0-.05l0,.05a.09.09,0,0,0,0,.05h-.68Z"/><path class="cls-6" d="M12.3,9.21H13s0,0,0,0,0,0,0,0H12.3s0,0,0,0,0,0,0,0Z"/><path d="M13,9.28H12.3a0,0,0,1,1,0-.08H13s.05,0,.05,0,0,0-.05,0Zm-.65-.06v0H13a0,0,0,0,0,0,0l-.68,0Z"/><path class="cls-6" d="M12.3,9.06H13a0,0,0,0,1,0,0l0,0H12.3l0,0a0,0,0,0,1,0,0Z"/><path d="M13,9.12H12.3s-.05,0-.05,0,0,0,.05,0H13s.05,0,.05,0,0,0-.05,0Zm-.65,0,.65,0s0,0,0,0l-.68,0Z"/><path class="cls-9" d="M12,12.89a.33.33,0,0,0,.15,0,.39.39,0,0,1,.3,0,.33.33,0,0,0,.15,0,.38.38,0,0,0,.16,0,.33.33,0,0,1,.15,0,.29.29,0,0,1,.14,0,.38.38,0,0,0,.16,0V13a.38.38,0,0,1-.16,0,.29.29,0,0,0-.14,0l-.15,0a.27.27,0,0,1-.16,0,.33.33,0,0,1-.15,0,.39.39,0,0,0-.3,0A.33.33,0,0,1,12,13v-.09Z"/><path d="M13.23,13h0a.27.27,0,0,1-.16,0,.37.37,0,0,0-.29,0,.34.34,0,0,1-.31,0,.39.39,0,0,0-.3,0A.24.24,0,0,1,12,13v-.1l.16,0a.32.32,0,0,1,.3,0,.37.37,0,0,0,.31,0,.35.35,0,0,1,.3,0,.33.33,0,0,0,.15,0V13Zm-.91-.16a.33.33,0,0,0-.15,0,.33.33,0,0,1-.15,0V13l.15,0a.39.39,0,0,1,.3,0,.42.42,0,0,0,.31,0,.39.39,0,0,1,.3,0,.32.32,0,0,0,.14,0v-.08a.37.37,0,0,1-.15,0,.37.37,0,0,0-.29,0,.42.42,0,0,1-.31,0,.33.33,0,0,0-.15,0Z"/><path class="cls-10" d="M12,13a.33.33,0,0,0,.15,0,.39.39,0,0,1,.3,0,.33.33,0,0,0,.15,0,.27.27,0,0,0,.16,0l.15,0a.29.29,0,0,1,.14,0,.38.38,0,0,0,.16,0v.09a.38.38,0,0,1-.16,0,.29.29,0,0,0-.14,0,.33.33,0,0,0-.15,0,.38.38,0,0,1-.16,0,.33.33,0,0,1-.15,0,.39.39,0,0,0-.3,0,.33.33,0,0,1-.15,0V13Z"/><path d="M13.23,13.08h0a.27.27,0,0,1-.16,0,.41.41,0,0,0-.29,0,.37.37,0,0,1-.31,0,.35.35,0,0,0-.3,0,.24.24,0,0,1-.15,0V13l.16,0a.39.39,0,0,1,.3,0,.42.42,0,0,0,.31,0,.39.39,0,0,1,.3,0,.33.33,0,0,0,.15,0v.11Zm-.91-.16a.37.37,0,0,0-.15,0A.24.24,0,0,1,12,13v.08a.42.42,0,0,0,.15,0,.39.39,0,0,1,.3,0,.37.37,0,0,0,.31,0,.39.39,0,0,1,.3,0,.33.33,0,0,0,.14,0V13a.2.2,0,0,1-.15,0,.37.37,0,0,0-.29,0,.34.34,0,0,1-.31,0,.33.33,0,0,0-.15,0Z"/><path class="cls-9" d="M12,13.07a.33.33,0,0,0,.15,0,.39.39,0,0,1,.3,0,.33.33,0,0,0,.15,0,.38.38,0,0,0,.16,0,.33.33,0,0,1,.15,0,.29.29,0,0,1,.14,0,.38.38,0,0,0,.16,0v.1a.38.38,0,0,1-.16,0,.29.29,0,0,0-.14,0,.33.33,0,0,0-.15,0,.38.38,0,0,1-.16,0,.24.24,0,0,1-.15,0,.39.39,0,0,0-.3,0,.24.24,0,0,1-.15,0v-.1Z"/><path d="M13.23,13.17h0a.38.38,0,0,1-.16,0,.37.37,0,0,0-.29,0,.37.37,0,0,1-.31,0,.39.39,0,0,0-.3,0,.33.33,0,0,1-.15,0v-.1a.42.42,0,0,0,.16,0,.39.39,0,0,1,.3,0,.37.37,0,0,0,.31,0,.39.39,0,0,1,.3,0,.33.33,0,0,0,.15,0v.1ZM12.32,13l-.15,0a.24.24,0,0,1-.15,0v.09l.15,0a.35.35,0,0,1,.3,0,.37.37,0,0,0,.31,0,.39.39,0,0,1,.3,0,.32.32,0,0,0,.14,0v-.09a.2.2,0,0,1-.15,0,.41.41,0,0,0-.29,0,.37.37,0,0,1-.31,0,.33.33,0,0,0-.15,0Z"/><path class="cls-10" d="M12,13.26a.33.33,0,0,0,.15,0,.3.3,0,0,1,.3,0,.33.33,0,0,0,.15,0,.27.27,0,0,0,.16,0,.57.57,0,0,1,.15,0,.29.29,0,0,1,.14,0,.38.38,0,0,0,.16,0v-.09a.38.38,0,0,1-.16,0,.29.29,0,0,0-.14,0,.33.33,0,0,0-.15,0,.38.38,0,0,1-.16,0,.24.24,0,0,1-.15,0,.39.39,0,0,0-.3,0,.24.24,0,0,1-.15,0v.09Z"/><path d="M13.23,13.27h0a.27.27,0,0,1-.16,0,.37.37,0,0,0-.29,0,.34.34,0,0,1-.31,0,.39.39,0,0,0-.3,0,.24.24,0,0,1-.15,0v-.1l.16,0a.35.35,0,0,1,.3,0,.37.37,0,0,0,.31,0,.35.35,0,0,1,.3,0,.33.33,0,0,0,.15,0v.11Zm-.91-.16a.37.37,0,0,0-.15,0,.33.33,0,0,1-.15,0v.09l.15,0a.39.39,0,0,1,.3,0,.42.42,0,0,0,.31,0,.39.39,0,0,1,.3,0,.32.32,0,0,0,.14,0v-.08a.37.37,0,0,1-.15,0,.37.37,0,0,0-.29,0,.37.37,0,0,1-.31,0,.33.33,0,0,0-.15,0Z"/><path class="cls-9" d="M12,13.35a.33.33,0,0,0,.15,0,.39.39,0,0,1,.3,0,.33.33,0,0,0,.15,0,.38.38,0,0,0,.16,0,.33.33,0,0,1,.15,0,.29.29,0,0,1,.14,0,.38.38,0,0,0,.16,0v-.09a.38.38,0,0,1-.16,0,.29.29,0,0,0-.14,0l-.15,0a.27.27,0,0,1-.16,0,.33.33,0,0,1-.15,0,.39.39,0,0,0-.3,0,.33.33,0,0,1-.15,0v.09Z"/><path d="M13.23,13.36h0a.38.38,0,0,1-.16,0,.37.37,0,0,0-.29,0,.42.42,0,0,1-.31,0,.39.39,0,0,0-.3,0,.33.33,0,0,1-.15,0v-.1l.16,0a.39.39,0,0,1,.3,0,.42.42,0,0,0,.31,0,.39.39,0,0,1,.3,0,.33.33,0,0,0,.15,0v.11Zm-.91-.16a.33.33,0,0,0-.15,0,.24.24,0,0,1-.15,0v.08a.42.42,0,0,0,.15,0,.39.39,0,0,1,.3,0,.34.34,0,0,0,.31,0,.39.39,0,0,1,.3,0,.33.33,0,0,0,.14,0v-.09a.2.2,0,0,1-.15,0,.37.37,0,0,0-.29,0,.34.34,0,0,1-.31,0,.33.33,0,0,0-.15,0Z"/><path class="cls-6" d="M13,12.5v0a.11.11,0,0,0,.11.11h-.89a.11.11,0,0,0,.11-.11v0H13Z"/><path d="M13.07,12.64h-.89a.14.14,0,0,0,.1-.12h0a.14.14,0,0,1-.12.12l.83,0a.1.1,0,0,1-.06-.1h0q0,.12.12.12a0,0,0,0,1,0,0Z"/><path class="cls-6" d="M12.3,12.44H13a0,0,0,0,1,0,0s0,0,0,0H12.3s0,0,0,0a0,0,0,0,1,0,0Z"/><path d="M13,12.51H12.3s-.05,0-.05,0,0,0,.05,0H13s.05,0,.05,0,0,0-.05,0Zm-.65-.06v.05H13a0,0,0,0,0,0,0l-.68,0Z"/><rect class="cls-6" x="12.18" y="12.63" width="0.89" height="0.23"/><path d="M13.07,12.86h-.89v-.23h.9v.24Zm0-.23h-.88v.21h.87v-.22Z"/><path class="cls-5" d="M13.14,11.64c.08,0,.15.1.13.13s0,0-.07.07-.1.12-.07.16a.25.25,0,0,1-.08-.18.21.21,0,0,1,.09-.18Z"/><path d="M13.12,12a.25.25,0,0,1-.08-.18.25.25,0,0,1,.09-.19c.06,0,.17.1.15.14s0,0-.07.07a.19.19,0,0,0-.08.11v0h0Zm0-.35a.25.25,0,0,0-.08.17.22.22,0,0,0,.06.15v0a.2.2,0,0,1,.09-.12s.06,0,.07-.06,0-.07-.14-.12Z"/><rect class="cls-10" x="12.31" y="9.31" width="0.63" height="3.1"/><path d="M12.84,12.4V9.31h0V12.4Zm-.06,0,0-3.09h0V12.4Z"/><path d="M13,12.41h-.64V9.31h.64v3.11Zm0-3.1h-.62v3.09h.61V9.31Z"/><path class="cls-5" d="M11.66,10.47a2,2,0,0,1,.64-.11l.31,0c.37.06.66.21.64.33h0l.14-.33c0-.13-.29-.3-.71-.37a1.67,1.67,0,0,0-.37,0,2.15,2.15,0,0,0-.65.08v.39Z"/><path d="M13.25,10.74h0s0,0,0-.07a1,1,0,0,0-.62-.25l-.3,0a2.38,2.38,0,0,0-.64.1v-.39a1.91,1.91,0,0,1,.65-.09,2.13,2.13,0,0,1,.37,0,1.28,1.28,0,0,1,.7.29.15.15,0,0,1,0,.09s-.12.28-.15.34Zm-.95-.39.31,0a1,1,0,0,1,.62.26s0,0,0,0l.12-.29a.09.09,0,0,0,0-.08,1.21,1.21,0,0,0-.68-.28,2.25,2.25,0,0,0-1,.05v.38a1.63,1.63,0,0,1,.63-.12Z"/><path class="cls-5" d="M12.94,10.86c.18,0,.29-.06.31-.14s-.05-.12-.15-.18h-.16v.31Z"/><path d="M12.93,10.86v-.31h.14c.14.06.2.12.19.18s-.13.13-.32.14Zm.16-.31h-.15v.29c.17,0,.28-.06.29-.13s0-.11-.15-.17Z"/><path class="cls-5" d="M12.31,10.62a.56.56,0,0,0-.24.08h0s.08.13.24.22v-.3Z"/><path d="M12.32,10.94h0c-.1-.06-.27-.17-.24-.23a.6.6,0,0,1,.25-.09v.33Zm0-.32a.6.6,0,0,0-.22.08s0,.1.22.21v-.29Z"/><path class="cls-5" d="M13.33,11.45s-.15-.15-.39-.23l-.32-.14c-.33-.14-.58-.32-.55-.38h0S12,11,12,11s.19.22.5.37c.1,0,.31.12.41.16s.35.18.33.22l.06-.32Z"/><path d="M13.28,11.77h0s-.16-.14-.33-.21l-.41-.15c-.27-.13-.49-.28-.51-.36a1.66,1.66,0,0,1,.05-.35,1.2,1.2,0,0,0,.55.39l.32.13c.21.08.42.18.4.24l-.06.31Zm-1.22-1s0,.16,0,.29.23.24.5.36a2.78,2.78,0,0,0,.4.16.89.89,0,0,1,.33.2l.05-.29s-.12-.13-.38-.23l-.31-.12a1.48,1.48,0,0,1-.57-.37Z"/><path class="cls-6" d="M12.06,10.33a2.76,2.76,0,0,1,.08-.27h0a.7.7,0,0,1-.06.19s-.08-.11-.11-.17h-.08c.06.07.11.15.17.23h0Z"/><path class="cls-6" d="M12.29,10.07h-.06v.25h.18v0h-.1v-.22Z"/><path class="cls-6" d="M12.57,10.11h.08v0h0l-.23,0h0v0h.08l0,.23h.07l0-.22Z"/><path class="cls-6" d="M12.67,10.35h.06l0-.12h0a.43.43,0,0,0,0,.05l0,.09h.08v0l-.06-.12c.05,0,.08,0,.09,0s0,0,0-.06l-.07,0-.1,0-.05.24Zm.12-.21s.06,0,.06,0v0s0,.05-.08,0l0-.1Z"/><path class="cls-6" d="M13.12,10.43s0,.05,0,.08l0,0,0,0,0-.28h0l-.25.16h0l.06,0,.1,0Zm-.07-.07.08,0v.09l-.07,0Z"/><path d="M8.83,7.9a.08.08,0,0,1-.09-.08c0-.09.17-.09.17,0a.07.07,0,0,1-.08.08Zm0-.16a.09.09,0,0,0-.08.08c0,.09.16.09.16,0a.08.08,0,0,0-.08-.08Z"/><path class="cls-5" d="M9.7,7.13a1.87,1.87,0,0,1,.64.1.94.94,0,0,0,.32.08.83.83,0,0,0,.27,0,1,1,0,0,1,.41.1,1,1,0,0,1,.3.19l-.06.06,0,.15L11.4,8l-.08.07-.2.16H11l0,.09L9.71,8.19l-1.29.15,0-.09h-.1l-.2-.16L8,8l-.17-.19,0-.15-.06-.06a1.41,1.41,0,0,1,.3-.19,1.1,1.1,0,0,1,.42-.1.77.77,0,0,0,.26,0,.94.94,0,0,0,.33-.08,1.76,1.76,0,0,1,.63-.1Z"/><path d="M11,8.34h0L9.71,8.19l-1.29.15,0-.09h-.1L8,8l-.17-.19,0-.15-.06,0a.83.83,0,0,1,.3-.2,1,1,0,0,1,.41-.1h.27a1.77,1.77,0,0,0,.33-.08,2.12,2.12,0,0,1,1.27,0,1.65,1.65,0,0,0,.32.08,1.26,1.26,0,0,0,.27,0h0a.91.91,0,0,1,.41.1,1.17,1.17,0,0,1,.31.19l-.06.06,0,.15-.25.26-.2.16H11l0,.09Zm-2.51-1a1.09,1.09,0,0,0-.41.09,1.2,1.2,0,0,0-.3.2l.06,0,0,.16.25.26.19.16h.1l0,.09,1.28-.15L11,8.33l0-.08h.11L11.39,8l.17-.19,0-.15.06-.06a1.56,1.56,0,0,0-.3-.19,1.09,1.09,0,0,0-.41-.09,1.22,1.22,0,0,1-.27,0,1.31,1.31,0,0,1-.33-.09,2.25,2.25,0,0,0-1.26,0,1.1,1.1,0,0,1-.33.09,1.15,1.15,0,0,1-.26,0Z"/><path class="cls-6" d="M9.72,8.82a4.42,4.42,0,0,1-1.21-.15s0,0,0-.05,0,0,0,0a4.42,4.42,0,0,1,1.21-.15,4.53,4.53,0,0,1,1.21.15.05.05,0,0,1,0,0s0,.05,0,.05a4.53,4.53,0,0,1-1.21.15Z"/><path d="M9.72,8.83h0a4.16,4.16,0,0,1-1.21-.15s0,0,0-.06a.05.05,0,0,1,0,0,4.53,4.53,0,0,1,1.21-.15,4.64,4.64,0,0,1,1.21.15.07.07,0,0,1,0,0,.07.07,0,0,1,0,.06,4.25,4.25,0,0,1-1.21.15Zm0-.39a4.25,4.25,0,0,0-1.21.15,0,0,0,0,0,0,0,.05.05,0,0,0,0,.05,4.57,4.57,0,0,0,1.21.14,4.54,4.54,0,0,0,1.2-.14.05.05,0,0,0,0-.05,0,0,0,0,0,0,0,4.13,4.13,0,0,0-1.2-.15Z"/><path class="cls-5" d="M9.71,8.76A4.33,4.33,0,0,1,8.6,8.63a5.24,5.24,0,0,1,2.23,0,4.36,4.36,0,0,1-1.12.13Z"/><path class="cls-1" d="M9.75,8.76v0Z"/><path class="cls-1" d="M9.68,8.76v0Z"/><path class="cls-1" d="M9.61,8.76v0Z"/><path class="cls-1" d="M9.55,8.76v0Z"/><path class="cls-1" d="M9.49,8.76v0Z"/><polygon points="9.37 8.75 9.37 8.52 9.38 8.75 9.37 8.75 9.37 8.75"/><polygon points="9.32 8.74 9.32 8.52 9.34 8.74 9.32 8.74 9.32 8.74"/><path class="cls-1" d="M9.14,8.73v0Zm0,0v0Zm0,0v0Z"/><path class="cls-1" d="M9.09,8.72v0Z"/><path class="cls-1" d="M9.05,8.71v0Z"/><path class="cls-1" d="M9,8.71v0Z"/><path class="cls-1" d="M8.9,8.7v0Zm0,0v0Z"/><path class="cls-1" d="M8.85,8.69v0Z"/><path class="cls-1" d="M8.81,8.68v0Z"/><path class="cls-1" d="M8.76,8.67v0Z"/><path class="cls-1" d="M8.71,8.66v0Z"/><path class="cls-1" d="M8.65,8.65v0Z"/><path class="cls-1" d="M10,8.75v0Zm-.11,0v0Zm-.09,0v0Z"/><path class="cls-6" d="M9.71,8.43a4.15,4.15,0,0,0-1.22.16s0-.05,0-.13-.09-.09-.09-.09A4.81,4.81,0,0,1,9.71,8.2a4.92,4.92,0,0,1,1.34.17s-.06,0-.1.09,0,.11,0,.13a4.12,4.12,0,0,0-1.23-.16Z"/><path d="M10.94,8.59a4.75,4.75,0,0,0-1.23-.15,4.33,4.33,0,0,0-1.22.15s0,0,0-.13-.09-.08-.09-.08h0s0,0,0,0a4.18,4.18,0,0,1,1.3-.17,5.12,5.12,0,0,1,1.34.16s-.06,0-.09.1,0,.11,0,.12ZM8.41,8.37s.06,0,.08.09,0,.12,0,.13a4,4,0,0,1,1.22-.17,4.64,4.64,0,0,1,1.21.15.17.17,0,0,1,0-.11c0-.09.1-.1.11-.1a5.63,5.63,0,0,0-1.34-.15,4.91,4.91,0,0,0-1.3.16Z"/><path class="cls-6" d="M9.71,8.2a4.81,4.81,0,0,0-1.32.17,0,0,0,0,1-.06,0,.05.05,0,0,1,0-.05,5,5,0,0,1,1.35-.17,5,5,0,0,1,1.36.17s0,0,0,.05a0,0,0,0,1-.06,0A4.78,4.78,0,0,0,9.71,8.2Z"/><path d="M11.06,8.38h0a4.58,4.58,0,0,0-1.33-.17,4.6,4.6,0,0,0-1.32.17s-.06,0-.06,0l0-.06h0a5.49,5.49,0,0,1,2.71,0l0,.07a.05.05,0,0,1,0,0ZM9.71,8.13a4.77,4.77,0,0,0-1.35.17l0,0,0,0h0A5,5,0,0,1,9.71,8.2a5.12,5.12,0,0,1,1.34.16h0s0,0,0,0l0,0a4.8,4.8,0,0,0-1.36-.17Z"/><path d="M9.71,8.77h0A4.63,4.63,0,0,1,8.6,8.64,4.1,4.1,0,0,1,9.71,8.5a5.12,5.12,0,0,1,1.12.12,3.8,3.8,0,0,1-1.12.15Zm0-.25a4.6,4.6,0,0,0-1.11.12,5.28,5.28,0,0,0,1.11.11,4.2,4.2,0,0,0,1.12-.13,6,6,0,0,0-1.12-.1Z"/><path class="cls-7" d="M9.34,8.32a0,0,0,0,1,0,0,0,0,0,0,1,0,0s0,0,0,0a0,0,0,0,1,0,0Z"/><path class="cls-1" d="M9.34,8.32a0,0,0,0,1,0,0,0,0,0,0,1,0,0s0,0,0,0a0,0,0,0,1,0,0Z"/><path class="cls-5" d="M9.72,8.36H9.59s-.05,0-.05,0,0,0,.05,0h.26a0,0,0,0,1,0,0,0,0,0,0,1-.05,0Z"/><path d="M9.84,8.36H9.59a0,0,0,0,1-.05,0,0,0,0,0,1,.05-.05h.26a0,0,0,0,1,.05.05s0,0-.06,0Zm-.25-.08a0,0,0,0,0,0,0,0,0,0,0,0,0,0h.25s0,0,0,0,0,0,0,0Z"/><path class="cls-8" d="M9.07,8.39H9a.05.05,0,0,1-.05,0,0,0,0,0,1,0,0h.19a.05.05,0,0,1,.05,0,0,0,0,0,1,0,.05Z"/><path d="M9,8.41a0,0,0,0,1-.05,0l0,0H9l.18,0s.06,0,.06,0l0,.05h0L9,8.41Zm0,0s0,0,0,0H9l.19,0,0,0h0s0,0,0,0L9,8.33l0,0Z"/><path class="cls-7" d="M8.7,8.4a0,0,0,0,1,0,0,0,0,0,1,1,0,.08,0,0,0,0,1,0,0Z"/><path class="cls-1" d="M8.7,8.4a0,0,0,0,1,0,0,0,0,0,1,1,0,.08,0,0,0,0,1,0,0Z"/><polygon class="cls-5" points="8.41 8.47 8.46 8.41 8.6 8.43 8.49 8.5 8.41 8.47"/><polygon points="8.49 8.51 8.41 8.48 8.46 8.4 8.6 8.42 8.49 8.51 8.49 8.51"/><path class="cls-8" d="M10.36,8.39h.09s.05,0,.05,0a0,0,0,0,0,0,0h-.19s0,0,0,0,0,.05,0,.05Z"/><path d="M10.46,8.41l-.2,0,0-.06a0,0,0,0,1,0,0l.19,0,0,.06a.07.07,0,0,1,0,0Zm-.19-.1s0,0,0,0l0,0,.19,0s0,0,0,0l0,0-.19,0Z"/><path class="cls-7" d="M10,8.32a0,0,0,0,1,.05,0,0,0,0,0,1,0,0,0,0,0,0,1,0,0s-.05,0-.05,0Z"/><path class="cls-1" d="M10,8.32a0,0,0,0,1,.05,0,0,0,0,0,1,0,0,0,0,0,0,1,0,0s-.05,0-.05,0Z"/><path class="cls-7" d="M10.65,8.4a0,0,0,1,1,.08,0,0,0,0,0,1-.08,0,0,0,0,0,1,0,0Z"/><path class="cls-1" d="M10.65,8.4a0,0,0,1,1,.08,0,0,0,0,0,1-.08,0,0,0,0,0,1,0,0Z"/><polygon class="cls-5" points="11.02 8.47 10.97 8.41 10.84 8.43 10.94 8.5 11.02 8.47"/><polygon points="10.94 8.51 10.83 8.43 10.97 8.4 11.02 8.47 10.94 8.51 10.94 8.51"/><path d="M8.55,8.65h0A4.52,4.52,0,0,1,9.71,8.5a4.55,4.55,0,0,1,1.18.14,5.72,5.72,0,0,0-1.18-.12,4.88,4.88,0,0,0-1.16.13Z"/><path class="cls-6" d="M8.75,7.47l.05,0,.09-.13a.29.29,0,0,1-.15-.25v0c0-.17.22-.3.47-.3a.63.63,0,0,1,.35.09.15.15,0,0,1,0-.07.69.69,0,0,0-.36-.09c-.3,0-.53.17-.54.37v0a.34.34,0,0,0,.12.27l0,.07Z"/><path d="M8.81,7.52l-.06,0,0-.08a.37.37,0,0,1-.13-.27.5.5,0,0,1,.55-.42.83.83,0,0,1,.36.09v.08a.83.83,0,0,0-.36-.09c-.25,0-.45.14-.46.3a.27.27,0,0,0,.14.28l-.08.15Zm.4-.79c-.28,0-.52.16-.53.36a.35.35,0,0,0,.12.3l0,.08,0,0,.08-.12a.29.29,0,0,1-.15-.25c0-.21.22-.35.48-.35a.56.56,0,0,1,.35.1.16.16,0,0,1,0-.07.75.75,0,0,0-.35-.08Z"/><path class="cls-6" d="M8.76,7.47a.35.35,0,0,1-.17-.29.4.4,0,0,1,.22-.33.34.34,0,0,0-.14.24v0a.34.34,0,0,0,.12.27l0,.07Z"/><path d="M8.76,7.48h0a.38.38,0,0,1-.17-.3.42.42,0,0,1,.22-.34.45.45,0,0,0-.12.25.35.35,0,0,0,.12.3l0,.09Zm0-.64a.44.44,0,0,0-.2.34.36.36,0,0,0,.15.28l0-.06a.37.37,0,0,1-.13-.27.4.4,0,0,1,.14-.29Z"/><path class="cls-6" d="M7.85,7.61a.36.36,0,0,1-.09-.24.41.41,0,0,1,0-.16.74.74,0,0,1,.66-.29,1,1,0,0,1,.24,0l0,0L8.45,7a.64.64,0,0,0-.59.26.28.28,0,0,0,0,.13.27.27,0,0,0,.11.22l-.1.17-.06,0,.07-.11Z"/><path d="M7.84,7.77l-.06,0,.07-.12a.33.33,0,0,1-.1-.23.29.29,0,0,1,0-.16.73.73,0,0,1,.66-.3,1,1,0,0,1,.24,0,.15.15,0,0,1,0,.06h-.2a.67.67,0,0,0-.59.26.43.43,0,0,0,0,.12.32.32,0,0,0,.1.22l-.1.18Zm.61-.84a.72.72,0,0,0-.65.29.36.36,0,0,0,.06.38l-.07.12,0,0,.09-.16a.27.27,0,0,1-.11-.22.5.5,0,0,1,0-.13A.66.66,0,0,1,8.45,7a.55.55,0,0,1,.19,0,.21.21,0,0,1,0-.06Z"/><path class="cls-6" d="M8,7a.55.55,0,0,0-.17.17.41.41,0,0,0,0,.16.36.36,0,0,0,.09.24l-.06.1a.43.43,0,0,1-.09-.26A.49.49,0,0,1,8,7Z"/><path d="M7.79,7.72h0a.39.39,0,0,1-.1-.26A.49.49,0,0,1,8,7a.65.65,0,0,0-.16.18.36.36,0,0,0,.06.38l-.07.12Zm0-.56a.42.42,0,0,0-.12.29.38.38,0,0,0,.09.24l.06-.09a.33.33,0,0,1-.1-.23.29.29,0,0,1,0-.16.13.13,0,0,1,0,0Z"/><path class="cls-6" d="M9.71,6.69a.13.13,0,0,1,.14.1,1.1,1.1,0,0,1,0,.18V7a1.35,1.35,0,0,0,.05.33l-.21.2-.21-.2A1,1,0,0,0,9.55,7V7a1.1,1.1,0,0,1,0-.18.13.13,0,0,1,.14-.1Z"/><path d="M9.71,7.56,9.5,7.35a1.41,1.41,0,0,0,0-.33V7h0a1,1,0,0,1,0-.18.16.16,0,0,1,.3,0,1,1,0,0,1,0,.18V7a1,1,0,0,0,0,.33l-.22.21Zm0-.87a.14.14,0,0,0-.13.1,1.1,1.1,0,0,0,0,.18V7a1,1,0,0,1-.05.33l.2.19.21-.2A.87.87,0,0,1,9.86,7V7h0a.55.55,0,0,0,0-.18.13.13,0,0,0-.13-.1Z"/><path class="cls-6" d="M9.71,6.75a.09.09,0,0,1,.08.06c0,.05,0,.11,0,.17V7a.83.83,0,0,0,0,.31l-.14.13-.14-.13a.83.83,0,0,0,0-.31V7a.88.88,0,0,1,0-.17s0-.06.07-.06Z"/><path d="M9.71,7.47l-.14-.13a1.39,1.39,0,0,0,0-.32V7h0c0-.07,0-.13,0-.18s.15-.07.16,0a.9.9,0,0,1,0,.18V7a.87.87,0,0,0,0,.31l-.15.14Zm0-.71a.08.08,0,0,0-.07,0c0,.05,0,.11,0,.17V7a.9.9,0,0,1,0,.31l.13.12.13-.12A1.18,1.18,0,0,1,9.79,7V7h0a.91.91,0,0,0,0-.17.08.08,0,0,0-.07,0Z"/><path class="cls-6" d="M10.67,7.47l-.05,0-.08-.13a.31.31,0,0,0,.14-.25v0c0-.17-.21-.3-.47-.3a.63.63,0,0,0-.35.09V6.81a.63.63,0,0,1,.35-.09c.3,0,.53.17.54.37v0a.38.38,0,0,1-.12.27l0,.07Z"/><path d="M10.61,7.52l-.08-.14a.31.31,0,0,0,.15-.25c0-.2-.22-.34-.47-.34a.62.62,0,0,0-.34.1.15.15,0,0,1,0-.08.72.72,0,0,1,.36-.1c.3,0,.54.17.55.38a.43.43,0,0,1-.13.32l0,.06-.07,0Zm-.4-.74c.26,0,.47.14.48.31a.34.34,0,0,1-.15.3l.08.11.05,0-.05,0a.41.41,0,0,0,.13-.28.49.49,0,0,0-.54-.4.68.68,0,0,0-.35.09s0,0,0,.06a.51.51,0,0,1,.34-.1Z"/><path class="cls-6" d="M10.67,7.47a.36.36,0,0,0,.16-.29.39.39,0,0,0-.21-.33.33.33,0,0,1,.13.24v0a.38.38,0,0,1-.12.27l0,.07Z"/><path d="M10.67,7.48l-.05-.08a.37.37,0,0,0,.13-.27.34.34,0,0,0-.14-.27.36.36,0,0,1,.23.32.38.38,0,0,1-.17.3Zm-.05-.62a.3.3,0,0,1,.14.23.43.43,0,0,1-.13.32l0,0a.36.36,0,0,0,.15-.28.38.38,0,0,0-.2-.32Z"/><path class="cls-6" d="M11.57,7.61a.36.36,0,0,0,.09-.24.41.41,0,0,0,0-.16A.72.72,0,0,0,11,6.92a.88.88,0,0,0-.24,0l0,0L11,7a.63.63,0,0,1,.58.26.28.28,0,0,1,0,.13.27.27,0,0,1-.11.22l.11.17.05,0-.07-.11Z"/><path d="M11.58,7.77l-.1-.17a.37.37,0,0,0,.1-.23.43.43,0,0,0,0-.12A.65.65,0,0,0,11,7l-.2,0,0-.06a.84.84,0,0,1,.9.26.29.29,0,0,1,0,.16.36.36,0,0,1-.09.24l.07.1-.07.06ZM11,7a.63.63,0,0,1,.59.26.28.28,0,0,1,0,.13.3.3,0,0,1-.11.23l.1.15.05,0-.08-.1a.39.39,0,0,0,.1-.24.37.37,0,0,0,0-.15A.72.72,0,0,0,11,6.93l-.24,0a.1.1,0,0,1,0,0A.65.65,0,0,1,11,7Z"/><path class="cls-6" d="M11.46,7a.46.46,0,0,1,.17.17.41.41,0,0,1,0,.16.36.36,0,0,1-.09.24l.06.1a.44.44,0,0,0,.1-.26A.5.5,0,0,0,11.46,7Z"/><path d="M11.63,7.72l-.07-.11a.39.39,0,0,0,.1-.24.37.37,0,0,0,0-.15.42.42,0,0,0-.16-.17h0a.26.26,0,0,1,.1.07.4.4,0,0,1,.17.33.43.43,0,0,1-.09.26Zm0-.53v0a.29.29,0,0,1,0,.16.36.36,0,0,1-.09.24l.05.08a.38.38,0,0,0,.09-.24.42.42,0,0,0-.1-.26Z"/><path class="cls-7" d="M9.64,7.37a.07.07,0,0,1,.07-.07.07.07,0,1,1,0,.14.07.07,0,0,1-.07-.07Z"/><path d="M9.71,7.45a.08.08,0,0,1-.08-.08c0-.08.16-.08.16,0a.07.07,0,0,1-.08.08Zm0-.14s-.07,0-.07.06.14.07.14,0a.07.07,0,0,0-.07-.06Z"/><path class="cls-7" d="M9.64,7.24a.07.07,0,0,1,.07-.07.07.07,0,1,1,0,.14.07.07,0,0,1-.07-.07Z"/><path d="M9.71,7.31a.08.08,0,0,1-.08-.07c0-.09.16-.09.16,0a.07.07,0,0,1-.08.07Zm0-.14a.08.08,0,0,0-.07.07c0,.07.14.07.14,0a.07.07,0,0,0-.07-.07Z"/><path class="cls-7" d="M9.65,7.09a.06.06,0,1,1,.12,0,.06.06,0,0,1-.12,0Z"/><path d="M9.71,7.15a.07.07,0,0,1-.07-.06c0-.07.14-.07.14,0a.07.07,0,0,1-.07.06Z"/><path class="cls-7" d="M9.67,7a0,0,0,1,1,.08,0,0,0,0,1,1-.08,0Z"/><path class="cls-1" d="M9.67,7a0,0,0,1,1,.08,0,0,0,0,1,1-.08,0Z"/><path class="cls-7" d="M9.68,6.84a0,0,0,0,1,0,0s0,0,0,0,0,0,0,0a0,0,0,0,1,0,0Z"/><path class="cls-1" d="M9.68,6.84a0,0,0,0,1,0,0s0,0,0,0,0,0,0,0a0,0,0,0,1,0,0Z"/><path class="cls-6" d="M9.72,7.8h0s0,0,0,.06a.18.18,0,0,0,.19.18.19.19,0,0,0,.18-.13l0-.06s0,.07,0,.07a.2.2,0,0,0,.2.15.19.19,0,0,0,.19-.18v0l.06-.06,0,.08a.17.17,0,0,0,0,.07.18.18,0,0,0,.18.18A.18.18,0,0,0,11,8.07L11,8v.06c0,.06,0,.11.08.12a.23.23,0,0,0,.16-.06A1,1,0,0,0,11.37,8v.07a.73.73,0,0,1-.16.16.23.23,0,0,1-.16,0,.14.14,0,0,1-.12-.1.33.33,0,0,1-.14,0,.25.25,0,0,1-.24-.15.28.28,0,0,1-.2.08.29.29,0,0,1-.22-.1.27.27,0,0,1-.19.08A.28.28,0,0,1,9.72,8a.29.29,0,0,1-.23.12.26.26,0,0,1-.19-.08.29.29,0,0,1-.22.1.28.28,0,0,1-.2-.08.27.27,0,0,1-.25.15.37.37,0,0,1-.14,0c0,.05-.06.1-.11.1a.25.25,0,0,1-.17,0,.73.73,0,0,1-.16-.16V8l.14.13a.23.23,0,0,0,.16.06c.06,0,.08-.06.08-.12V8l0,.05A.19.19,0,0,0,8.82,8a.19.19,0,0,0,0-.07l0-.08.06.06v0a.18.18,0,0,0,.19.18.18.18,0,0,0,.19-.15s0-.07,0-.07,0,.07,0,.06a.2.2,0,0,0,.19.13.19.19,0,0,0,.19-.18s0,0,0-.06Z"/><path d="M11.08,8.29h0a.18.18,0,0,1-.12-.11c-.1.1-.32,0-.38-.11a.29.29,0,0,1-.42,0A.29.29,0,0,1,9.71,8a.28.28,0,0,1-.42.05.29.29,0,0,1-.42,0,.26.26,0,0,1-.38.11.14.14,0,0,1-.11.11.37.37,0,0,1-.17,0,.55.55,0,0,1-.16-.17V8s.07.05.16.12a.32.32,0,0,0,.15.07.11.11,0,0,0,.08-.12V8l.06,0A.18.18,0,0,0,8.81,8a.19.19,0,0,0,0-.07l0-.08.08,0a.18.18,0,0,0,.18.2.18.18,0,0,0,.18-.14c0-.07,0-.08,0-.08h0s0,0,0,.05a.19.19,0,0,0,.37,0,.13.13,0,0,0,0-.06l.06,0h0s0,0,0,.07A.19.19,0,0,0,10,8a.17.17,0,0,0,.17-.12.23.23,0,0,1,0-.07s0,0,0,.06a.18.18,0,0,0,.19.16.17.17,0,0,0,.18-.17h0a.2.2,0,0,1-.19.2.19.19,0,0,1-.2-.16.18.18,0,0,1,0-.06s0,0,0,0a.2.2,0,0,1-.39,0,.17.17,0,0,1,0-.07H9.67s0,0,0,.06a.2.2,0,0,1-.39.06l0-.06v0a.2.2,0,0,1-.2.18.2.2,0,0,1-.2-.19l-.06-.08,0,.08s0,0,0,.07a.19.19,0,0,1-.34.1l0,0v.05c0,.07,0,.12-.09.13a.22.22,0,0,1-.16-.07A.59.59,0,0,1,8.06,8v.07a.57.57,0,0,0,.16.15.23.23,0,0,0,.14,0,.19.19,0,0,0,.13-.1.28.28,0,0,0,.38-.12.3.3,0,0,0,.42,0A.3.3,0,0,0,9.71,8a.3.3,0,0,0,.42.05.29.29,0,0,0,.42,0,.29.29,0,0,0,.39.11.18.18,0,0,0,.12.11h0a.26.26,0,0,0,.14,0,.66.66,0,0,0,.15-.15V8s0,.07-.13.12a.23.23,0,0,1-.15.07.12.12,0,0,1-.1-.13V8l0,.05a.21.21,0,0,1-.16.08.18.18,0,0,1-.17-.26l0-.07,0,.06,0-.07,0,.08a.31.31,0,0,0,0,.08.19.19,0,0,0,.33.09L11,8l0,.07a.12.12,0,0,0,.07.12.3.3,0,0,0,.16-.07A.67.67,0,0,0,11.36,8l0,.08a.48.48,0,0,1-.15.17.46.46,0,0,1-.15,0Z"/><path class="cls-7" d="M11,8A.06.06,0,0,0,11,8S11,8,11,8a0,0,0,0,0,0,.07s0,0,.06-.05Z"/><path d="M11,8.09h0s0-.06,0-.08S11,8,11,8l0,0V8a.07.07,0,0,1-.06.05Z"/><path class="cls-7" d="M10.2,7.87s0-.06,0-.06,0,0-.05.05,0,.07,0,.07a.06.06,0,0,0,0-.06Z"/><path d="M10.15,7.94h0a.08.08,0,0,1-.05-.08s0-.06.06-.06.05,0,.05.07,0,.07-.06.07Z"/><path class="cls-7" d="M9.23,7.87s0-.06,0-.06.05,0,.05.05,0,.07,0,.07,0,0-.06-.06Z"/><path d="M9.28,7.94a.07.07,0,0,1,0-.07s0-.07,0-.07h0a.06.06,0,0,1,.06.06.06.06,0,0,1,0,.08Z"/><path class="cls-7" d="M8.4,8a.05.05,0,0,1,0-.07s.05,0,.06,0a.05.05,0,0,1,0,.07s-.05,0-.06-.05Z"/><path class="cls-1" d="M8.4,8a.05.05,0,0,1,0-.07s.05,0,.06,0a.05.05,0,0,1,0,.07s-.05,0-.06-.05Z"/><path class="cls-6" d="M8.77,7.48a.2.2,0,0,1,.08.12l0,0,0,0s0,0,0,.05a.31.31,0,0,1,0,.09l0,.07-.06,0a.07.07,0,0,0-.05,0l0,0-.05-.09,0,0a.07.07,0,0,1,0,0h0a.19.19,0,0,1,0-.14Z"/><path d="M8.77,7.8h0l0,0,0-.06,0-.07h.09a.15.15,0,0,1,0-.14.18.18,0,0,1,.1.13s.06,0,.06,0,0,0,0,.07,0,.06,0,.08a.25.25,0,0,1,0,.07H8.83a.09.09,0,0,0-.06,0Zm-.1-.19h0l0,0,0,.08,0,0a.07.07,0,0,1,.06,0,.07.07,0,0,1,.06,0,.35.35,0,0,0,0-.06.13.13,0,0,0,0-.06V7.57h0v0h0a.19.19,0,0,0-.09-.11.25.25,0,0,0,0,.13h0l-.06,0Z"/><path class="cls-6" d="M8.78,7.88a.08.08,0,0,1,0,0,0,0,0,0,1,0,0l-.08,0H8.56v0l0,0a.17.17,0,0,0-.12.08.18.18,0,0,0,.14,0,0,0,0,0,0,0,0V8l0,0,.08,0,.06,0Z"/><path d="M8.59,8h0V8l-.14-.06a.28.28,0,0,1,.12-.1v0a.15.15,0,0,0-.11.08l.11,0h0V8l0,0,.08,0,.06,0a0,0,0,0,1,0,0,0,0,0,0,1,0,0l-.07,0H8.6l0,0H8.7l.07,0a.11.11,0,0,0,0,0s0,0,0,0l-.06.06a.36.36,0,0,1-.09,0L8.59,8Z"/><path class="cls-6" d="M8.89,7.86s0,0,0-.05a.05.05,0,0,0,0,0l0,0,.09,0h0v0a.33.33,0,0,1,.14,0,.2.2,0,0,1-.12.08l0,0v0H9l-.07,0Z"/><path d="M9.1,7.9H9l-.07,0s0,0,0-.05a.08.08,0,0,0,0,0l.06-.06.09,0h0v0H9l-.08,0-.06,0s0,0,0,0a.09.09,0,0,1,0,.05l.06,0H9.1Zm0,0,0,0a.21.21,0,0,0,.11-.08.35.35,0,0,0-.11,0h0a.26.26,0,0,1,.15,0,.22.22,0,0,1-.13.09l0,0Z"/><path class="cls-5" d="M8.75,7.82a.09.09,0,0,1,.08-.08.08.08,0,0,1,.08.08.07.07,0,0,1-.08.08.08.08,0,0,1-.08-.08Z"/><path d="M8.83,7.91a.09.09,0,0,1-.09-.09c0-.09.18-.09.18,0a.09.09,0,0,1-.09.09Zm0-.16a.08.08,0,0,0-.08.07c0,.08.16.08.16,0a.08.08,0,0,0-.08-.07Z"/><path class="cls-6" d="M9.71,7.35a.22.22,0,0,1,.08.15l0,0h.06l0,.06a.33.33,0,0,1,0,.1l0,.07a.07.07,0,0,0-.06,0,.09.09,0,0,0-.07,0,.17.17,0,0,1,0-.07s0-.09,0-.1l0-.06h0l0,0a.21.21,0,0,1,.07-.15Z"/><path d="M9.78,7.71h0a.09.09,0,0,0-.12,0s0,0-.06-.07,0,0,0-.07l0-.08h0l0,0a.3.3,0,0,0,0,.09.17.17,0,0,0,0,.07s.08,0,.12,0a.16.16,0,0,0,0-.06l0-.07,0-.07h0a.17.17,0,0,1,0,0,.41.41,0,0,1,0,.1l0,.07Zm0-.21h0a.21.21,0,0,0-.07-.14.22.22,0,0,0-.06.14l-.08,0h0l0,0a.15.15,0,0,1,.06-.14.19.19,0,0,1,.09.14l0,0h0l0,0Z"/><path class="cls-6" d="M9.65,7.8s0,0,0,0a.08.08,0,0,1,0,0l-.07,0-.1,0H9.43v0a.1.1,0,0,1,0,0,.21.21,0,0,0-.15.07.35.35,0,0,0,.15.07v.06h.05l.1,0,.07,0Z"/><path d="M9.42,7.89v0l-.13-.1a.19.19,0,0,1,.15-.08h0a.27.27,0,0,0-.14.07.35.35,0,0,0,.14.06h0l0,.06h0s.08,0,.1,0l.08,0s0,0,0,0a.14.14,0,0,1,0-.06h0l-.07,0-.09,0-.05,0h.05l.1,0,.08.05a.07.07,0,0,0,0,.06.08.08,0,0,0,0,0,.18.18,0,0,1-.08.06l-.1,0-.06,0Z"/><path class="cls-6" d="M9.78,7.8s0,0,0,0a.08.08,0,0,0,0,0l.07,0,.1,0H10v0l0,0a.21.21,0,0,1,.15.07.35.35,0,0,1-.15.07l0,0v0H10l-.1,0-.07,0Z"/><path d="M10,7.89l-.05,0-.1,0-.07,0a.11.11,0,0,0,0,0,.07.07,0,0,0,0,0s0,0,.07-.06l.1,0H10c0,.06,0,.07,0,.07a.19.19,0,0,1,.15.06.23.23,0,0,1-.16.08h0a.27.27,0,0,0,.14-.07A.35.35,0,0,0,10,7.68h0l0,0h0l-.1,0-.08,0s0,0,0,0,0,0,0,0h0l.07,0s.07,0,.09,0l.05,0h0Z"/><path class="cls-6" d="M10.67,7.48a.22.22,0,0,0-.09.12l0,0,0,0a.43.43,0,0,1,0,.05.25.25,0,0,1,0,.09.25.25,0,0,0,0,.07l.06,0a.1.1,0,0,1,.05,0l.05,0,0-.09,0,0a.07.07,0,0,0,0,0h0a.23.23,0,0,0,0-.14Z"/><path d="M10.67,7.8h0a0,0,0,0,0,0,0l-.06,0a.12.12,0,0,1,0-.08.13.13,0,0,1,0-.06l0-.08a0,0,0,0,1,.06,0l0,0s0-.09.08-.12a.23.23,0,0,1,.05.15h0a.24.24,0,0,0-.05-.14.29.29,0,0,0-.07.12h0l0,0s0,0,0,0a.2.2,0,0,0,0,.09l0,.07a0,0,0,0,1,0,0,.09.09,0,0,1,.06,0l0,0,0-.06,0,0v0a.28.28,0,0,1,0,.08l0,0Z"/><path class="cls-6" d="M10.65,7.88a.05.05,0,0,0,0,0,.07.07,0,0,0,0,0l.07,0h.14v0l0,0a.2.2,0,0,1,.12.08.19.19,0,0,1-.15,0V8l0,0-.08,0-.06,0Z"/><path d="M10.83,8l0,0-.09,0,0,0s0,0,0,0,0,0,0,0a.19.19,0,0,1,.08,0h.14l0,0a.27.27,0,0,1,.12.09.21.21,0,0,1-.13,0V8h0V8Zm-.17-.11.05,0,.09,0,0,0V7.91a.25.25,0,0,0,.13,0,.26.26,0,0,0-.11-.07h0l0,0h-.12l-.07,0s0,0,0,0a0,0,0,0,1,0,0Z"/><path class="cls-6" d="M10.54,7.86a.09.09,0,0,1,0-.05l0,0-.06,0-.08,0h0v0a.28.28,0,0,0-.13,0,.15.15,0,0,0,.12.08l0,0,0,0h.14l.07,0Z"/><path d="M10.32,7.9l0,0a.94.94,0,0,1-.1-.1.17.17,0,0,1,.13,0v0a.28.28,0,0,0-.13,0,.24.24,0,0,0,.12.07h0l0,0h.13l.07,0s0,0,0,0a.05.05,0,0,1,0,0l-.05,0-.09,0,0,0h.05l.08,0,.06,0,0,0s0,0,0,0l-.08,0h-.15Z"/><path class="cls-5" d="M10.52,7.82a.09.09,0,0,1,.08-.08.09.09,0,0,1,.09.08.08.08,0,0,1-.09.08.08.08,0,0,1-.08-.08Z"/><path d="M10.6,7.91a.09.09,0,0,1-.09-.09c0-.09.19-.09.19,0a.09.09,0,0,1-.1.09Zm0-.16a.07.07,0,0,0-.07.07c0,.08.15.08.15,0a.07.07,0,0,0-.08-.07Z"/><path class="cls-5" d="M11.46,8a.06.06,0,0,0-.09,0,.06.06,0,0,0,0,.08s.06,0,.09,0a.06.06,0,0,0,0-.08Z"/><path d="M11.38,8.11h0c0-.06,0-.08,0-.1l.06,0,0,0a.08.08,0,0,1-.09.11Z"/><path class="cls-6" d="M11.34,8.05l0,0a.06.06,0,0,1,.09,0h0a.32.32,0,0,1,.09-.11.28.28,0,0,1,.14,0,.11.11,0,0,0-.12-.11.1.1,0,0,0-.09,0v0a.11.11,0,0,0-.08.07.35.35,0,0,0,0,.15.15.15,0,0,0,0-.06.23.23,0,0,0-.1-.07l0,0v.06a.37.37,0,0,0-.15,0,.19.19,0,0,0,.1.1l0,0s0,0,0,0h.22Z"/><path d="M11.26,8.07h-.14L11.17,8a.15.15,0,0,1-.11-.08.27.27,0,0,1,.12,0h0l0,0,.07,0,.1.07v0a.17.17,0,0,1,0-.1.13.13,0,0,1,.08-.08l0,0a.09.09,0,0,1,.09,0,.12.12,0,0,1,.13.12.57.57,0,0,0-.15,0,.28.28,0,0,0-.08.1l-.05,0,0,0s0,0,0,0l-.07,0Zm-.07-.18-.12,0a.39.39,0,0,0,.1.08l0,0h.2a.05.05,0,0,1,0,0l0,0,0-.05a.2.2,0,0,0-.09-.06l-.06,0v0Zm.24.09,0,0h0s0-.08.09-.1a.23.23,0,0,1,.11,0c0-.08-.13-.12-.18,0l0-.05s0,0-.06.07a.22.22,0,0,0,0,.14Z"/><path class="cls-6" d="M8.09,8.05a.05.05,0,0,0,0,0A.06.06,0,0,0,8,8H8a.32.32,0,0,0-.09-.11.28.28,0,0,0-.14,0,.12.12,0,0,1,.12-.11.12.12,0,0,1,.1,0v0A.13.13,0,0,1,8,7.84.29.29,0,0,1,8,8l0-.06.1-.07.06,0v.06a.38.38,0,0,1,.15,0,.22.22,0,0,1-.11.1l0,0,0,0H8.09Z"/><path d="M8.17,8.07H8.09l0-.05L8,8V8H8s0-.08-.09-.1a.22.22,0,0,0-.11,0h0a.16.16,0,0,1,.12,0A.21.21,0,0,1,8,8S8,8,8,8H8a.66.66,0,0,0,0-.13A.1.1,0,0,0,8,7.78v0c-.08,0-.18,0-.21,0,0-.09.15-.1.21,0v0s.07,0,.09.07a.28.28,0,0,1,0,.09h0a.36.36,0,0,1,.1-.07l.05,0v0h0l-.05,0-.09.06S8.05,8,8,8h0l0,.05s0,0,.06,0h.12v0ZM8.29,8l0,0a.32.32,0,0,0,.1-.1H8.21v0l.15,0a.19.19,0,0,1-.1.1l0,0Z"/><path class="cls-5" d="M8,8a.06.06,0,0,1,.09,0,0,0,0,0,1,0,.08s-.06,0-.09,0A.07.07,0,0,1,8,8Z"/><path d="M8.05,8.11a.07.07,0,0,1-.06,0A.09.09,0,0,1,8,8c0-.1.08-.06.11,0a.09.09,0,0,1,0,.06s0,0,0,0Z"/><path class="cls-5" d="M9.63,7.75a.08.08,0,0,1,.09-.08.08.08,0,0,1,.08.08.09.09,0,0,1-.08.08.09.09,0,0,1-.09-.08Z"/><path d="M9.72,7.83a.1.1,0,0,1-.1-.08c0-.1.19-.1.19,0a.09.09,0,0,1-.09.08Zm0-.16a.08.08,0,0,0-.08.08c0,.08.15.08.15,0a.08.08,0,0,0-.07-.08Z"/><path class="cls-9" d="M9.54,6.53a.17.17,0,0,1,.17-.16.16.16,0,0,1,.17.16.17.17,0,0,1-.17.17.18.18,0,0,1-.17-.17Z"/><path d="M9.71,6.7a.17.17,0,0,1-.17-.17.18.18,0,0,1,.17-.17.18.18,0,0,1,.18.17.17.17,0,0,1-.18.17Zm0-.33a.16.16,0,0,0-.16.16.16.16,0,0,0,.16.16.17.17,0,0,0,.17-.16.17.17,0,0,0-.17-.16Z"/><path class="cls-6" d="M9.67,6.08v.08h-.1v.09h.1v.26H9.55s0,0,0,0a.15.15,0,0,0,0,.07h.32a.14.14,0,0,0,0-.07s0,0,0,0H9.76V6.25h.1V6.16h-.1V6.08Z"/><path d="M9.87,6.6H9.56a.08.08,0,0,1,0-.07h0s0,0,0,.06h.31s0,0,0-.06l-.12,0V6.25h.1V6.16H9.76V6.08H9.67v.08h-.1v.08h.09v.26h0V6.25H9.57v-.1h.1V6.08h.1v.09h.09v.09h-.1v.25h.11c0,.06,0,.08,0,.1Z"/><path class="cls-10" d="M9.73,13.42a3.42,3.42,0,0,1-1.44-.33.94.94,0,0,1-.52-.83V11h3.91v1.29a.94.94,0,0,1-.52.83,3.41,3.41,0,0,1-1.43.33Z"/><path d="M9.73,13.43a3.41,3.41,0,0,1-1.44-.33,1,1,0,0,1-.53-.84V11h3.92v1.3a1,1,0,0,1-.53.84,3.37,3.37,0,0,1-1.43.33ZM11.67,11H7.77l0,1.28a.91.91,0,0,0,.51.82,3.34,3.34,0,0,0,2.85,0,.91.91,0,0,0,.52-.82V11Z"/><rect class="cls-10" x="9.72" y="8.8" width="1.96" height="2.17"/><path d="M11.69,11h-2V8.8h2V11Zm0-2.17H9.72V11h1.94V8.8Z"/><path class="cls-5" d="M9.72,12.26a1,1,0,0,1-2,0V11h2v1.3Z"/><path class="cls-6" d="M8.2,13a.7.7,0,0,0,.23.11V10.92H8.2Z"/><path d="M8.44,13.15h0a.72.72,0,0,1-.2-.09l0,0V10.92h.24v2.24Zm0-2.23H8.2V13l0,0,.18.08v-2.2Z"/><path class="cls-6" d="M7.77,12.24a1,1,0,0,0,.22.61V10.93H7.77Z"/><path d="M8,12.86H8a1,1,0,0,1-.22-.62V10.93H8v1.93Zm0-1.93H7.77v1.3a1,1,0,0,0,.2.58V10.93Z"/><path class="cls-11" d="M8.63,13.18h.23V10.92H8.63Z"/><path d="M8.75,13.2H8.63V10.92h.24v2.27l-.12,0Zm.1-2.28H8.63v2.25h.22V10.92Z"/><path class="cls-6" d="M9.06,13.13a.71.71,0,0,0,.23-.1V10.92H9.07Z"/><path d="M9.05,13.14V10.92h.23l0,2.12a.72.72,0,0,1-.25.11Zm.24-2.22H9.07v2.19a.65.65,0,0,0,.22-.1v-2.1Z"/><rect class="cls-5" x="7.77" y="8.8" width="1.95" height="2.17"/><path d="M9.73,11h-2V8.8h2V11Zm0-2.17H7.77V11H9.71V8.8Z"/><path class="cls-6" d="M9.51,12.83a.83.83,0,0,0,.21-.5V10.92H9.5Z"/><path d="M9.5,12.85V10.92h.24v1.42a.9.9,0,0,1-.22.51Zm.22-1.93H9.5l0,1.88a.88.88,0,0,0,.19-.48V10.92Z"/><path d="M8.75,13.2a1,1,0,0,1-1-.94V11h2v1.31a1,1,0,0,1-1,.94Zm1-2.24H7.77v1.29a1,1,0,0,0,1.93,0V11Z"/><path class="cls-5" d="M11.68,11v1.3a1,1,0,0,1-2,0V11Z"/><path d="M10.7,13.2a1,1,0,0,1-1-.94V11h2v1.31a1,1,0,0,1-1,.94Zm1-2.24H9.72v1.29a1,1,0,0,0,1.94,0V11Z"/><path class="cls-6" d="M10.08,11.94v0a0,0,0,0,1,0,0s0,0,0,0,0,0,0,0H9.93v0a.11.11,0,0,0,.08.1v.15h.06v-.15a.12.12,0,0,0,.07-.07h.18v-.05Zm.88,0V12h-.17l.18.22-.05,0-.18-.22h0v.35h-.07v-.35h0l-.19.22-.05,0L10.6,12v0h-.16v-.05Zm.1,0V12h.18a.12.12,0,0,0,.07.07v.15h.07v-.15a.11.11,0,0,0,.07-.1v0h-.07s0,0,0,0,0,0-.05,0a0,0,0,0,1,0,0v0Zm-.27.9.15-.05,0,.06a.48.48,0,0,1-.17.05.1.1,0,0,1-.1.08.1.1,0,0,1-.11-.08.53.53,0,0,1-.18-.05l0-.06a.43.43,0,0,0,.16.05.09.09,0,0,1,.06-.06v-.27h.07v.27a.09.09,0,0,1,.06.06Zm-.44-.09,0,.05a.53.53,0,0,1-.14-.12.15.15,0,0,1-.11,0,.12.12,0,0,1,0-.15h0a.45.45,0,0,1-.05-.19h.06a1,1,0,0,0,0,.16h.05l.17-.19.05,0-.16.19a.09.09,0,0,1,0,.11.69.69,0,0,0,.13.11Zm-.25-.2a0,0,0,0,1,.07.06,0,0,0,0,1-.07,0,0,0,0,0,1,0-.06ZM10,12.37H10v-.18l.07,0v.1a.41.41,0,0,0,0,.11Zm.05-.21h.07v.09s0,.08,0,.08l-.07,0a.41.41,0,0,1,0-.11v-.1Zm.23.55a.69.69,0,0,0,.19.1l0-.06a.6.6,0,0,1-.16-.08l0,0Zm0,.06a.57.57,0,0,0,.19.1l-.05.05-.16-.08,0-.07Zm.09-.38.06,0,.12-.13,0-.06-.14.17Zm-.06-.05,0-.05.12-.13.07,0-.15.16Zm.74.41,0,.05.15-.12a.12.12,0,0,0,.1,0,.11.11,0,0,0,0-.15h0a.45.45,0,0,0,0-.19h-.06a.49.49,0,0,1-.05.16h0L11,12.3l0,0,.17.19a.08.08,0,0,0,0,.11.63.63,0,0,1-.12.11Zm.24-.2s0,0-.06,0,0,0,0,.06a0,0,0,0,0,.07,0,0,0,0,0,0,0-.06Zm.09-.18h.06v-.18l-.06,0v.1s0,.07,0,.11Zm-.06-.21h-.07v.09s0,.08,0,.08l.07,0a.41.41,0,0,0,0-.11v-.1Zm-.22.55a.75.75,0,0,1-.2.1v-.06l.16-.08.05,0Zm0,.06a.75.75,0,0,1-.2.1l.05.05.16-.08v-.07ZM11,12.39l-.07,0-.11-.13,0-.06.15.17Zm.05-.05,0-.05L11,12.16l-.07,0,.15.16ZM10.27,12v.06h.19l0-.06Zm.85,0,0,.06h-.18l0-.06Zm-.47.88a0,0,0,0,1,0,0,0,0,0,0,1,0,.08,0,0,0,0,1,0,0Zm.08-.31.07,0v-.18l-.07,0v.22Zm-.07,0-.07,0v-.18l.07,0v.22Z"/><path class="cls-6" d="M9.93,11.94a.11.11,0,0,1,.08-.07v-.22h.06v.22a.11.11,0,0,1,.07.06h-.06l0,0,0,0Zm.5,0h.17l-.2-.23,0,0,.2.22h0v-.3h.06v.3h0l.2-.22.05,0-.19.23v0h-.37Zm.87,0,0,0,0,0h.07a.12.12,0,0,0-.07-.07v-.22h-.07v.22a.11.11,0,0,0-.07.06h.06Zm-1.22-.6.25.27.05,0-.25-.27v0h.18v-.07h-.18a.1.1,0,0,0-.2,0,.09.09,0,0,0,.07.1v.21h.06v-.21Zm1.3,0v.21h-.07v-.21h0l-.24.28-.05,0,.25-.28h-.19v-.07h.18a.12.12,0,0,1,.1-.07.11.11,0,0,1,.11.1.1.1,0,0,1-.07.1Zm-.66,0v.13h-.06v-.13a.09.09,0,0,1-.07-.06h-.16v-.07h.16a.11.11,0,0,1,.2,0H11v.07h-.17a.11.11,0,0,1-.07.06ZM10,11.5l-.07,0v.17l.07,0V11.5Zm.06,0,.07,0v.17l-.07,0V11.5Zm1.24,0-.07,0v.17l.07,0V11.5Zm.07,0,.06,0v.17l-.06,0V11.5Zm-1,0,.07,0,.12.14,0,0-.15-.16Zm-.05,0,0,.06.12.13.07,0-.15-.16Zm.75,0-.07,0-.11.13,0,.06.15-.16Zm.05,0,0,0-.12.13-.06,0,.14-.16Zm-.82.36v-.06h.19l0,.06ZM10,11.24a0,0,0,0,1,0,0,0,0,0,0,1,.05,0,0,0,0,0,1-.05,0,0,0,0,0,1,0,0Zm.49,0,0,.06h-.19l0-.06Zm0-.07,0-.06h-.19l0,.06Zm.63.72,0-.06h-.18l0,.06Zm.18-.69a0,0,0,0,1,0,0,0,0,0,0,1,.05,0,0,0,0,0,1-.05,0,0,0,0,0,1,0,0Zm-.65,0a0,0,0,0,1,0,0,0,0,0,0,1,.05,0,0,0,0,0,1-.05,0,0,0,0,0,1,0,0Zm.25,0,0,.06h.18l0-.06Zm0-.07,0-.06h.18l0,.06Zm-.24.21h-.07v.18l.07,0v-.21Zm.06,0h.07v.18l-.07,0v-.21Z"/><path class="cls-6" d="M10.7,13a.13.13,0,0,1-.12-.09l-.12,0h0l-.05.05h0l-.16-.08v-.07l-.08-.07.09.06a.05.05,0,0,0,0,0l0,0-.05,0h0l-.07-.07a.11.11,0,0,0,0-.11l.16-.19,0,0-.16.18h0l.16-.18.05,0-.16.19a.11.11,0,0,1,0,.11l.07.07,0-.05a.7.7,0,0,0,.17.09v.06l.1,0a.1.1,0,0,1,.06-.05v-.27h.07v.28a.11.11,0,0,1,.07.06l.14-.05,0,.06a.64.64,0,0,1-.18.06.11.11,0,0,1-.1.08Zm-.26-.13h0l.13,0c0,.09.19.09.2,0l.18-.05,0,0-.15,0a.13.13,0,0,0-.07-.05v-.28h-.06v.26a.14.14,0,0,0-.07.06l-.1,0h0l-.05,0,0,0Zm-.18-.09v.07l.16.07,0,0h0l-.09,0h0l-.05,0Zm.09,0,.09,0,.05,0v-.06a.6.6,0,0,1-.16-.08l0,0,0,0Zm-.22-.06-.07,0a.1.1,0,0,1,0-.07.11.11,0,0,1,0-.08l0-.13-.06,0,0-.18.07,0v-.1a.1.1,0,0,1-.07-.1.11.11,0,0,1,.07-.1v-.21h.07v.22s.05,0,.06.06h.18V12h-.18a.09.09,0,0,1-.07.06v.1h.06v.17l-.06,0a.38.38,0,0,0,0,.1.12.12,0,0,1,0-.09h0a.11.11,0,0,1,0,0H10a0,0,0,0,1,0,0v0a.74.74,0,0,0,0,.14.13.13,0,0,0,0,.08s0,.05,0,.06a.09.09,0,0,0,.07,0h0ZM10,12.17l-.06,0v.17H10a.43.43,0,0,0,0,0v-.15Zm.08.05v.1a.06.06,0,0,0,0,0l.06,0v-.17h-.06v.06Zm0-.57H10v.21a.09.09,0,0,0,0,.18v.13l.06,0v-.15a.13.13,0,0,0,.06-.07h.19v-.06h-.17a.16.16,0,0,0-.07-.07v-.22Zm.66.76h-.07v0h.05v-.35h0v.34Zm.2-.14-.08-.09.08.08,0,0-.19-.2h0l.18.21-.05,0Zm-.47,0-.05,0,.05-.06-.05.06.05,0,.19-.21h0l-.19.21Zm.12-.26h-.15v-.07h0V12h.16v0Zm.34,0h0v-.06H10.8v0l.15,0V12Zm-.34-.08-.19-.23.06,0,.08.09-.09-.08,0,0,.21.22Zm.16-.05h0l.19-.22.06,0,0,.05,0-.05-.05,0-.19.22Zm-.08,0h0v-.29h.06v0h-.06v.3Zm-.33-.25-.15-.16.15.15.05,0-.25-.27h0l.22.27-.05,0ZM10,11.55v-.21a.1.1,0,0,1-.07-.1c0-.1.19-.13.22,0h.17v.07h0v-.06h-.18c0-.1-.2-.07-.2,0a.1.1,0,0,0,.07.09v.22h.06v-.2h0v.2Z"/><path class="cls-6" d="M11,12.92l-.05-.05.14-.07,0-.05-.14.07h0v-.07a.51.51,0,0,0,.16-.09l.06,0,.07-.06a.1.1,0,0,1,0-.12L11,12.35l0,0,.17.19h0a.15.15,0,0,0,0-.11l-.06,0v-.18l.07,0v-.09a.12.12,0,0,1-.06-.06h-.18v-.07h.18a.1.1,0,0,1,.07-.07v-.15l-.07,0v-.17l.08,0v.16h.07v.22a.1.1,0,0,1,.08.09.11.11,0,0,1-.08.1v.1l.07,0v.18l-.07,0a.65.65,0,0,1,0,.13.11.11,0,0,1,0,.08.1.1,0,0,1,0,.07.11.11,0,0,1-.07,0,.74.74,0,0,0-.13.08h0l0,.06a.56.56,0,0,1-.17.09Zm.12-.13s0,0,0,0l-.15.07.05,0,.16-.08v-.05ZM11,12.67a.44.44,0,0,1-.15.08v.06a.69.69,0,0,0,.19-.1l-.05,0Zm0-.36,0,0,.16.17a.13.13,0,0,0,0,.12.43.43,0,0,1-.12.11l0,0s0,0,0,0a.38.38,0,0,0,.09-.09c.06,0,.08,0,.1,0a.06.06,0,0,0,0-.06.09.09,0,0,0,0-.07,1.13,1.13,0,0,0,0-.15.43.43,0,0,1,0,0h-.06v0a.27.27,0,0,1,0,.12h-.06L11,12.31Zm.34-.1v.11a.11.11,0,0,1,0,0l.06,0v-.17h-.06v0ZM11.24,12a.13.13,0,0,0,.07.06v.16h.06v-.15a.11.11,0,0,0,.08-.1.09.09,0,0,0-.08-.09v-.22h-.06v.06h0v.16a.11.11,0,0,0-.07.06h-.19V12Zm-.82.43-.07,0,.15-.17,0,.06-.12.14Zm.07-.19-.13.16.06,0,.11-.13,0,0Zm-.19.12,0-.06.12-.14.07,0-.15.17Zm.08-.19-.11.13,0,.05.15-.16-.07,0Zm-.31-.44V11.5h.07v.18l-.08,0Zm0-.22v.2l.06,0v-.16l-.07,0Zm-.06.22-.07,0v-.17l.08,0v.23Zm1-.1-.05,0,.08-.09-.08.09.05,0,.24-.27v0l-.24.27Zm.26-.07v0h.06v-.2a.11.11,0,0,0,.08-.1c0-.09-.17-.11-.2,0h-.19v.06h0v-.07h.18c0-.09.22-.07.22,0a.11.11,0,0,1-.08.1v.21Zm-.58-.08h-.07v-.13a.12.12,0,0,1-.08-.06h-.15v-.07h.16a.12.12,0,0,1,.21,0H11v.07h-.17s0,.05-.06.06v.13Zm-.14-.2s0,.06.07.06v.14h.06v-.12a.12.12,0,0,0,.07-.07H11v-.06h-.16a.11.11,0,0,0-.2,0h-.16v.06Z"/><path class="cls-6" d="M10.72,12.57v-.22l.08,0v.18l-.08,0Zm0-.21v.2l.06,0v-.17Zm-.05.21-.08,0v-.18l.07,0v.22Zm.29-.15-.12-.14,0-.06.15.16-.07,0Zm.12-.07-.15-.16.07,0,.12.13,0,.07Zm0-.29h-.19l0-.06h.23v.07Zm0-.07H10.9l0,.06h.18l0-.06Zm-.65.07h-.19l0-.06h.23l0,.07Zm0-.07h-.21l0,.06h.17l0-.06Zm.65-.05H10.9v-.07h.19l0,.08Zm0-.07h-.18l0,.06h.22l0-.06Zm-.61.07h-.22v-.07h.19l0,.08Zm0-.07h-.18v.06h.21l0-.06Zm-.09-.1-.12-.14,0-.06.15.16-.07,0Zm.64,0-.07,0,.15-.17,0,.06-.12.14Zm.07-.19-.13.16.06,0,.11-.13,0,0Zm.29.15V11.5h.08v.18l-.08,0Zm0-.22v.2l.06,0v-.16l-.07,0Zm-.88.2-.15-.17.07,0,.12.13,0,.07Zm.4,0,0-.06L11,11.5l.07,0-.15.17ZM11,11.5l-.11.14,0,0,.14-.16-.06,0Zm.14-.16h-.19l0-.06h.23v.07Zm0-.07H10.9l0,.06h.18l0-.06Zm-.65.07h-.19l0-.06h.23l0,.07Zm0-.07h-.22l0,.06h.17l0-.06Zm.65,0H10.9v-.07h.19l0,.08Zm0-.07h-.18v.06h.21l0-.06Zm-.61.07h-.23l0-.07h.19l0,.08Zm0-.07h-.18v.06h.21l0-.06Z"/><path class="cls-6" d="M10.72,11.63v-.21h.08v.18l-.08,0Zm0-.21v.2l.06,0v-.17Zm-.05.21-.08,0v-.18l.08,0v.22Z"/><path class="cls-8" d="M10.59,12a.11.11,0,0,1,.11-.1.11.11,0,0,1,.1.1.1.1,0,0,1-.1.1.1.1,0,0,1-.11-.1Z"/><path class="cls-12" d="M10.72,9.33v0a.26.26,0,0,1-.09,0,.16.16,0,0,1-.09,0s0,0-.07,0a.15.15,0,0,0-.09,0,.14.14,0,0,1,.07,0,.12.12,0,0,0,.07.06h.2Z"/><path d="M10.72,9.34h-.2a.18.18,0,0,1-.08-.06.14.14,0,0,0-.06,0s0,0,.07,0a.08.08,0,0,1,.07,0,.24.24,0,0,0,.11.06h.1v.05Zm-.08,0h0l-.09-.05-.06-.05h-.08s0,0,.06,0a.15.15,0,0,0,.08.05h.11Z"/><path class="cls-13" d="M11,9.24V9.3s0,0,0,.06v0a0,0,0,0,1,0,0l0,0,0,0v0a.08.08,0,0,0,0,.05s0,0,0,.06,0,.05,0,.05,0,0,0,0l0,0a.1.1,0,0,1,0,.06.13.13,0,0,1,0,.06l0,0,0,0a.2.2,0,0,1,0,.07s0,.1,0,.1a.08.08,0,0,0,0,0l0,0s0,0,0,.05a.44.44,0,0,0,.08.18.19.19,0,0,0,.21.11c.12,0,.08-.19.05-.27a.52.52,0,0,1,0-.19s0-.11,0-.13a.16.16,0,0,1,0-.12l0-.1s0,0,0-.05V9.11l0,.05v.06a.07.07,0,0,1,0-.06l.08-.06,0,0a.26.26,0,0,1,0,.1l-.07.09.05,0h0l-.05.07s0,0,0,.09l-.07.06s0,.16,0,.18.08.19.09.23a.24.24,0,0,1-.07.19s-.12,0-.13,0,0,0,0,.11a.1.1,0,0,0,0,.1s.05,0,.05,0l0,0s0,0,0,0l0,.07a.54.54,0,0,0,0,.1.13.13,0,0,0,0,.05s0,0,0,0h0l0,0s0,0,0,0,0,0,0,0,0,0,0,0,0,0,0,0l0,0,0,0a.05.05,0,0,1,0,0s0,0,0,0h0a0,0,0,0,1,0,0v0s0,0,0,0,0,0,.06,0l0,0a0,0,0,0,0,0-.06l0,0a.14.14,0,0,1,0,0s0,.05,0,.06v0l0,0s0-.05,0-.05v.05a0,0,0,0,0,0,0s0,0,0,0l0,0,0-.05s0-.05,0-.07l0,0h-.06s0,0-.06,0a.15.15,0,0,0,0,.11c0,.06,0,.08,0,.09l0,0h-.19s0,0,0,0,0,0,0,0h-.07l0,0s0,0,0,0h0l0,0s0,0,0,0,0-.05,0-.05h.06s0,0,0,0,0,0,0,0l0,0s0,0,0,0,0,0,0,.05,0,0,.08,0l0,0v-.08l0,0,0,0v-.08s0,0,0,0,0,0,0-.06,0-.07,0-.08a.07.07,0,0,1,.07-.07h.19L10.67,10l-.08-.08,0-.06h0a.1.1,0,0,0,0,0l0,0V9.82a.13.13,0,0,1,0,.07l-.05,0V9.87l0,0s-.07,0-.08,0,0,0,0,.05a0,0,0,0,1,0,0,0,0,0,0,0,0,0h0s0,0,0,0,0,0,0,0,0,0,0,0,0,0,0,0a.08.08,0,0,0,0,0,0,0,0,0,1,0,0h.05l0,0s0,0,0,0,0,0,0,0,0,0,0,0,0,0,0,0,.08,0,.09,0l.06,0,.06,0,0,0,0,0-.08,0-.06,0h0l0,0H10.2l0,0h0l.06,0h0l-.05,0s0,0,0,0l0,0,0,0s0,0,0,0v0s0,0,0,0h0s0,0,0,0,0,0,0,0l0,0s0,0,0,0,0,0,.05,0,0,0,0,0,0,0,0,0h.08a.05.05,0,0,1,0,0,.15.15,0,0,0,0,.06.15.15,0,0,0,0,.06l.07,0,.09.06h.18s.05,0,0-.05-.06,0-.05,0,0,0,.05,0,.07,0,.08,0,0-.07,0-.08-.07,0-.07,0,0,0,0-.05h.13s0,0,0,0l.06,0,.11.07a.39.39,0,0,1,.09.08Z"/><path d="M11.05,10.7l0,0h0l-.05,0s0,0,0,0l-.05,0v-.05h0v0l.05,0-.05.06h0l0,0,0,0,0,.07h.06a.44.44,0,0,1,0-.09.42.42,0,0,1,0-.1.05.05,0,0,1,0,0l0-.07h0l-.07-.05a.12.12,0,0,1,0-.1c0-.07,0-.11.06-.12l.13,0a.21.21,0,0,0,.06-.17.76.76,0,0,0-.06-.18l0-.05s0-.16,0-.2.06,0,.07-.06l0-.09.06-.06h0a.17.17,0,0,0-.05.06l0,0,0,0s0,0,0,0a.23.23,0,0,0,0,.2l0,0a.9.9,0,0,1,.06.18s0,.14-.06.19a.17.17,0,0,1-.11,0,.12.12,0,0,0-.08.12c0,.06,0,.07,0,.08h0l.06,0,0,.06,0,0,0,0,0,.1v0s0,0,0,.05l-.09,0ZM11,10.52h0s0,0,.06,0a.07.07,0,0,0,0-.05l0,0h0v0a.25.25,0,0,1,0-.08l.06.07a.06.06,0,0,1,0,.07l0,0Zm-.52,0,0,0v0h0s0,0,0,0v-.05h0v0l.08-.07,0,.06s0,0,.07,0h0v0l0,0v0c0,.06,0,.06-.06.06a.06.06,0,0,1-.08,0l0,0,0,0h0v.07h0v.08h0l0,0v0l0,0h0l.07,0,0,0Zm.26,0h-.09l-.08,0h.06l.08,0,.05,0a.18.18,0,0,0,0-.06c0-.09,0-.12,0-.14s0,0,0,0h.08l0,.06s0,0,0,.05a.14.14,0,0,0,0,.06l0,0,0,0h0l0,0-.05-.06s0,0,0-.05a.16.16,0,0,1,0-.07l0,0h-.1s0,.07,0,.11a.66.66,0,0,0,0,.09l0,0Zm-.14-.18s0,0,0,0v0h0a.1.1,0,0,1,0-.07s0,0,0,0v0a.1.1,0,0,1,.08-.07h.18L10.67,10l-.09-.09,0-.06a.21.21,0,0,0-.08,0l0,0s0,0,0-.05l0,0-.06,0h0v0h0l-.07,0V10h0l0,0s0,0,0-.06a.08.08,0,0,0,.07,0v0s0,0,0,0a.17.17,0,0,0,0-.07.39.39,0,0,1,0,.06v0l0,0h.05a.11.11,0,0,0,0,.06.2.2,0,0,0,.08.08l.14.08-.09,0h-.11s0,0-.06,0v.09s0,0,0,0,0,0,0,0l0,0h0v.11Zm.53-.25A.2.2,0,0,1,11,9.92a.65.65,0,0,1-.09-.19.43.43,0,0,0,0-.05h.05l0,0V9.65a.2.2,0,0,0,0-.07s0,0,.06,0l0,0a.43.43,0,0,0,0-.05s0-.05,0-.05,0,0,.06,0l0,0v0l0,0s0-.05,0-.06v0h0l0,0,0-.09V9.24h0v.19h0l0,0v0a.08.08,0,0,0,0,.05l0,0v.06l0,0h0a.06.06,0,0,1,0,0,.35.35,0,0,1,0,.07l0,0,0,0a.13.13,0,0,1,0,.06v.1s0,0,0,0h0A.45.45,0,0,0,11,9.9c.05.07.1.14.21.12a.1.1,0,0,0,.06,0,.36.36,0,0,0,0-.21.68.68,0,0,1,0-.2.18.18,0,0,1,0-.06.56.56,0,0,1,0-.07.5.5,0,0,1,0-.13.36.36,0,0,0,0-.07l0-.07V9.11s0,0,0,.05v0l0,0,.08-.05h0s0,0-.05.06-.06.07-.06.07h0a.23.23,0,0,0,0,0l0,0v0s0,0,0,0a.76.76,0,0,0,0,.11.28.28,0,0,0,0,.12s0,0,0,.07a.35.35,0,0,1,0,.06.58.58,0,0,0,0,.19c0,.11,0,.18,0,.23a.1.1,0,0,1-.07,0Zm-.93,0-.08-.05v0h0l0,0,0,0,0,0h0l0,0,0,0a.11.11,0,0,0,.08,0l.06,0,.06,0,0,0,0,0-.07,0-.07,0,0,0h0l0,0h.1l-.07,0h.06l.08,0,0,0,0,0s-.05.05-.06.06l-.06,0s-.06,0-.09,0l0,0,0,.05s.05,0,.05,0h0l0,0,0,.05h.06l0,0,.05,0Zm0-.47h0l0,0v0h-.07s0,0,0,0l0-.05h.05L10,9.3l.08-.07,0,0h0V9.2l.05,0h0a.11.11,0,0,1,0,.06s0,0,0,.05l0,.05.08,0,.08.05a.09.09,0,0,0,.07,0h.11l0,0h0l-.05-.06s0,0,.06,0,.06,0,.07,0,0-.06,0-.07-.07,0-.08,0V9.16l.06,0h.07l0,0,.06,0a.41.41,0,0,1,.12.07l.09.09s-.06,0-.1-.08a.4.4,0,0,0-.11-.06h-.05l0,0H10.6c0,.06,0,.06.07.07s.06,0,.05.09,0,0-.07,0h-.06l.06,0a.1.1,0,0,1-.05.06h-.15l-.1-.05-.06,0a.31.31,0,0,1-.08-.07.06.06,0,0,1,0-.07l0,0h-.06s0,.07,0,.07h0l0,0-.06,0s0,0,0,.06h-.06v.05h.06l.05,0a.05.05,0,0,0,.05,0s0,0,0,0Zm1.16-.25s0-.07.05-.09,0-.06,0-.08a.1.1,0,0,1,0,.09l-.05.06h0l-.06,0Z"/><path d="M10.61,9.21v0h0Z"/><path class="cls-1" d="M10.61,9.21v0h0Z"/><path d="M10.76,9.16v0h0l0,0s0,0,0,0h0Z"/><path class="cls-1" d="M10.76,9.16v0h0l0,0s0,0,0,0h0Z"/><path class="cls-1" d="M11,9.39s0,0,0,0v0Z"/><path class="cls-12" d="M10.17,9.21h.07v0a.07.07,0,0,0-.05-.06v0l0,0Z"/><path class="cls-1" d="M10.17,9.21h.07v0a.07.07,0,0,0-.05-.06v0Z"/><path class="cls-12" d="M10.08,9.25a0,0,0,0,0-.05,0,.1.1,0,0,0-.06,0h0a0,0,0,0,1,0,0l0,0v0Z"/><path class="cls-1" d="M10.08,9.25a0,0,0,0,0-.05,0,.1.1,0,0,0-.06,0h0a0,0,0,0,1,0,0l0,0Z"/><path class="cls-12" d="M10,9.37s0,0,0,0a.1.1,0,0,0,0,.06l0,0h0V9.37Z"/><path d="M10,9.45a.1.1,0,0,1,0-.06l0,0h0v0h0l0,0h0l0,0a0,0,0,0,0,0,0h.06s0,0,0,0v0Z"/><polygon points="10.61 9.37 10.62 9.35 10.63 9.36 10.61 9.37"/><polygon class="cls-1" points="10.61 9.37 10.62 9.35 10.63 9.36 10.61 9.37 10.61 9.37"/><polygon points="10.64 9.36 10.66 9.34 10.67 9.36 10.64 9.36"/><polygon class="cls-1" points="10.64 9.36 10.66 9.34 10.67 9.36 10.64 9.36 10.64 9.36"/><polygon points="10.63 9.24 10.66 9.25 10.63 9.26 10.63 9.24"/><polygon class="cls-1" points="10.63 9.24 10.66 9.25 10.63 9.26 10.63 9.24 10.63 9.24"/><polygon points="10.66 9.25 10.69 9.25 10.67 9.27 10.66 9.25"/><polygon class="cls-1" points="10.66 9.25 10.69 9.25 10.67 9.27 10.66 9.25 10.66 9.25"/><path d="M10.57,9.82h0l.06,0s0,0,0,0a.15.15,0,0,0,0-.06v0l0,0s0,0-.07,0h0s0,0,0-.07v0l-.08.05,0,0h0l0,0,.05,0h0v0l0,0H10.4s0,0,0-.05,0,0,0,0v0l0,0s0,0,0,0h0l0,0h0s0,0,0,.06v.05a.11.11,0,0,1,0,0h0l.07,0,0,0a.13.13,0,0,1,0,.06.07.07,0,0,1,0,.05l0,0,0,0h0v0h0l0,0a.11.11,0,0,1,0,.05v0l0,0s0,0,0,.05,0,0,0,0a.11.11,0,0,1,0-.06,0,0,0,0,1,0,0v0l0,0,0,0h0s0,0,0,0l0,0Z"/><path class="cls-12" d="M10.14,9.76h0a.11.11,0,0,0,0,0h.08v0Z"/><path class="cls-1" d="M10.14,9.76h0a.11.11,0,0,0,0,0h.08v0Z"/><path class="cls-12" d="M10.11,9.88a.05.05,0,0,0,0,0,.08.08,0,0,0,0,0s0,0,0,0h0V9.88Z"/><path class="cls-1" d="M10.11,9.88a.05.05,0,0,0,0,0,.08.08,0,0,0,0,0s0,0,0,0h0V9.88Z"/><path class="cls-12" d="M10.16,10s0,0,0,0a.08.08,0,0,0,0,0v0a0,0,0,0,1,0,0s0,0,0,0Z"/><path class="cls-1" d="M10.16,10s0,0,0,0a.08.08,0,0,0,0,0v0a0,0,0,0,1,0,0s0,0,0,0Z"/><path d="M10.85,10.22s0-.06,0-.09-.05-.07-.07-.09h0s.08.05.08.1a.31.31,0,0,1-.05.09Z"/><path class="cls-12" d="M10.45,10.26a.07.07,0,0,0,0,0l-.05,0h0l0,0,0,0,0,0Z"/><path class="cls-1" d="M10.45,10.26a.07.07,0,0,0,0,0l-.05,0h0l0,0,0,0Z"/><path class="cls-12" d="M10.37,10.37s0,0-.06,0a.08.08,0,0,0,0,0l.05,0,0,0v-.06Z"/><path class="cls-1" d="M10.37,10.37s0,0-.06,0a.08.08,0,0,0,0,0l.05,0,0,0v-.06Z"/><path class="cls-12" d="M10.44,10.48a.06.06,0,0,0,0,.08v0l0,0-.06,0Z"/><path class="cls-1" d="M10.44,10.48a.06.06,0,0,0,0,.08v0l0,0-.06,0Z"/><path class="cls-12" d="M10.93,10.53h0s0,.06,0,.06,0,0,0,0h0v-.05Z"/><path d="M10.83,10.61v0s0,0,0-.05h.06v0h0l0,0h.07a.13.13,0,0,0-.08,0l0,0Z"/><path class="cls-12" d="M10.94,10.65s0,0,0,0a.12.12,0,0,0,0,.05s0,0,0,0,0,0,0,0l0,0Z"/><path class="cls-1" d="M10.94,10.65s0,0,0,0a.12.12,0,0,0,0,.05s0,0,0,0,0,0,0,0l0,0Z"/><path class="cls-12" d="M11.06,10.68a.05.05,0,0,0,0,.05l0,0,0,0a.07.07,0,0,1,0,0h-.07Z"/><path class="cls-1" d="M11.06,10.68a.05.05,0,0,0,0,.05l0,0,0,0a.07.07,0,0,1,0,0h-.07Z"/><path class="cls-14" d="M9.82,12.84A.17.17,0,0,1,10,13c0,.09-.09.16-.21.16s-.21-.07-.21-.16a.15.15,0,0,1,.12-.16h0l0,0a0,0,0,0,1,0,0l0,0a0,0,0,0,1,0,0l0,0,0,0,0,0s0,0,0,0h0v0a0,0,0,0,0,0,0Z"/><path d="M9.74,13.17c-.12,0-.22-.07-.22-.17a.16.16,0,0,1,.13-.17v0a.13.13,0,0,0-.11.15c0,.08.08.15.2.15s.2-.06.2-.15a.17.17,0,0,0-.12-.15h0v0H9.76v0h0l-.05,0,0,0v0l0,0h.06l.08,0,0,.05h0l.06,0v0A.21.21,0,0,1,10,13c0,.1-.1.17-.22.17Z"/><path class="cls-8" d="M9.72,13.26a1.26,1.26,0,0,0-.22-.12.8.8,0,0,0-.22,0l.07,0a.29.29,0,0,0,.13.08.46.46,0,0,0,.24,0Z"/><path d="M9.59,13.29H9.48a.64.64,0,0,1-.14-.08l-.07,0,.05,0H9.5a2.17,2.17,0,0,1,.23.12s-.06,0-.14,0Zm-.29-.14.06,0,.12.07a.52.52,0,0,0,.23,0l-.21-.1H9.3Z"/><path class="cls-8" d="M9.77,13.27a.49.49,0,0,1,.2-.12.79.79,0,0,1,.25,0l-.06,0a.31.31,0,0,1-.16.06H9.77Z"/><path d="M10,13.28H9.78l0,0H10a.37.37,0,0,0,.15,0l.06,0s0,0-.05.05a.27.27,0,0,1-.16.06Zm-.21,0,0,0a.48.48,0,0,1,.21-.12.79.79,0,0,1,.24,0H10a.33.33,0,0,0-.19.12Z"/><path class="cls-5" d="M9.74,13.14A.19.19,0,0,1,9.67,13a.21.21,0,0,1,.07-.15A.2.2,0,0,1,9.8,13a.18.18,0,0,1-.06.14Z"/><path d="M9.74,13.16h0a.22.22,0,0,1,0-.3.17.17,0,0,1,.08.15.18.18,0,0,1-.07.15Zm0-.3a.33.33,0,0,0,0,.14.17.17,0,0,0,.05.13.21.21,0,0,0,0-.13.2.2,0,0,0-.06-.14Z"/><path class="cls-8" d="M9.7,13.35a.42.42,0,0,0,0-.11v-.08h0a.38.38,0,0,1,0,.08v.1H9.7Z"/><path d="M9.71,13.36h0a.42.42,0,0,0,0-.11.19.19,0,0,0,0-.08h0a.16.16,0,0,1,0,.09.77.77,0,0,1,0,.1H9.71Zm0-.2s0,0,0,.08a.25.25,0,0,1,0,.1h0s0-.05,0-.09a.54.54,0,0,0,0-.08Z"/><path class="cls-7" d="M11.66,7.75a0,0,0,0,1,0,0,0,0,0,0,1,0,0,0,0,0,0,1,0,0s0,0,0,0Z"/><path class="cls-1" d="M11.66,7.75a0,0,0,0,1,0,0,0,0,0,0,1,0,0,0,0,0,0,1,0,0S11.66,7.78,11.66,7.75Z"/><path class="cls-7" d="M11.71,7.65a0,0,0,0,1,0,0,0,0,0,1,1,0,.08,0,0,0,0,1,0,0Z"/><path class="cls-1" d="M11.71,7.65a0,0,0,0,1,0,0,0,0,0,1,1,0,.08A0,0,0,0,1,11.71,7.65Z"/><path class="cls-7" d="M11.75,7.53a0,0,0,0,1,0,0,0,0,0,1,1,0,.08,0,0,0,0,1,0,0Z"/><path class="cls-1" d="M11.75,7.53a0,0,0,0,1,0,0,0,0,0,1,1,0,.08A0,0,0,0,1,11.75,7.53Z"/><path class="cls-7" d="M11.76,7.4a0,0,0,1,1,.08,0,0,0,0,0,1-.08,0,0,0,0,0,1,0,0Z"/><path class="cls-1" d="M11.76,7.4a0,0,0,1,1,.08,0,0,0,0,0,1-.08,0A0,0,0,0,1,11.76,7.4Z"/><path class="cls-7" d="M11.72,7.28a0,0,0,0,1,0,0,0,0,0,0,1,0,0,0,0,0,0,1,0,0,0,0,0,0,1,0,0Z"/><path class="cls-1" d="M11.72,7.28a0,0,0,0,1,0,0,0,0,0,0,1,0,0,0,0,0,0,1,0,0A0,0,0,0,1,11.72,7.28Z"/><path class="cls-7" d="M11.66,7.16a0,0,0,0,1,0,0,0,0,0,1,1,0,.08,0,0,0,0,1,0,0Z"/><path class="cls-1" d="M11.66,7.16a0,0,0,0,1,0,0,0,0,0,1,1,0,.08A0,0,0,0,1,11.66,7.16Z"/><path class="cls-7" d="M11.57,7.07a0,0,0,0,1,0,0s.05,0,.05,0a0,0,0,0,1-.05,0,0,0,0,0,1,0,0Z"/><path class="cls-1" d="M11.57,7.07a0,0,0,0,1,0,0s.05,0,.05,0a0,0,0,0,1-.05,0A0,0,0,0,1,11.57,7.07Z"/><path class="cls-7" d="M11.47,7a0,0,0,0,1,0,0,0,0,0,1,1,0,.08,0,0,0,0,1,0,0Z"/><path class="cls-1" d="M11.47,7a0,0,0,0,1,0,0,0,0,0,1,1,0,.08A0,0,0,0,1,11.47,7Z"/><path class="cls-7" d="M11.35,6.92a0,0,0,1,1,.08,0,0,0,0,1,1-.08,0Z"/><path class="cls-1" d="M11.35,6.92a0,0,0,1,1,.08,0,0,0,0,1,1-.08,0Z"/><path class="cls-7" d="M11.22,6.88a0,0,0,0,1,0,0,0,0,0,1,1,0,.08,0,0,0,0,1,0,0Z"/><path class="cls-1" d="M11.22,6.88a0,0,0,0,1,0,0,0,0,0,1,1,0,.08A0,0,0,0,1,11.22,6.88Z"/><path class="cls-7" d="M11.08,6.85a0,0,0,0,1,.05,0,0,0,0,0,1,0,0,0,0,0,0,1,0,0s-.05,0-.05,0Z"/><path class="cls-1" d="M11.08,6.85a0,0,0,0,1,.05,0,0,0,0,0,1,0,0,0,0,0,0,1,0,0S11.08,6.88,11.08,6.85Z"/><path class="cls-7" d="M11,6.85a0,0,0,0,1,0,0s0,0,0,0,0,0,0,0a0,0,0,0,1,0,0Z"/><path class="cls-1" d="M11,6.85a0,0,0,0,1,0,0s0,0,0,0,0,0,0,0A0,0,0,0,1,11,6.85Z"/><path class="cls-7" d="M10.82,6.85a0,0,0,0,1,.08,0,0,0,0,0,1-.08,0,0,0,0,0,1,0,0Z"/><path class="cls-1" d="M10.82,6.85a0,0,0,0,1,.08,0,0,0,0,0,1-.08,0A0,0,0,0,1,10.82,6.85Z"/><path class="cls-7" d="M10.69,6.85a0,0,0,0,1,0,0,0,0,0,0,1,0,.08,0,0,0,0,1,0,0Z"/><path class="cls-1" d="M10.69,6.85a0,0,0,0,1,0,0,0,0,0,0,1,0,.08A0,0,0,0,1,10.69,6.85Z"/><path class="cls-7" d="M10.75,7a0,0,0,0,1,0,0,0,0,0,0,1,.05,0s0,0-.05,0a0,0,0,0,1,0,0Z"/><path class="cls-1" d="M10.75,7a0,0,0,0,1,0,0,0,0,0,0,1,.05,0s0,0-.05,0a0,0,0,0,1,0,0Z"/><path class="cls-7" d="M10.78,7.09a0,0,0,0,1,0,0,0,0,0,0,1,0,.08,0,0,0,0,1,0,0Z"/><path class="cls-1" d="M10.78,7.09a0,0,0,0,1,0,0,0,0,0,0,1,0,.08,0,0,0,0,1,0,0Z"/><path class="cls-7" d="M10.78,7.21a0,0,0,0,1,.05,0,0,0,0,0,1,0,.08,0,0,0,0,1-.05,0Z"/><path class="cls-1" d="M10.78,7.21a0,0,0,0,1,.05,0,0,0,0,0,1,0,.08,0,0,0,0,1-.05,0Z"/><path class="cls-7" d="M10.74,7.32a0,0,0,0,1,0,0,0,0,0,0,1,0,0,0,0,0,0,1,0,0s0,0,0,0Z"/><path class="cls-1" d="M10.74,7.32a0,0,0,0,1,0,0,0,0,0,0,1,0,0,0,0,0,0,1,0,0s0,0,0,0Z"/><path class="cls-7" d="M10.67,7.43a0,0,0,0,1,0,0,0,0,0,1,1,0,.08,0,0,0,0,1,0,0Z"/><path class="cls-1" d="M10.67,7.43a0,0,0,0,1,0,0,0,0,0,1,1,0,.08,0,0,0,0,1,0,0Z"/><path class="cls-7" d="M10.59,6.77a0,0,0,0,1,.08,0,0,0,0,0,1-.08,0,0,0,0,0,1,0,0Z"/><path class="cls-1" d="M10.59,6.77a0,0,0,0,1,.08,0,0,0,0,0,1-.08,0A0,0,0,0,1,10.59,6.77Z"/><path class="cls-7" d="M10.47,6.71a0,0,0,0,1,0,0,0,0,0,1,1,0,.08,0,0,0,0,1,0,0Z"/><path class="cls-1" d="M10.47,6.71a0,0,0,0,1,0,0,0,0,0,1,1,0,.08A0,0,0,0,1,10.47,6.71Z"/><path class="cls-7" d="M10.34,6.67a0,0,0,0,1,0,0,0,0,0,1,1,0,.08,0,0,0,0,1,0,0Z"/><path class="cls-1" d="M10.34,6.67a0,0,0,0,1,0,0,0,0,0,1,1,0,.08A0,0,0,0,1,10.34,6.67Z"/><path class="cls-7" d="M10.21,6.65a0,0,0,1,1,.08,0,0,0,0,0,1-.08,0Z"/><path class="cls-1" d="M10.21,6.65a0,0,0,1,1,.08,0,0,0,0,0,1-.08,0Z"/><path class="cls-7" d="M10.08,6.65a0,0,0,0,1,.08,0,0,0,0,0,1-.08,0,0,0,0,0,1,0,0Z"/><path class="cls-1" d="M10.08,6.65a0,0,0,0,1,.08,0,0,0,0,0,1-.08,0A0,0,0,0,1,10.08,6.65Z"/><path class="cls-7" d="M9.94,6.67a0,0,0,0,1,0,0,0,0,0,1,1,0,.08,0,0,0,0,1,0,0Z"/><path class="cls-1" d="M9.94,6.67a0,0,0,0,1,0,0,0,0,0,1,1,0,.08A0,0,0,0,1,9.94,6.67Z"/><path class="cls-7" d="M9.81,6.71s0,0,0,0,0,0,0,0a0,0,0,0,1,0,0s0,0,0,0Z"/><path class="cls-1" d="M9.81,6.71s0,0,0,0,0,0,0,0a0,0,0,0,1,0,0S9.81,6.74,9.81,6.71Z"/><path class="cls-7" d="M7.68,7.75a0,0,0,0,1,.05,0,0,0,0,0,1,0,0,0,0,0,0,1,0,0s-.05,0-.05,0Z"/><path class="cls-1" d="M7.68,7.75a0,0,0,0,1,.05,0,0,0,0,0,1,0,0,0,0,0,0,1,0,0S7.68,7.78,7.68,7.75Z"/><path class="cls-7" d="M7.62,7.65a0,0,0,0,1,0,0,0,0,0,0,1,0,.08,0,0,0,0,1,0,0Z"/><path class="cls-1" d="M7.62,7.65a0,0,0,0,1,0,0,0,0,0,0,1,0,.08A0,0,0,0,1,7.62,7.65Z"/><path class="cls-7" d="M7.58,7.53s0,0,0,0a0,0,0,0,1,0,.08s0,0,0,0Z"/><path class="cls-1" d="M7.58,7.53s0,0,0,0a0,0,0,0,1,0,.08S7.58,7.55,7.58,7.53Z"/><path class="cls-7" d="M7.58,7.4a0,0,0,0,1,0,0,0,0,0,1,1,0,.08,0,0,0,0,1,0,0Z"/><path class="cls-1" d="M7.58,7.4a0,0,0,0,1,0,0,0,0,0,1,1,0,.08A0,0,0,0,1,7.58,7.4Z"/><path class="cls-7" d="M7.61,7.28a0,0,0,0,1,0,0,0,0,0,0,1,0,0,0,0,0,0,1,0,0,0,0,0,0,1,0,0Z"/><path class="cls-1" d="M7.61,7.28a0,0,0,0,1,0,0,0,0,0,0,1,0,0,0,0,0,0,1,0,0A0,0,0,0,1,7.61,7.28Z"/><path class="cls-7" d="M7.68,7.16a0,0,0,0,1,.08,0,0,0,0,0,1-.08,0,0,0,0,0,1,0,0Z"/><path class="cls-1" d="M7.68,7.16a0,0,0,0,1,.08,0,0,0,0,0,1-.08,0A0,0,0,0,1,7.68,7.16Z"/><path class="cls-7" d="M7.76,7.07s0,0,0,0a0,0,0,0,1,0,0,0,0,0,0,1,0,0s0,0,0,0Z"/><path class="cls-1" d="M7.76,7.07s0,0,0,0a0,0,0,0,1,0,0,0,0,0,0,1,0,0S7.76,7.09,7.76,7.07Z"/><path class="cls-7" d="M7.87,7a0,0,0,0,1,0,0S8,7,8,7s0,0,0,0a0,0,0,0,1,0,0Z"/><path class="cls-1" d="M7.87,7a0,0,0,0,1,0,0S8,7,8,7s0,0,0,0A0,0,0,0,1,7.87,7Z"/><path class="cls-7" d="M8,6.92a0,0,0,0,1,.08,0,0,0,0,0,1-.08,0Z"/><path class="cls-1" d="M8,6.92a0,0,0,0,1,.08,0,0,0,0,0,1-.08,0Z"/><path class="cls-7" d="M8.11,6.88a0,0,0,0,1,.05,0,0,0,0,0,1,0,.08,0,0,0,0,1-.05,0Z"/><path class="cls-1" d="M8.11,6.88a0,0,0,0,1,.05,0,0,0,0,0,1,0,.08A0,0,0,0,1,8.11,6.88Z"/><path class="cls-7" d="M8.26,6.85s0,0,0,0a0,0,0,0,1,.05,0s0,0-.05,0,0,0,0,0Z"/><path class="cls-1" d="M8.26,6.85s0,0,0,0a0,0,0,0,1,.05,0s0,0-.05,0S8.26,6.88,8.26,6.85Z"/><path class="cls-7" d="M8.39,6.85a0,0,0,0,1,0,0s0,0,0,0a0,0,0,0,1,0,0,0,0,0,0,1,0,0Z"/><path class="cls-1" d="M8.39,6.85a0,0,0,0,1,0,0s0,0,0,0a0,0,0,0,1,0,0A0,0,0,0,1,8.39,6.85Z"/><path class="cls-7" d="M8.52,6.85a0,0,0,0,1,0,0,0,0,0,1,1,0,.08,0,0,0,0,1,0,0Z"/><path class="cls-1" d="M8.52,6.85a0,0,0,0,1,0,0,0,0,0,1,1,0,.08A0,0,0,0,1,8.52,6.85Z"/><path class="cls-7" d="M8.65,6.85a0,0,0,0,1,0,0s.05,0,.05,0,0,0-.05,0a0,0,0,0,1,0,0Z"/><path class="cls-1" d="M8.65,6.85a0,0,0,0,1,0,0s.05,0,.05,0,0,0-.05,0A0,0,0,0,1,8.65,6.85Z"/><path class="cls-7" d="M8.59,7a0,0,0,0,1,0,0,0,0,0,0,1,0,0,0,0,0,0,1,0,0s0,0,0,0Z"/><path class="cls-1" d="M8.59,7a0,0,0,0,1,0,0,0,0,0,0,1,0,0,0,0,0,0,1,0,0s0,0,0,0Z"/><path class="cls-7" d="M8.56,7.09a0,0,0,0,1,.08,0,0,0,0,0,1-.08,0,0,0,0,0,1,0,0Z"/><path class="cls-1" d="M8.56,7.09a0,0,0,0,1,.08,0,0,0,0,0,1-.08,0,0,0,0,0,1,0,0Z"/><path class="cls-7" d="M8.55,7.21a0,0,0,0,1,0,0,0,0,0,0,1,0,.08,0,0,0,0,1,0,0Z"/><path class="cls-1" d="M8.55,7.21a0,0,0,0,1,0,0,0,0,0,0,1,0,.08,0,0,0,0,1,0,0Z"/><path class="cls-7" d="M8.59,7.32a0,0,0,0,1,0,0,0,0,0,0,1,0,0s0,0,0,0a0,0,0,0,1,0,0Z"/><path class="cls-1" d="M8.59,7.32a0,0,0,0,1,0,0,0,0,0,0,1,0,0s0,0,0,0a0,0,0,0,1,0,0Z"/><path class="cls-7" d="M8.66,7.43s0,0,.05,0a0,0,0,0,1,0,.08s-.05,0-.05,0Z"/><path class="cls-1" d="M8.66,7.43s0,0,.05,0a0,0,0,0,1,0,.08s-.05,0-.05,0Z"/><path class="cls-7" d="M8.75,6.77a0,0,0,0,1,0,0,0,0,0,1,1,0,.08,0,0,0,0,1,0,0Z"/><path class="cls-1" d="M8.75,6.77a0,0,0,0,1,0,0,0,0,0,1,1,0,.08A0,0,0,0,1,8.75,6.77Z"/><path class="cls-7" d="M8.87,6.71a0,0,0,0,1,.08,0,0,0,0,0,1-.08,0,0,0,0,0,1,0,0Z"/><path class="cls-1" d="M8.87,6.71a0,0,0,0,1,.08,0,0,0,0,0,1-.08,0A0,0,0,0,1,8.87,6.71Z"/><path class="cls-7" d="M9,6.67a0,0,0,0,1,0,0,0,0,0,1,1,0,.08,0,0,0,0,1,0,0Z"/><path class="cls-1" d="M9,6.67a0,0,0,0,1,0,0,0,0,0,1,1,0,.08A0,0,0,0,1,9,6.67Z"/><path class="cls-7" d="M9.13,6.65a0,0,0,0,1,0-.05s0,0,0,.05a0,0,0,0,1,0,0,0,0,0,0,1,0,0Z"/><path class="cls-1" d="M9.13,6.65a0,0,0,0,1,0-.05s0,0,0,.05a0,0,0,0,1,0,0A0,0,0,0,1,9.13,6.65Z"/><path class="cls-7" d="M9.26,6.65a0,0,0,1,1,.08,0,0,0,0,0,1-.08,0,0,0,0,0,1,0,0Z"/><path class="cls-1" d="M9.26,6.65a0,0,0,1,1,.08,0,0,0,0,0,1-.08,0A0,0,0,0,1,9.26,6.65Z"/><path class="cls-7" d="M9.39,6.67s0,0,0,0a0,0,0,1,1,0,.08s0,0,0,0Z"/><path class="cls-1" d="M9.39,6.67s0,0,0,0a0,0,0,1,1,0,.08S9.39,6.69,9.39,6.67Z"/><path class="cls-7" d="M9.52,6.71s0,0,0,0,0,0,0,0,0,0,0,0a0,0,0,0,1,0,0Z"/><path class="cls-1" d="M9.52,6.71s0,0,0,0,0,0,0,0,0,0,0,0A0,0,0,0,1,9.52,6.71Z"/><path class="cls-6" d="M8.46,9.31h0v0H8.36v.14h.06v.1H8.29v.28h.07v.56H8.22v.29H9.3v-.29H9.16V9.79h.07V9.51H9.1v-.1h.06V9.27H9.1v0h0v0H9v0H9v0H8.9v.14H9v.1H8.83V9.2H8.9V9.06H8.83v0h0v0H8.73v0h0v0H8.62V9.2H8.7v.31H8.56v-.1h.06V9.27H8.56v0h0v0H8.46Zm-.24,1.33h0Zm0-.07h0Zm0-.07h0Zm0-.07h0Zm0-.08h0Zm.14-.06h0Zm0-.07h0Zm0-.08h0Zm0-.07h0Zm0-.07h0Zm0-.07h0Zm0-.07h0Zm-.07-.07h0Zm0-.07h0Zm0-.07h0Zm0-.07h0Zm.13-.07h0Zm.28-.07h0Zm0-.07h0Zm0-.07h0Zm0-.08h0Zm-.08-.08h0Zm-.2.3h0Zm-.06-.09h0Zm0,1.29v0Zm0-.14v0Zm-.07,0v0Zm.13.07v0Zm.07.07v0Zm0-.14v0Zm0-.15v0Zm0-.13v0Zm-.07.21v0Zm-.13,0v0Zm.27-.08v0Zm.06,0v0Zm-.2-.13v0Zm.14,0v0Zm.14,0v0Zm-.08,0v0Zm.08-.15v0Zm0-.14v0Zm-.08-.07v0Zm.08-.07v0Zm-.14,0v0Zm-.14,0v0Zm-.06-.07v0Zm.13,0v0Zm.13,0v0Zm.08-.07v0Zm-.14,0v0Zm-.14,0v0Zm-.06-.07v0Zm.26,0v0Zm-.13-.14v0Zm.61,0h0Zm.06-.09h0Zm0,1.29v0Zm0-.14v0Zm.07,0v0Zm-.13.07v0ZM9,10.64v0Zm0-.14v0Zm0-.15v0Zm0-.13v0Zm.07.21v0Zm.13,0v0ZM9,10.35v0Zm-.06,0v0Zm.2-.13v0Zm-.14,0v0Zm-.13,0v0Zm.07,0v0Zm-.07-.15v0Zm0-.14v0Zm.07-.07v0Zm-.07-.07v0Zm.13,0v0Zm.14,0v0Zm.06-.07v0ZM9,9.72v0Zm-.13,0v0Zm-.07-.07v0Zm.13,0v0Zm.14,0v0Zm.06-.07v0Zm-.26,0v0ZM9,9.44v0Zm-.27.78v0Zm0-.29v0Zm0,.14v0Zm0-.28v0Zm0-.14v0Zm0-.21v0Zm0-.14v0Zm-.34.11h0ZM8.7,9.2h0ZM9,9.41H9Z"/><path d="M8.22,10.65v-.3h.15V9.8H8.29V9.51h.14V9.41H8.36V9.27h.08v.05h0v0H8.36v.06h.25V9.27l-.08,0,0,0h.06v.15H8.56V9.5H8.7V9.2H8.62V9.06h.09l0,0-.07,0v.06h.26V9.06H8.81l0,0H8.9V9.2H8.83V9.5H9V9.41h0V9.27H9v.05H9v0h0v.08l.26,0V9.27l-.07,0,0,0h.06v.15H9.1v.09h.12v.29H9.16v.54H9.3v.3Zm.95,0H9.3v-.08H8.49v.06H9v-.07l0,.07h.11v-.07l0,.07Zm.07-.08H9.3v-.07H8.41l0,.05h.66V10.5l0,.06h.13l0-.06h0v.06Zm-.07-.07H9.3v-.07H8.49v.05H9v-.06l0,.06h.11v-.06l0,.06Zm-.06-.07h.11v-.06H8.57v.06H9l0-.07H9v.07h.12v-.07l0,.07ZM9,10.34h.12v-.06H8.62v.05h.26v-.05l0,.05H9v-.05l0,.05Zm.07-.06h.05v-.07H8.71v.06h.12v-.06h0v.06H9v-.06H9v.06h.14l0-.06h0v.06ZM9,10.21h.12v-.08H8.75l0,.07h.12v-.07l0,.07H9v-.07l0,.07Zm-.2-.08h.32v-.07H8.71v.06h.12v-.06h0v.06Zm-.47,0H8.7v-.06H8.37v.05Zm.4-.07h.39V10h-.4l0,.06Zm-.4,0h.38V10H8.37v.05ZM8.84,10h.31V9.92H8.71V10h.12V9.93h0V10Zm-.47,0H8.7V9.93H8.36V10Zm.54-.07h.24V9.85h-.4l0,.06h.14l0-.06h0v.06Zm-.55,0h.27V9.86H8.36v.05Zm.75-.07h0V9.79H8.71v.06h.12V9.79h0v.06H9V9.79H9v.06h.14l0-.06h0v.06Zm.06-.07h.06V9.71H8.75l0,.06h.14l0-.06h0v.06H9l0-.06H9v.06h.13l0-.06h0v.06Zm-.06-.07h.12V9.64H8.71v.06h.12V9.65h0v.06H9V9.65H9v.06h.14l0-.06h0v.06Zm.06-.07h.06V9.57H8.75l0,.06h.14l0-.06h0v.06h.26l0-.06h0v.06Zm-.8,0h.26V9.58H8.37v.06Zm-.08-.07h.94V9.51H9.1v0H8.29v.05ZM9,9.42v0h.13v0h.07v0H8.9v.05H9.1L9,9.42Zm-.54,0h.14v0h.07V9.34l-.25,0v.05h.19l-.14,0Zm.28-.21h.12v0H8.9V9.13l-.26,0v0h.2l-.13,0Z"/><path class="cls-6" d="M8.94,10.64v-.18s0-.14-.18-.14-.18.1-.18.14v.18Z"/><path d="M9,10.65H8.58v-.19s0-.15.19-.15.19.12.19.15v.19Zm-.19-.32c-.16,0-.17.11-.17.13v.18h.34v-.18s0-.13-.17-.13Z"/><path class="cls-6" d="M8.64,10.47H8.55a.18.18,0,0,1,0-.11l.08.07s0,0,0,.05Z"/><path d="M8.65,10.48h-.1c0-.05,0-.11,0-.12l.09.06s0,0,0,.06Z"/><path class="cls-6" d="M8.88,10.47H9a.14.14,0,0,0,0-.11l-.07.07a.12.12,0,0,1,0,.05Z"/><path d="M8.87,10.48h0a.08.08,0,0,0,0-.05l.08-.07s.05.07.05.11l-.11,0Z"/><path class="cls-6" d="M8.79,10.38l.05-.08-.08,0-.07,0,0,.08Z"/><path d="M8.8,10.39H8.73l-.05-.09a.14.14,0,0,1,.16,0l0,.1Z"/><path class="cls-6" d="M8.63,10.16V10a.1.1,0,0,0-.2,0v.19Z"/><path d="M8.64,10.17H8.43V10c0-.13.22-.13.22,0v.2Zm-.11-.29a.08.08,0,0,0-.09.09v.19h.18V10a.08.08,0,0,0-.09-.09Z"/><path class="cls-6" d="M8.9,10.16V10a.09.09,0,0,1,.1-.1c.06,0,.09,0,.09.1v.19Z"/><path d="M9.1,10.17H8.9V10a.11.11,0,0,1,.21,0v.2ZM9,9.88a.08.08,0,0,0-.09.09v.19h.18V10A.08.08,0,0,0,9,9.88Z"/><polygon class="cls-6" points="9.09 9.69 9.11 9.51 8.94 9.51 8.95 9.69 9.09 9.69"/><path d="M9.1,9.7H9l0-.19h.18v.2Zm0-.19H8.94l0,.17h.13V9.51Z"/><polygon class="cls-6" points="8.69 9.69 8.68 9.51 8.85 9.51 8.83 9.69 8.69 9.69"/><path d="M8.84,9.7H8.69l0-.19h.18v.2Zm0-.19H8.68l0,.16h.12l0-.17Z"/><polygon class="cls-6" points="8.57 9.69 8.58 9.51 8.41 9.51 8.43 9.69 8.57 9.69"/><path d="M8.58,9.69H8.43l0-.18h.18v.19Zm0-.18H8.41l0,.16h.13V9.51Z"/><path class="cls-15" d="M8.88,10.64v-.16a.12.12,0,0,0-.24,0v.16Z"/><path class="cls-15" d="M8.61,10.14V10c0-.05,0-.09-.08-.09a.08.08,0,0,0-.08.09v.16Z"/><path class="cls-15" d="M8.92,10.14V10a.08.08,0,1,1,.16,0v.16Z"/><path class="cls-5" d="M9.09,11a.68.68,0,0,1,.64-.71.72.72,0,0,1,0,1.43A.68.68,0,0,1,9.09,11Z"/><path d="M9.73,11.68A.69.69,0,0,1,9.08,11a.65.65,0,1,1,1.29,0,.69.69,0,0,1-.64.73Zm0-1.43a.71.71,0,0,0,0,1.41.71.71,0,0,0,0-1.41Z"/><g class="cls-16"><path class="cls-9" d="M9.28,11a.45.45,0,1,1,.89,0,.45.45,0,1,1-.89,0Z"/></g><path d="M9.73,11.49a.54.54,0,0,1,0-1.07.54.54,0,0,1,0,1.07Zm0-1.05a.52.52,0,0,0,0,1,.52.52,0,0,0,0-1Z"/><path class="cls-6" d="M9.52,10.59a.21.21,0,0,0-.06.11.18.18,0,0,0,0,.1.06.06,0,0,0-.06,0,.06.06,0,0,0-.06.05v0l0,0,0,0a0,0,0,0,1,0,0H9.43v0h0l0,.06,0,0,0,0,0,0,0,0,0-.06h0v0h0a0,0,0,0,1,0,0l0,0,0,0a0,0,0,0,0,0,0s0-.05-.06-.05a.05.05,0,0,0,0,0,.24.24,0,0,0,0-.1.22.22,0,0,0-.05-.11Z"/><path d="M9.52,11.05h0l0,0,0,0,0-.08,0,0v-.05h0l0,0,0,.07,0,0,0,0,0,0h.05l0,0h0l0,0c0-.07.06-.07.08,0v0c0-.09-.07-.09-.09,0s0-.05,0-.1-.05-.09-.06-.1,0,.06,0,.1a.14.14,0,0,0,0,.09c-.05,0-.11,0-.11,0l0,.07s.08,0,.08,0h0s0,0,0,0l0,0h0l0,0c0-.1.06-.11.09-.09s0,0,0-.07a.22.22,0,0,1,0-.11.16.16,0,0,1,.07.11.56.56,0,0,1,0,.07s.1,0,.1.05l0,.07h0s0,0,0,0h0s0,0,0,.05h0l0,0h0l0,0Z"/><rect class="cls-6" x="9.43" y="10.92" width="0.17" height="0.04"/><polygon points="9.61 10.97 9.43 10.97 9.43 10.92 9.61 10.91 9.61 10.97 9.61 10.97"/><path class="cls-6" d="M9.93,10.59a.22.22,0,0,0,0,.11.24.24,0,0,0,0,.1.06.06,0,0,0-.06,0,0,0,0,0,0-.05.05,0,0,0,0,0,0,0v0l0,0a0,0,0,0,1,0,0h0v0h0l0,.06,0,0,0,0,0,0,0,0L10,11h0v0h0a0,0,0,0,1,0,0l0,0v0a0,0,0,0,0,0,0,0,0,0,0,0-.05-.05.06.06,0,0,0-.06,0,.24.24,0,0,0,0-.1.22.22,0,0,0-.05-.11Z"/><path d="M9.93,11.05h0l0,0,0,0,0-.08,0,0s0-.05,0-.05h0l0,0,0,.07,0,0,0,0,0,0h0l0,0h0l0,0c0-.07.07-.07.08,0v0c0-.09-.07-.09-.09,0s0-.05,0-.1-.05-.09-.05-.1,0,.06,0,.1a.3.3,0,0,0,0,.09c-.05,0-.11,0-.11,0l0,.07s.08,0,.08,0h0s0,0,0,0l0,0h0l0,0c0-.1.06-.11.1-.09a.12.12,0,0,1,0-.07.16.16,0,0,1,.06-.11.16.16,0,0,1,.06.11s0,.06,0,.07.1,0,.1.05l0,.07h0s0,0,0,0h0V11h0l0,0h0l0,0Z"/><rect class="cls-6" x="9.85" y="10.92" width="0.17" height="0.04"/><polygon points="10.02 10.97 9.84 10.97 9.84 10.92 10.02 10.91 10.02 10.97 10.02 10.97"/><path class="cls-6" d="M9.72,11a.22.22,0,0,0-.05.11.18.18,0,0,0,0,.1.07.07,0,0,0-.06,0,.06.06,0,0,0-.06.06s0,0,0,0l0,0s0,0,0,0,0,0,0,0h0v.05h0l0,.06,0,0,0,0,0,0,0,0,0-.06h0v-.05H9.76s0,0,0,0,0,0,0,0l0,0s0,0,0,0a.06.06,0,0,0-.06-.06.08.08,0,0,0-.06,0,.18.18,0,0,0,0-.1A.21.21,0,0,0,9.72,11Z"/><path d="M9.72,11.4h0l0,0h0l0-.07h0v-.05h0v0h0l0,.07,0,0,0,0,0,0H9.8l0,0h.05v0h0c0-.07.07-.07.09,0v0c0-.09-.06-.08-.09,0s0-.06,0-.1,0-.1,0-.11a.32.32,0,0,0,0,.11.17.17,0,0,0,0,.09s-.11,0-.11,0l0,.06s.08,0,.08,0h0s0,0,0,0l-.05,0h0v0c0-.09.05-.11.09-.08a.15.15,0,0,1,0-.07A.16.16,0,0,1,9.72,11a.16.16,0,0,1,.06.11v.07s.1,0,.1,0l0,.07,0,0a0,0,0,0,0,0,0h0v.05h0l0,.06H9.75l0,0Z"/><rect class="cls-6" x="9.64" y="11.27" width="0.17" height="0.04"/><polygon points="9.81 11.32 9.64 11.32 9.63 11.27 9.81 11.27 9.81 11.32 9.81 11.32"/><path class="cls-6" d="M11,9.08h-.08s0,0,0,0h0a0,0,0,0,1,0,0h0s0,0,0,0h0a.2.2,0,0,1,0,0l0,.05a.31.31,0,0,1,.12.07s.08.06.09.09l.05,0h.06s-.06,0-.06,0h0a0,0,0,0,1,0,0h0v0H11s0,0,0,0h0s0,0,0,0h0Z"/><path d="M11,9.26h0a.37.37,0,0,0-.09-.09.27.27,0,0,0-.12-.06.35.35,0,0,0,0-.06V9h0l0,0h0l0,0v0a.1.1,0,0,1,0,0l.11.06a.25.25,0,0,1,.09.09l0,0h0v0l0,0h0l-.05,0Zm0-.08v0H11l0,0,0,0,0,0,0,0h0l0,0h0v0l0,0h.05v0Z"/><polygon points="10.9 9.1 10.91 9.1 10.91 9.11 10.9 9.11 10.9 9.1 10.9 9.1"/><polygon class="cls-1" points="10.9 9.1 10.91 9.1 10.91 9.11 10.9 9.11 10.9 9.1"/><polygon points="10.94 9.14 10.93 9.12 10.92 9.12 10.93 9.12 10.94 9.13 10.96 9.14 10.96 9.15 10.95 9.14 10.94 9.14 10.94 9.14"/><polygon class="cls-1" points="10.94 9.14 10.93 9.12 10.92 9.12 10.93 9.12 10.94 9.13 10.96 9.14 10.96 9.15 10.95 9.14 10.94 9.14 10.94 9.14"/><polygon points="10.87 9.09 10.86 9.08 10.86 9.07 10.86 9.07 10.88 9.08 10.88 9.09 10.89 9.09 10.88 9.1 10.87 9.09 10.87 9.09"/><polygon class="cls-1" points="10.87 9.09 10.86 9.08 10.86 9.07 10.86 9.07 10.88 9.08 10.88 9.09 10.89 9.09 10.88 9.1 10.87 9.09 10.87 9.09"/><path d="M10.83,9.06h0Z"/><path class="cls-1" d="M10.83,9.06h0Z"/><polygon points="10.98 9.16 10.98 9.15 10.97 9.15 10.97 9.16 10.98 9.16 10.98 9.16"/><polygon class="cls-1" points="10.98 9.16 10.98 9.15 10.97 9.15 10.97 9.16 10.98 9.16"/><polygon points="11 9.19 11.01 9.2 11.02 9.2 11.02 9.19 11.01 9.18 11 9.17 10.99 9.17 10.99 9.18 11 9.19 11 9.19"/><polygon class="cls-1" points="11 9.19 11.01 9.2 11.02 9.2 11.02 9.19 11.01 9.18 11 9.17 10.99 9.17 10.99 9.18 11 9.19 11 9.19"/><polygon points="11.04 9.22 11.04 9.21 11.03 9.21 11.03 9.22 11.04 9.22 11.04 9.22"/><polygon class="cls-1" points="11.04 9.22 11.04 9.21 11.03 9.21 11.03 9.22 11.04 9.22"/><polygon class="cls-6" points="10.93 8.98 10.91 8.98 10.91 9.02 10.91 9.03 10.91 9.03 10.94 9 10.93 8.98"/><polygon class="cls-1" points="10.93 8.98 10.91 8.98 10.91 9.02 10.91 9.03 10.91 9.03 10.94 9 10.93 8.98 10.93 8.98"/><polygon class="cls-6" points="10.87 9 10.87 9.03 10.91 9.03 10.91 9.03 10.91 9.02 10.89 8.99 10.87 9"/><polygon class="cls-1" points="10.87 9 10.87 9.03 10.91 9.03 10.91 9.03 10.91 9.02 10.89 8.99 10.87 9 10.87 9"/><polygon class="cls-6" points="10.94 9.04 10.92 9.06 10.9 9.03 10.9 9.02 10.91 9.02 10.94 9.03 10.94 9.04"/><polygon class="cls-1" points="10.94 9.04 10.92 9.06 10.9 9.03 10.9 9.02 10.91 9.02 10.94 9.03 10.94 9.04 10.94 9.04"/><path class="cls-6" d="M10.9,9h0s0,0,0,0h0s0,0,0,0Z"/><path class="cls-1" d="M10.9,9h0s0,0,0,0h0S10.89,9,10.9,9Z"/><path class="cls-6" d="M10.81,9V9a0,0,0,0,0,0,0h0a0,0,0,0,1,0,0Z"/><path class="cls-1" d="M10.81,9V9a0,0,0,0,0,0,0h0a0,0,0,0,1,0,0Z"/><polygon class="cls-6" points="10.85 9 10.84 9.01 10.81 8.99 10.81 8.98 10.81 8.98 10.85 8.98 10.85 9"/><polygon class="cls-1" points="10.85 9 10.84 9.01 10.81 8.99 10.81 8.98 10.81 8.98 10.85 8.98 10.85 9 10.85 9"/><path class="cls-6" d="M10.81,9h0V9h0s0,0,0,0Z"/><path class="cls-1" d="M10.81,9h0V9h0S10.8,9,10.81,9Z"/><polygon class="cls-6" points="11.02 9.04 11 9.04 10.99 9.07 10.99 9.07 11 9.07 11.03 9.06 11.02 9.04"/><polygon class="cls-1" points="11.02 9.04 11 9.04 10.99 9.07 10.99 9.07 11 9.07 11.03 9.06 11.02 9.04 11.02 9.04"/><polygon class="cls-6" points="10.95 9.05 10.95 9.07 10.99 9.08 10.99 9.08 10.99 9.07 10.98 9.04 10.95 9.05"/><polygon class="cls-1" points="10.95 9.05 10.95 9.07 10.99 9.08 10.99 9.08 10.99 9.07 10.98 9.04 10.95 9.05 10.95 9.05"/><polygon class="cls-6" points="11.02 9.1 11 9.11 10.99 9.08 10.99 9.07 10.99 9.07 11.03 9.08 11.02 9.1"/><polygon class="cls-1" points="11.02 9.1 11 9.11 10.99 9.08 10.99 9.07 10.99 9.07 11.03 9.08 11.02 9.1 11.02 9.1"/><path class="cls-6" d="M11,9.07h0Z"/><path class="cls-1" d="M11,9.07h0Z"/><polygon class="cls-6" points="11.1 9.11 11.1 9.13 11.07 9.15 11.06 9.14 11.06 9.14 11.07 9.11 11.1 9.11"/><polygon class="cls-1" points="11.1 9.11 11.1 9.13 11.07 9.15 11.06 9.14 11.06 9.14 11.07 9.11 11.1 9.11 11.1 9.11"/><polygon class="cls-6" points="11.09 9.17 11.07 9.18 11.05 9.15 11.06 9.14 11.06 9.14 11.1 9.15 11.09 9.17"/><polygon class="cls-1" points="11.09 9.17 11.07 9.18 11.05 9.15 11.06 9.14 11.06 9.14 11.1 9.15 11.09 9.17 11.09 9.17"/><polygon class="cls-6" points="11.03 9.11 11.02 9.13 11.06 9.15 11.06 9.15 11.06 9.14 11.05 9.11 11.03 9.11"/><polygon class="cls-1" points="11.03 9.11 11.02 9.13 11.06 9.15 11.06 9.15 11.06 9.14 11.05 9.11 11.03 9.11 11.03 9.11"/><path class="cls-6" d="M11.07,9.15h0Z"/><path class="cls-1" d="M11.07,9.15h0Z"/><path class="cls-6" d="M11.12,9.22h.05s0,0,0,0,0,0,0,0Z"/><path class="cls-1" d="M11.12,9.22h.05s0,0,0,0,0,0,0,0Z"/><polygon class="cls-6" points="11.1 9.19 11.09 9.21 11.12 9.22 11.12 9.22 11.13 9.22 11.12 9.19 11.1 9.19"/><polygon class="cls-1" points="11.1 9.19 11.09 9.21 11.12 9.22 11.12 9.22 11.13 9.22 11.12 9.19 11.1 9.19 11.1 9.19"/><path class="cls-6" d="M11.13,9.22h0Z"/><path class="cls-1" d="M11.13,9.22h0Z"/><polygon class="cls-1" points="12.67 8.33 12.67 8.36 12.57 8.36 12.57 8.33 12.61 8.33 12.61 8.28 12.59 8.28 12.59 8.26 12.61 8.26 12.61 8.24 12.63 8.24 12.63 8.26 12.66 8.26 12.66 8.28 12.63 8.28 12.63 8.33 12.67 8.33 12.67 8.33"/></g></g></g></g></g></g></svg>