<svg xmlns="http://www.w3.org/2000/svg" xmlns:xlink="http://www.w3.org/1999/xlink" viewBox="0 0 33.56 19.58"><defs><style>.cls-1{fill:none;}.cls-2{clip-path:url(#clip-path);}.cls-3{fill:#ea0020;}.cls-4{fill:#2a680b;}.cls-5{fill:#fcff2c;}.cls-6{fill:#fff;}.cls-7{fill:#1a0095;}</style><clipPath id="clip-path"><rect class="cls-1" width="33.56" height="19.58"/></clipPath></defs><g id="Camada_2" data-name="Camada 2"><g id="_4" data-name="4"><g id="PORTUGAL"><g class="cls-2"><rect class="cls-3" x="11.74" width="21.82" height="19.58"/><rect class="cls-4" width="11.74" height="19.58"/><g class="cls-2"><path class="cls-5" d="M15.56,12.83c-1.47-.05-8.25-4.28-8.29-4.95l.37-.63c.67,1,7.6,5.09,8.28,4.95l-.36.63Z"/><path class="cls-5" d="M7.56,7.17c-.13.35,1.77,1.53,4.06,2.92A15.71,15.71,0,0,0,16,12.22l.07-.12s-.1.05-.2,0A23.24,23.24,0,0,1,11.66,10a19.33,19.33,0,0,1-4-2.8.29.29,0,0,1,0-.14h0l-.06.1v0Zm8,5.68s-.07,0-.16,0a18.1,18.1,0,0,1-4.22-2.06c-2.3-1.39-4.21-2.65-4-3l0-.1h0c-.18.56,3.77,2.82,4,3,2.29,1.42,4.21,2.25,4.38,2l-.06.11Z"/><path d="M15.51,12.9h-.07a17.77,17.77,0,0,1-4.22-2.07c-2.62-1.57-3.94-2.52-4-2.89a.16.16,0,0,1,0-.1l.06-.1v0l0,.08a.08.08,0,0,0,0,.08c.09.37,1.4,1.31,4,2.88a17.77,17.77,0,0,0,4.21,2.06c.08,0,.13,0,.15,0l0-.07-.07,0a15.08,15.08,0,0,1-4.28-2.07l-.15-.09Q7.28,8.36,7.26,7.79c.06.25.65.92,3.87,2.81l.16.1a14.79,14.79,0,0,0,4.26,2.06s.09,0,.1,0h0s0,0,0,0l0,.09a.09.09,0,0,1-.1.05Zm.46-.65a18.7,18.7,0,0,1-4.36-2.15C9.15,8.6,7.42,7.52,7.55,7.16L7.61,7h0l0,.11c-.14.37,2.08,1.73,4,2.92A18.48,18.48,0,0,0,16,12.22h0a.43.43,0,0,1,0-.07.34.34,0,0,1-.17,0A23.25,23.25,0,0,1,11.66,10a19.6,19.6,0,0,1-4-2.8.37.37,0,0,1,0-.15.55.55,0,0,1,0,.13,20.35,20.35,0,0,0,4,2.8,24,24,0,0,0,4.22,2.13c.09,0,.16,0,.18,0s0,0,0,.11-.05.05-.08.05Z"/><path class="cls-5" d="M11.75,8.28a13.87,13.87,0,0,0,4.35-.62l-.23-.37a12.29,12.29,0,0,1-4.14.61c-2,0-3.39-.21-4.1-.68l-.21.39a10.61,10.61,0,0,0,4.33.67Z"/><path class="cls-5" d="M16.16,7.67a6.5,6.5,0,0,1-1.73.47,17.1,17.1,0,0,1-2.69.19,17.67,17.67,0,0,1-2.58-.16,7.78,7.78,0,0,1-1.8-.48.47.47,0,0,1,0-.1,8,8,0,0,0,1.77.47,18.52,18.52,0,0,0,2.56.17A19.36,19.36,0,0,0,14.41,8a4.18,4.18,0,0,0,1.68-.49l.07.13ZM16,7.3a5.06,5.06,0,0,1-1.65.44,16.87,16.87,0,0,1-2.56.18,16.24,16.24,0,0,1-2.47-.16,6.88,6.88,0,0,1-1.72-.43l.06-.1a5.88,5.88,0,0,0,1.68.43,17.55,17.55,0,0,0,2.45.15,18,18,0,0,0,2.54-.18,4.59,4.59,0,0,0,1.6-.45L16,7.3Z"/><path d="M11.71,8.35a18.82,18.82,0,0,1-2.55-.17,7.28,7.28,0,0,1-1.79-.47V7.65l0-.06a9.77,9.77,0,0,0,1.79.46,18.82,18.82,0,0,0,2.54.16A17.22,17.22,0,0,0,14.41,8a4.55,4.55,0,0,0,1.67-.47l.09.12a5.17,5.17,0,0,1-1.74.49,17.61,17.61,0,0,1-2.69.2ZM7.4,7.6l0,.1a9.1,9.1,0,0,0,1.8.46,20.36,20.36,0,0,0,2.54.16h0a17.61,17.61,0,0,0,2.69-.2,6,6,0,0,0,1.72-.46l-.07-.11A3.9,3.9,0,0,1,14.41,8a18.35,18.35,0,0,1-2.67.2,18.86,18.86,0,0,1-2.56-.17A7.37,7.37,0,0,1,7.4,7.6Zm4.34.34a18,18,0,0,1-2.46-.16,6.5,6.5,0,0,1-1.64-.41l-.08,0,0-.09,0,0a5.76,5.76,0,0,0,1.67.42,17.19,17.19,0,0,0,2.44.16,17.8,17.8,0,0,0,2.55-.18,4.53,4.53,0,0,0,1.59-.45l.09.12a4.35,4.35,0,0,1-1.66.47,17.84,17.84,0,0,1-2.56.18Zm-4.13-.7,0,.1h.07a7.18,7.18,0,0,0,1.64.4,17.77,17.77,0,0,0,2.45.16h0a17.84,17.84,0,0,0,2.56-.18A5.25,5.25,0,0,0,16,7.29l-.07-.11a3.73,3.73,0,0,1-1.59.46,16.42,16.42,0,0,1-2.54.18,17.81,17.81,0,0,1-2.46-.15,5.45,5.45,0,0,1-1.68-.43Z"/><path class="cls-5" d="M6.89,10.07a12.81,12.81,0,0,0,4.84.75,13.87,13.87,0,0,0,4.86-.72l0-.49c-.26.42-2.69.81-4.85.8a11.92,11.92,0,0,1-4.82-.78v.44Z"/><path class="cls-5" d="M16.63,10v.11a5.19,5.19,0,0,1-1.92.55,19.72,19.72,0,0,1-3,.2,19,19,0,0,1-2.84-.19,7.06,7.06,0,0,1-2-.55V10a7.31,7.31,0,0,0,2.05.58,18.84,18.84,0,0,0,2.83.2,19.25,19.25,0,0,0,3-.21A6,6,0,0,0,16.63,10Zm0-.42V9.7a5.26,5.26,0,0,1-1.92.54,19.53,19.53,0,0,1-3,.21,18.89,18.89,0,0,1-2.84-.2,7.18,7.18,0,0,1-2-.55V9.57a7.28,7.28,0,0,0,2.05.57,17.6,17.6,0,0,0,2.83.2,19.25,19.25,0,0,0,3-.21,6,6,0,0,0,1.94-.55Z"/><path d="M11.71,10.88a19,19,0,0,1-2.85-.2,7,7,0,0,1-2-.55V10a7.82,7.82,0,0,0,2.06.57,20.12,20.12,0,0,0,2.83.19,20.66,20.66,0,0,0,3-.2A6.5,6.5,0,0,0,16.63,10l0,.12a5.09,5.09,0,0,1-1.94.56,19.52,19.52,0,0,1-3,.21ZM6.82,10l0,.13a7.44,7.44,0,0,0,2,.53,18.78,18.78,0,0,0,2.84.2,19.29,19.29,0,0,0,3-.21,5.06,5.06,0,0,0,1.92-.54V10a5.54,5.54,0,0,1-1.93.56,19.25,19.25,0,0,1-3,.21,18.64,18.64,0,0,1-2.83-.2A6.69,6.69,0,0,1,6.82,10Zm4.89.47a17.78,17.78,0,0,1-2.85-.2,7,7,0,0,1-2-.55V9.57a8.18,8.18,0,0,0,2.06.56,18.74,18.74,0,0,0,2.83.2,19.15,19.15,0,0,0,3-.21,6.21,6.21,0,0,0,1.94-.55l0,.13a5.22,5.22,0,0,1-1.94.56,21,21,0,0,1-3,.2ZM6.82,9.58l0,.12a7.24,7.24,0,0,0,2,.54,18.86,18.86,0,0,0,2.84.19,20.7,20.7,0,0,0,3-.2,5.49,5.49,0,0,0,1.92-.54V9.58a5.5,5.5,0,0,1-1.93.57,20.56,20.56,0,0,1-3,.2,18.72,18.72,0,0,1-2.83-.19,7.3,7.3,0,0,1-2.06-.58Z"/><path class="cls-5" d="M11.73,12.74a16.81,16.81,0,0,1-4.27-.66l.28.43a11.63,11.63,0,0,0,4,.66,10.26,10.26,0,0,0,4-.65l.28-.45a15.14,15.14,0,0,1-4.26.67Z"/><path class="cls-5" d="M15.81,12.42l-.12.19a11.77,11.77,0,0,1-1.5.38,13.53,13.53,0,0,1-2.46.22,11.63,11.63,0,0,1-4.08-.69l-.06-.1v0l.1,0a13.16,13.16,0,0,0,4,.67,13.42,13.42,0,0,0,2.41-.23,7.16,7.16,0,0,0,1.63-.44l0,0Zm.25-.41h0l-.1.16a11.28,11.28,0,0,1-1.89.42,16.55,16.55,0,0,1-2.32.2,16.51,16.51,0,0,1-4.32-.65l0-.11a18.07,18.07,0,0,0,4.37.65,18.24,18.24,0,0,0,2.31-.2,12.53,12.53,0,0,0,1.88-.42h0l.12-.05Z"/><path d="M11.73,13.23h0a11.69,11.69,0,0,1-4.09-.7l-.06-.11,0,0h0l.1,0a12.93,12.93,0,0,0,4,.66h0a14.18,14.18,0,0,0,2.41-.22,7.21,7.21,0,0,0,1.62-.44h.05l-.12.18a10.25,10.25,0,0,1-1.51.39,13.11,13.11,0,0,1-2.46.23Zm-4.14-.81.07.09a12,12,0,0,0,4.07.69A14.05,14.05,0,0,0,14.19,13a12.83,12.83,0,0,0,1.49-.39l.09-.13a7.43,7.43,0,0,1-1.62.44,14,14,0,0,1-2.37.22h0a13.1,13.1,0,0,1-4.09-.67l-.1,0Zm4.16.39h0a16.25,16.25,0,0,1-4.32-.65l-.06-.11a18.84,18.84,0,0,0,4.38.62,14.47,14.47,0,0,0,2.1-.17l.21,0a13.06,13.06,0,0,0,1.85-.41l.14-.07h0l-.11.06a10.12,10.12,0,0,1-1.88.43l-.21,0a14.34,14.34,0,0,1-2.1.17,18.4,18.4,0,0,1-4.38-.64l.08.08a15.61,15.61,0,0,0,4.3.64,13,13,0,0,0,2.05-.16l.27,0A10.93,10.93,0,0,0,16,12.16l.09-.15-.08.17a9.3,9.3,0,0,1-1.89.43l-.28,0a14.21,14.21,0,0,1-2.05.16Z"/><path class="cls-5" d="M11.73,5.44A4.35,4.35,0,1,1,7.38,9.79a4.35,4.35,0,0,1,4.35-4.35Zm0-.44A4.79,4.79,0,1,1,7,9.79,4.79,4.79,0,0,1,11.73,5Z"/><path class="cls-5" d="M11.73,5A4.85,4.85,0,1,1,6.89,9.79,4.85,4.85,0,0,1,11.73,5Zm0,.1A4.74,4.74,0,1,1,7,9.79a4.76,4.76,0,0,1,4.73-4.74Z"/><path d="M11.73,14.66A4.87,4.87,0,1,1,16.59,9.8a4.86,4.86,0,0,1-4.86,4.86Zm0-9.7A4.84,4.84,0,1,0,16.56,9.8,4.84,4.84,0,0,0,11.73,5Zm0,9.59A4.76,4.76,0,1,1,16.48,9.8a4.75,4.75,0,0,1-4.75,4.75Zm0-9.48A4.73,4.73,0,1,0,16.45,9.8a4.73,4.73,0,0,0-4.72-4.73Z"/><path class="cls-5" d="M11.74,5.35A4.44,4.44,0,1,1,7.3,9.79a4.45,4.45,0,0,1,4.44-4.44Zm0,.11A4.33,4.33,0,1,1,7.41,9.79a4.35,4.35,0,0,1,4.33-4.33Z"/><path d="M11.74,14.24a4.45,4.45,0,1,1,4.45-4.45,4.45,4.45,0,0,1-4.45,4.45Zm0-8.88a4.43,4.43,0,1,0,4.42,4.43,4.43,4.43,0,0,0-4.42-4.43Zm0,8.78a4.35,4.35,0,1,1,4.34-4.35,4.35,4.35,0,0,1-4.34,4.35Zm0-8.67a4.32,4.32,0,1,0,4.31,4.32,4.33,4.33,0,0,0-4.31-4.32Z"/><rect class="cls-5" x="11.54" y="4.92" width="0.42" height="9.75"/><path class="cls-1" d="M11.59,4.93h0Z"/><path class="cls-1" d="M11.59,14.67h0Z"/><path class="cls-5" d="M11.89,4.87H12v9.85h-.11V4.87Zm-.41,0h.1v9.85h-.11V4.87Z"/><path d="M12,14.74h-.11V4.87H12v9.86h0Zm0-9.87-.09,0,0,9.83H12V4.87Zm-.39,9.87h-.11V4.87h.11l0,9.86h0Zm0-9.87-.09,0v9.83h.08V4.87Z"/><path class="cls-5" d="M6.87,9.59c.61-.56,2.85-.92,4.84-.92s4.34.42,4.85.91V10c-.43-.4-2.26-.88-4.86-.89s-4.48.49-4.84.9V9.59Z"/><path d="M6.89,10l0-.36a0,0,0,1,1,0,0V10Z"/><path d="M16.59,10l0-.36h0V10Z"/><path class="cls-5" d="M11.74,9a17.08,17.08,0,0,1,3.13.28,3.59,3.59,0,0,1,1.76.67v.13a3.78,3.78,0,0,0-1.78-.69,16.85,16.85,0,0,0-3.11-.28,17.8,17.8,0,0,0-3.18.29c-.69.13-1.61.41-1.73.68V10a3.24,3.24,0,0,1,1.71-.65A18,18,0,0,1,11.74,9Zm0-.41a17.08,17.08,0,0,1,3.13.28,3.61,3.61,0,0,1,1.76.66V9.7A3.79,3.79,0,0,0,14.85,9a16,16,0,0,0-3.11-.28A17,17,0,0,0,8.56,9c-.66.13-1.62.41-1.73.68V9.57a3.13,3.13,0,0,1,1.71-.66,17.22,17.22,0,0,1,3.2-.28Z"/><path d="M6.83,10.13h0a0,0,0,0,1,0,0V10c.06-.2.79-.48,1.72-.67A17.41,17.41,0,0,1,11.74,9a16.94,16.94,0,0,1,3.13.28,3.61,3.61,0,0,1,1.78.67v.14a4.2,4.2,0,0,0-1.81-.67,16.36,16.36,0,0,0-3.07-.28,17.36,17.36,0,0,0-3.21.28c-.75.15-1.61.42-1.72.67,0,0,0,0,0,0Zm4.91-1a16.64,16.64,0,0,1,3.11.28,4,4,0,0,1,1.8.69l0-.12a3.6,3.6,0,0,0-1.75-.65,16.88,16.88,0,0,0-3.11-.28,17.47,17.47,0,0,0-3.22.28c-1,.21-1.64.49-1.69.65v.07a4,4,0,0,1,1.71-.64,17.18,17.18,0,0,1,3.18-.28Zm-4.91.57h0s0,0,0,0V9.57c.07-.21.81-.49,1.72-.67a18.19,18.19,0,0,1,3.2-.29,16.78,16.78,0,0,1,3.13.28,3.71,3.71,0,0,1,1.78.67V9.7A4.28,4.28,0,0,0,14.85,9a16.66,16.66,0,0,0-3.09-.28A17.29,17.29,0,0,0,8.57,9c-.77.15-1.63.43-1.72.67Zm4.91-1A16.72,16.72,0,0,1,14.85,9a4.07,4.07,0,0,1,1.8.69l0-.12a3.71,3.71,0,0,0-1.75-.65,16.85,16.85,0,0,0-3.1-.28,17.31,17.31,0,0,0-3.22.28c-1,.2-1.65.49-1.7.65v.08A3.77,3.77,0,0,1,8.56,9a18.22,18.22,0,0,1,3.18-.29Z"/><path class="cls-5" d="M11.71,6.51a10.42,10.42,0,0,1,4.1.62l.26.45A10.73,10.73,0,0,0,11.71,7,11.1,11.1,0,0,0,7.4,7.6l.32-.52a10.88,10.88,0,0,1,4-.57Z"/><path class="cls-1" d="M15.85,7.2l.18.29Z"/><path class="cls-5" d="M11.74,6.88a16.93,16.93,0,0,1,2.81.2,5.47,5.47,0,0,1,1.54.45l.07.14a5.66,5.66,0,0,0-1.63-.48A15.61,15.61,0,0,0,11.74,7a16,16,0,0,0-2.84.2,5.11,5.11,0,0,0-1.53.47l.08-.14a4.93,4.93,0,0,1,1.43-.44,16.6,16.6,0,0,1,2.86-.2Zm0-.41a14.89,14.89,0,0,1,2.71.19,4.17,4.17,0,0,1,1.4.46L16,7.3a3.8,3.8,0,0,0-1.57-.54,16.28,16.28,0,0,0-2.66-.18A15.39,15.39,0,0,0,9,6.78a4.39,4.39,0,0,0-1.35.41L7.75,7A4.75,4.75,0,0,1,9,6.67a15.71,15.71,0,0,1,2.75-.2Z"/><path d="M16.16,7.69h0a5.89,5.89,0,0,0-1.63-.48A15.1,15.1,0,0,0,11.83,7h-.2A16,16,0,0,0,8.9,7.2a5.12,5.12,0,0,0-1.52.47l.06-.16a4.91,4.91,0,0,1,1.44-.44,15.7,15.7,0,0,1,2.86-.2h.06a16.15,16.15,0,0,1,2.75.2,4.75,4.75,0,0,1,1.54.46l.09.13s0,0,0,0ZM11.8,6.9h-.06a17,17,0,0,0-2.86.19,5.08,5.08,0,0,0-1.42.44l-.07.14a4,4,0,0,1,1.51-.5A16,16,0,0,1,11.63,7h.2a16.32,16.32,0,0,1,2.71.19,6.32,6.32,0,0,1,1.58.46l-.05-.09a5.14,5.14,0,0,0-1.53-.44,15.94,15.94,0,0,0-2.74-.2ZM16,7.31h0a3.61,3.61,0,0,0-1.56-.53,16.78,16.78,0,0,0-2.66-.19A15.82,15.82,0,0,0,9,6.79a4.28,4.28,0,0,0-1.35.42L7.74,7A4.62,4.62,0,0,1,9,6.65a18.09,18.09,0,0,1,2.75-.2h.08a16,16,0,0,1,2.63.19,4.54,4.54,0,0,1,1.41.46l.12.19v0Zm-4.23-.75a16.68,16.68,0,0,1,2.66.19,4.65,4.65,0,0,1,1.5.47l-.06-.1a4.53,4.53,0,0,0-1.39-.45,16,16,0,0,0-2.63-.19h-.08A17,17,0,0,0,9,6.68a5.4,5.4,0,0,0-1.23.37l-.09.15A3.72,3.72,0,0,1,9,6.76a15.82,15.82,0,0,1,2.73-.2Z"/><path class="cls-5" d="M14.14,11.81a12.06,12.06,0,0,0-2.4-.18c-3,0-4,.61-4.1.79l-.22-.37a8.1,8.1,0,0,1,4.33-.83,15.88,15.88,0,0,1,2.6.22l-.21.37Z"/><path class="cls-1" d="M7.47,12.1l.15.26Z"/><path class="cls-5" d="M11.72,11.57a15.28,15.28,0,0,1,2.45.2l-.06.1a12,12,0,0,0-2.39-.18,11.42,11.42,0,0,0-3.2.37c-.31.09-.82.29-.88.45l0-.09c0-.1.32-.3.9-.46a11.74,11.74,0,0,1,3.23-.39Zm0-.42a15.58,15.58,0,0,1,2.63.23l-.06.11a13.58,13.58,0,0,0-2.56-.23,12.27,12.27,0,0,0-3.36.4c-.35.1-1,.32-1,.49l0-.1c0-.16.53-.36,1-.5a12.82,12.82,0,0,1,3.38-.4Z"/><path d="M7.64,12.52h0l0-.1c0-.12.34-.32.91-.48a11.77,11.77,0,0,1,3.23-.38,14.61,14.61,0,0,1,2.45.19l-.05.13a13.14,13.14,0,0,0-2.29-.18h-.24a11.15,11.15,0,0,0-3.07.38c-.33.09-.81.28-.86.43h0Zm4.08-.93A11.44,11.44,0,0,0,8.49,12c-.58.16-.87.36-.89.45l0,.06c.1-.18.66-.37.87-.43a11.28,11.28,0,0,1,3.08-.38h.24a12,12,0,0,1,2.28.19l0-.1a16.64,16.64,0,0,0-2.43-.17Zm-4.29.57h0l-.06-.1c0-.22.78-.46,1-.52a11.94,11.94,0,0,1,3.38-.4,15.88,15.88,0,0,1,2.64.23l-.05.12a15.32,15.32,0,0,0-2.58-.21,11.83,11.83,0,0,0-3.36.39c-.45.13-.94.34-1,.48h0Zm4.32-1a12.28,12.28,0,0,0-3.37.39c-.59.17-1,.37-1,.49l0,.07c.1-.22.87-.45,1-.48a12.28,12.28,0,0,1,3.37-.39,15,15,0,0,1,2.57.22l0-.09a15.43,15.43,0,0,0-2.62-.21Z"/><path d="M10.86,11.45s0,0,0,0h.07v.05l0,0h-.05v0Zm0,0s0,0,0,0h0a0,0,0,0,0,0,0v0h0a0,0,0,0,0,0,0Zm.11,0h0v0Zm.11,0h0l0,0h0v0s0,0,0,0h0a0,0,0,0,1,0,0h0Zm0,0h0v0h0v0Zm.06,0h0v0h.06v.08h-.05Zm0,0v0h0v0h0s0,0,0,0Zm0,0V11.4h.09v.06h0v0h0v.06h0v-.05h0v0Zm.15,0h0v0h0v0s0,0,0,0h0a0,0,0,0,1,0,0h0v0a0,0,0,0,0,0,0h0Zm0,0h0Zm.06,0V11.4h.05v0h0v0h0v0Zm.09,0h0v0h0v0h0v0h0Zm0,0v0h0s0,0,0,0,0,0,0,0h0v0Zm0,0v0h0v0h0Zm.14,0h0s0,0,0,0,0,0,0,0,0,0,0,0l0,0h0v0h0Zm0,0h0v0h0v0Zm.05,0v-.09h0v.09Zm0-.07v0h0v0Zm0,.07,0-.06h0v.06Zm0,0v-.06h.08v.06h0v0h0v0h0v0h0v0Zm.12-.07v0h0v0Zm0,.07v-.06h0v.06Zm0,0v-.06h0v0h0v0h0s0,0,0,0v0Zm.11,0h0v0h0Zm0,0h0Zm.07,0h0s0,0,0,0h0v0h0v0h0v.09Zm0,0v0h0v0s0,0,0,0h0v0Zm.06,0s0,0,0,0h0s0,0,0,0v0H12v0Zm0,0v0h0v0h0v0Zm.09,0v-.07h0v0Zm.08,0h0v0h0v0s0,0,0,0h0a0,0,0,0,1,0,0h-.05v0h0Zm0,0h0Zm.05,0h0a0,0,0,0,1,0,0h0s0,0,0,0Zm.06.05,0-.09h0v0a0,0,0,0,0,0,0h0v0Zm0-.06v0h0v0s0,0,0,0h0v0Zm.1,0h0a0,0,0,0,1,0,0l0,0h0v0h0s0,0,0,0h0Zm0,0h0v0h0v0Zm.07,0h0Zm0,.08V11.4h0v.07Zm.05,0h0v0h0v0h0v0h0Zm0,0h0v0h.06v0h0Zm0,0h0s0,0,0,0Zm.06,0,0,0h0v0h-.05v0Zm0,0v0h0v0h0v0Zm.08.06,0-.09h.05v0s0,0,0,0h0v0Zm0-.05s0,0,0,0h0s0,0,0,0v0h0s0,0,0,0Zm.05,0v-.06h0v0Zm0,0v0h0v.05h-.05v0Zm0,0v0h0v0h0Zm.07,0h0Zm0,.11h0v0l0-.06h0l0,.07h0Zm.09,0h0a0,0,0,0,1,0,0l0,0h0v0h0s0,0,0,0h0Zm0,0h0v0h0Z"/><path d="M13,11.48h0v0h0v0s0,0,0,0h0s0,0,0,0h0v0h0Zm0,0h0v-.05h0v0h0v0h0v0h0Zm0,0s0,0,0,0h0s0,0,0,0v0h0a0,0,0,0,1,0,0Zm0,0s0,0,0,0h0a0,0,0,0,0,0,0,0,0,0,0,0,0,0h0Zm.12,0h0v0h0v0h0l0,.09Zm0,0v0h0v0h0l0,0Zm.11,0h0v0l0,0h0v0h0v0h0Zm0,0h0v0h0Zm.16,0h0l0,0h0v0s0,0,0,0a0,0,0,0,1,0,0s0,0,0,0h0s0,0,0,0h0s0,0,0,0h0v0h0v0Zm0,0s0,0,0,0h0v0h0a0,0,0,0,1,0,0Zm0,0v0h0l0,0v0h0v0Zm.05,0,0-.09h0l0,.09Zm.07,0h0v0h0v0h0s0,0,0,0h0v0h0v.07Zm0,0,0-.07h.08v.05h0l0,0h0s0,0,0,0v0h0v0h0v.05Zm.11,0h0l0-.09h0v0h0s0,0,0,0h0l0,0Zm0,0v0h0s0,0,0,0,0,0,0,0h0v0Zm.09,0h0v0h.06v0h0Zm0,0h0Zm0,0,0-.06h0v0h0v0h0a0,0,0,0,1,0,0v0Zm.07,0,0,0h0s0,0,0,0v0h0l0,0v0Zm0,0v0h0v0h0v0Z"/><path class="cls-3" d="M14.12,11.88h0s0,0,0,0l.27-.47h0s0,0,0,0l-.27.47a0,0,0,0,1,0,0Z"/><path class="cls-5" d="M7.67,7.07c1.49,0,8.36,4.21,8.38,5l-.42.66c-.2-.91-7.17-5-8.32-4.94l.36-.7Z"/><path d="M15.67,12.68,16,12.1h0a0,0,0,0,1,0,0l-.36.56Z"/><path d="M7.34,7.74l.31-.64h0s0,0,0,0l-.33.62Z"/><path class="cls-5" d="M7.27,7.75c.28-.19,2.31.72,4.43,2s4.14,2.73,4,3l-.06.09,0,0s0,0,0-.14c-.09-.3-1.53-1.44-3.91-2.88s-4.26-2.22-4.45-2l.06-.12Zm8.82,4.35c.18-.35-1.7-1.76-4-3.14S8,6.8,7.63,7l-.07.13,0,0a.3.3,0,0,1,.19-.05,15,15,0,0,1,4.26,2c1,.55,4,2.52,4,3.07,0,0,0,.06,0,.08l.07-.12Z"/><path d="M15.58,12.88v0h0s0,0,0-.13a15.6,15.6,0,0,0-3.9-2.87,15.33,15.33,0,0,0-4.31-2,.17.17,0,0,0-.12,0h0s0,0,0,0l0-.11a.21.21,0,0,1,.12,0,15.37,15.37,0,0,1,4.32,2c1.91,1.15,3.89,2.54,4,2.94a.1.1,0,0,1,0,.08l-.06.1h0ZM7.34,7.81a15.31,15.31,0,0,1,4.33,2c2.33,1.4,3.81,2.57,3.91,2.89a.18.18,0,0,1,0,.09l.05-.07a.06.06,0,0,0,0-.06c-.08-.39-2.1-1.81-4-2.93a15.53,15.53,0,0,0-4.31-2s-.08,0-.1,0l0,.07.1,0ZM16,12.22h0v0h0s0,0,0,0c0-.57-3.11-2.57-4-3.08a14.76,14.76,0,0,0-4.25-2,.3.3,0,0,0-.18,0h0a.22.22,0,0,1,.18-.07,15,15,0,0,1,4.28,2c.62.37,4,2.49,4,3.09h0l0-.06c.16-.31-1.61-1.69-4-3.12C9.48,7.51,7.92,6.84,7.64,7.05l-.06.11h0L7.62,7A.24.24,0,0,1,7.8,7c.67,0,2.69,1.06,4.26,1.95,2.11,1.25,4.24,2.78,4,3.17l-.07.1Z"/><path class="cls-6" d="M8.83,10.33a2.88,2.88,0,0,0,.86,2,2.85,2.85,0,0,0,2,.86,2.9,2.9,0,0,0,2.91-2.9h0V6.45H8.83v3.88Z"/><path d="M11.73,13.25a2.92,2.92,0,0,1-2.06-.87,2.88,2.88,0,0,1-.85-2.05V6.45h5.82l0,3.89a2.94,2.94,0,0,1-2.93,2.92Zm2.89-6.8H8.83l0,3.87a2.9,2.9,0,0,0,2.88,2.88,2.87,2.87,0,0,0,2.89-2.88V6.45Z"/><path class="cls-3" d="M8.94,10.33h0a2.78,2.78,0,0,0,2.79,2.77,2.78,2.78,0,0,0,2.78-2.77h0V6.58H8.94v3.75ZM13.39,7.7v2.65h0a1.48,1.48,0,0,1,0,.21A1.68,1.68,0,0,1,11.73,12a1.62,1.62,0,0,1-1.17-.5,1.66,1.66,0,0,1-.49-1.17V7.7Z"/><path d="M11.73,13.13a2.82,2.82,0,0,1-2-.83,2.76,2.76,0,0,1-.82-2V6.58h5.58l0,3.77a2.8,2.8,0,0,1-2.8,2.79ZM14.5,6.58H8.94l0,3.74a2.74,2.74,0,0,0,.81,2,2.77,2.77,0,0,0,4.73-1.95V6.58ZM11.73,12a1.69,1.69,0,0,1-1.67-1.68V7.68h3.33l0,2.41v.25a1.48,1.48,0,0,1,0,.21A1.68,1.68,0,0,1,11.73,12ZM10.08,7.71v2.63a1.64,1.64,0,0,0,2.81,1.17,1.61,1.61,0,0,0,.48-1,1.34,1.34,0,0,0,0-.2V7.7Z"/><path class="cls-7" d="M11.38,9.91h0a.43.43,0,0,0,.11.28.35.35,0,0,0,.26.11.33.33,0,0,0,.25-.11.39.39,0,0,0,.11-.28V9.38h-.73v.53Z"/><path class="cls-6" d="M12,9.51a.07.07,0,1,0,0,.14.07.07,0,1,0,0-.14Z"/><path class="cls-6" d="M11.75,9.7a.08.08,0,0,0-.07.08.07.07,0,1,0,.14,0,.08.08,0,0,0-.07-.08Z"/><path class="cls-6" d="M12,9.91a.07.07,0,1,0,0,.14.07.07,0,1,0,0-.14Z"/><path class="cls-6" d="M11.55,9.91a.07.07,0,0,0,0,.14.07.07,0,1,0,0-.14Z"/><path class="cls-6" d="M11.55,9.51a.07.07,0,0,0,0,.14.07.07,0,1,0,0-.14Z"/><path class="cls-7" d="M11.37,11.17h0a.44.44,0,0,0,.11.28.36.36,0,0,0,.52,0,.39.39,0,0,0,.11-.28v-.53h-.74v.53Z"/><path class="cls-6" d="M12,10.77a.07.07,0,0,0-.07.07.07.07,0,1,0,.14,0,.07.07,0,0,0-.07-.07Z"/><path class="cls-6" d="M11.75,11a.07.07,0,1,0,0,.14.07.07,0,1,0,0-.14Z"/><path class="cls-6" d="M12,11.17a.07.07,0,1,0,.07.07.07.07,0,0,0-.07-.07Z"/><path class="cls-6" d="M11.55,11.17a.07.07,0,0,0-.07.07.07.07,0,1,0,.14,0,.07.07,0,0,0-.07-.07Z"/><path class="cls-6" d="M11.55,10.77a.07.07,0,0,0-.07.07.07.07,0,1,0,.14,0,.07.07,0,0,0-.07-.07Z"/><path class="cls-7" d="M10.36,9.91h0a.39.39,0,0,0,.11.28.36.36,0,0,0,.52,0,.43.43,0,0,0,.1-.28V9.38h-.73v.53Z"/><path class="cls-6" d="M10.94,9.51a.08.08,0,1,0,.07.07.08.08,0,0,0-.07-.07Z"/><path class="cls-6" d="M10.73,9.71a.07.07,0,1,0,.07.07.07.07,0,0,0-.07-.07Z"/><path class="cls-6" d="M10.94,9.91a.07.07,0,1,0,0,.14.07.07,0,1,0,0-.14Z"/><path class="cls-6" d="M10.54,9.91a.07.07,0,0,0-.07.07.07.07,0,1,0,.14,0,.07.07,0,0,0-.07-.07Z"/><path class="cls-6" d="M10.54,9.51a.08.08,0,0,0-.07.07.07.07,0,1,0,.14,0,.08.08,0,0,0-.07-.07Z"/><path class="cls-7" d="M12.39,9.91h0a.39.39,0,0,0,.11.28.36.36,0,0,0,.52,0,.39.39,0,0,0,.11-.28V9.38h-.74v.53Z"/><path class="cls-6" d="M13,9.51a.08.08,0,0,0-.08.07.09.09,0,0,0,.08.08A.08.08,0,0,0,13,9.58.07.07,0,0,0,13,9.51Z"/><path class="cls-6" d="M12.76,9.71a.07.07,0,1,0,0,.14.07.07,0,1,0,0-.14Z"/><path class="cls-6" d="M13,9.91a.07.07,0,1,0,0,.14.07.07,0,0,0,0-.14Z"/><path class="cls-6" d="M12.57,9.91a.07.07,0,1,0,.07.07.07.07,0,0,0-.07-.07Z"/><path class="cls-6" d="M12.57,9.51a.07.07,0,0,0-.07.07.07.07,0,1,0,.14,0,.07.07,0,0,0-.07-.07Z"/><path class="cls-7" d="M11.38,8.64h0a.39.39,0,0,0,.11.27.34.34,0,0,0,.26.12A.33.33,0,0,0,12,8.91a.39.39,0,0,0,.11-.27V8.11h-.73v.53Z"/><path class="cls-6" d="M12,8.23a.08.08,0,0,0-.07.08.07.07,0,0,0,.07.07A.08.08,0,0,0,12,8.31.09.09,0,0,0,12,8.23Z"/><path class="cls-6" d="M11.75,8.43a.07.07,0,0,0-.07.07.07.07,0,1,0,.14,0,.07.07,0,0,0-.07-.07Z"/><path class="cls-6" d="M12,8.64a.07.07,0,1,0,0,.14.07.07,0,1,0,0-.14Z"/><path class="cls-6" d="M11.55,8.64a.07.07,0,0,0,0,.14.07.07,0,1,0,0-.14Z"/><path class="cls-6" d="M11.55,8.23a.08.08,0,0,0-.07.08.07.07,0,0,0,.07.07.07.07,0,0,0,.08-.07.08.08,0,0,0-.08-.08Z"/><path class="cls-5" d="M9.3,7.56a.37.37,0,0,1,.2-.34.34.34,0,0,1,.21.34Z"/><path class="cls-5" d="M9.14,7.23l0,.31h.21a.28.28,0,0,1,.19-.3.31.31,0,0,1,.21.3h.2l0-.31Z"/><path d="M9.92,7.55H9.71a.33.33,0,0,0-.21-.3.27.27,0,0,0-.18.29H9.1l0-.32h.75l.05.33Zm-.44-.31H9.14l0,.3h.19a.26.26,0,0,1,.17-.29Zm0,0a.34.34,0,0,1,.2.31h.17l0-.3Z"/><path class="cls-5" d="M9.09,7.54h.83s0,0,0,0,0,0,0,0H9.09s0,0,0,0,0,0,0,0Z"/><path d="M9.92,7.63H9.09a.05.05,0,0,1,0-.1h.83a.05.05,0,0,1,0,.1Zm-.83-.08v0h.83l0,0-.85,0Z"/><path class="cls-5" d="M9.39,7.54a.22.22,0,0,1,.11-.21.22.22,0,0,1,.12.21Z"/><path d="M9.63,7.55H9.39c0-.18.1-.23.11-.23a.21.21,0,0,1,.13.22ZM9.5,7.34a.22.22,0,0,0-.1.2h.21a.23.23,0,0,0-.11-.19Z"/><path class="cls-5" d="M9.11,7.1H9.9s0,0,0,0a0,0,0,0,1,0,0H9.11a0,0,0,0,1,0,0s0,0,0,0Z"/><path d="M9.9,7.18H9.11a0,0,0,0,1,0,0,0,0,0,0,1,0,0H9.9s0,0,0,0a0,0,0,0,1,0,0Zm-.79-.07v0H9.9a0,0,0,0,0,0,0l-.81,0Z"/><path class="cls-5" d="M9.12,7.17h.76a0,0,0,0,1,0,0s0,0,0,0H9.12s0,0,0,0,0,0,0,0Z"/><path d="M9.88,7.25H9.12a0,0,0,0,1,0,0,0,0,0,0,1,0,0h.76a0,0,0,0,1,0,0,0,0,0,0,1,0,0Zm-.76-.07v.05h.76s0,0,0,0l-.78,0Z"/><path class="cls-5" d="M9.37,6.65h.06v0h0v0h.07v0h0v0h.06v.1a0,0,0,0,1,0,0H9.4a0,0,0,0,1,0,0v-.1Z"/><path d="M9.61,6.79H9.39l0,0v-.1h.07v.05h0v0h.08v.05h0v0h.07v.12l0,0Zm-.19-.14H9.37v.09l.23,0,0,0v-.1H9.58v0l-.05,0,0-.06h0l0,0-.06,0V6.65Z"/><polygon class="cls-5" points="9.6 6.78 9.61 7.1 9.4 7.1 9.41 6.78 9.6 6.78 9.6 6.78"/><path d="M9.62,7.11H9.4V6.78h.2l0,.34Zm0-.33H9.41V7.1H9.6l0-.31Z"/><path class="cls-5" d="M9.63,6.81h.06v0h0v0h.06v0h.05v0h.05v.1s0,0,0,0H9.66a0,0,0,0,1,0,0V6.81Z"/><path d="M9.87,6.94H9.65l0,0V6.81l.07,0v.06h0v0h.07l0,.06h0l0,0h.07l0,.13,0,0Zm-.19-.13h0V6.9l.23,0V6.8l0,0v0H9.79V6.8l0,0v0H9.69V6.81Z"/><polygon class="cls-5" points="9.86 6.93 9.86 7.1 9.66 7.1 9.67 6.93 9.86 6.93"/><path d="M9.88,7.11H9.66V6.93h.2l0,.19Zm0-.18H9.67V7.1h.18V6.93Z"/><path class="cls-5" d="M9.11,6.81h.06v0h0v0h.06v0h.05v0h.06v.1a0,0,0,0,1,0,0H9.14a0,0,0,0,1,0,0V6.81Z"/><path d="M9.35,6.94H9.13l0,0V6.81l.07,0v.06h0v0h.07l0,.06h0l0,0h.08v.13l0,0Zm-.19-.13H9.11V6.9l.23,0,0,0V6.8l0,0v0H9.27V6.81h0l0,0H9.17V6.81Z"/><polygon class="cls-5" points="9.34 6.93 9.34 7.1 9.14 7.1 9.15 6.93 9.34 6.93"/><path d="M9.36,7.11H9.14V6.93h.2l0,.19Zm0-.18H9.15V7.1h.17V6.93Z"/><path d="M9.48,6.88s0,0,0,0V7h0V6.88Z"/><path d="M9.74,7a0,0,0,1,1,0,0v.06h0V7Z"/><path d="M9.22,7a0,0,0,1,1,0,0v.06h0V7Z"/><path class="cls-5" d="M11.6,6.65h.07v0h0v0h.06v0h.05v0h.06v.1l0,0h-.22a0,0,0,0,1,0,0v-.1Z"/><path d="M11.85,6.79h-.23l0,0v-.1h.08v.05h0v0h.07v.05h0l0,0h.08v.12l0,0Zm-.2-.14H11.6l0,.09.23,0V6.65h0v0l-.06,0V6.65h0v0l-.05,0,0-.06Z"/><polygon class="cls-5" points="11.83 6.78 11.84 7.1 11.63 7.1 11.65 6.78 11.83 6.78 11.83 6.78"/><path d="M11.86,7.11h-.23V6.78h.19l0,.34Zm0-.33-.17,0v.3h.18V6.78Z"/><path class="cls-5" d="M11.87,6.81h.05v0H12v0H12v0h0v0h.06v.1s0,0,0,0h-.22s0,0,0,0V6.81Z"/><path d="M12.1,6.94h-.22l0,0V6.81l.07,0,0,.06h0v0H12v.06h0v0h.07v.13l0,0Zm-.19-.13h0V6.9l.22,0,0,0V6.8l0,0v0H12V6.8l0,0v0h-.06V6.81Z"/><polygon class="cls-5" points="12.09 6.93 12.1 7.1 11.9 7.1 11.9 6.93 12.09 6.93"/><path d="M11.89,7.11V6.93h.2l0,.18Zm.19-.18H11.9v.15h.19l0-.16Z"/><path class="cls-5" d="M11.35,6.81h.06v0h0v0h.06v0h0v0h.06v.1l0,0h-.22s0,0,0,0V6.81Z"/><path d="M11.59,6.94h-.23l0,0V6.81l.07,0v.06h0v0l.07,0v.06h0v0l.07,0v.13l0,0Zm-.2-.13h0V6.9l.23,0V6.81h0v0h-.05V6.81h-.05v0h-.05l0-.05Z"/><polygon class="cls-5" points="11.57 6.93 11.58 7.1 11.38 7.1 11.38 6.93 11.57 6.93"/><path d="M11.59,7.11h-.21V6.93h.21v.19Zm0-.18h-.17V7.1h.18V6.93Z"/><path class="cls-5" d="M11.54,7.56a.36.36,0,0,1,.2-.34.34.34,0,0,1,.2.34Z"/><path class="cls-5" d="M11.37,7.23l0,.31h.2a.28.28,0,0,1,.2-.3.29.29,0,0,1,.2.3h.2l0-.31Z"/><path d="M12.16,7.55h-.22a.33.33,0,0,0-.2-.3.28.28,0,0,0-.19.29h-.21l0-.32h.75l.05.33Zm-.44-.31h-.35l0,.3h.19a.25.25,0,0,1,.18-.29Zm0,0a.34.34,0,0,1,.2.31h.17l0-.3Z"/><path class="cls-5" d="M11.32,7.54h.83a0,0,0,0,1,0,.08h-.83a0,0,0,0,1,0-.08Z"/><path d="M12.15,7.63h-.83a.05.05,0,0,1,0-.1h.83a0,0,0,0,1,0,.1Zm-.83-.08v.06h.83s0,0,0,0l-.85,0Z"/><path class="cls-5" d="M11.63,7.54a.22.22,0,0,1,.11-.21.22.22,0,0,1,.11.21Z"/><path d="M11.87,7.55h-.24a.22.22,0,0,1,.1-.23.21.21,0,0,1,.14.22Zm-.14-.21a.25.25,0,0,0-.09.2h.2a.21.21,0,0,0-.11-.19Z"/><path class="cls-5" d="M11.34,7.1h.8a0,0,0,0,1,0,.07h-.8a0,0,0,0,1,0-.07Z"/><path d="M12.14,7.18h-.8a0,0,0,0,1,0,0,0,0,0,0,1,0,0h.8a0,0,0,0,1,0,0,0,0,0,0,1,0,0Zm-.8-.07v0h.8a0,0,0,0,0,0,0l-.82,0Z"/><path class="cls-5" d="M11.36,7.17h.76s0,0,0,0a0,0,0,0,1,0,0h-.76a0,0,0,0,1,0,0s0,0,0,0Z"/><path d="M12.12,7.25h-.76a0,0,0,0,1,0,0,0,0,0,0,1,0,0h.76a0,0,0,0,1,0,0,0,0,0,0,1,0,0Zm-.76-.07v.05h.76a0,0,0,0,0,0,0l-.78,0Z"/><path d="M11.72,6.88a0,0,0,1,1,0,0V7h0V6.88Z"/><path d="M12,7a0,0,0,1,1,0,0v.06h0V7Z"/><path d="M11.46,7a0,0,0,1,1,0,0v.06h0V7Z"/><path class="cls-5" d="M13.82,6.65h.06v0h0v0H14v0h0v0h.06v.1s0,0,0,0h-.22s0,0,0,0v-.1Z"/><path d="M14.06,6.79h-.23l0,0v-.1h.08V6.7l0,0v0H14l0,.06,0,0v0h.07l0,.12,0,0Zm-.2-.14h0v.09l.23,0V6.65H14l0,0H14V6.65h-.05v0h0l0-.06Z"/><polygon class="cls-5" points="14.04 6.78 14.06 7.1 13.85 7.1 13.86 6.78 14.04 6.78"/><path d="M14.07,7.11h-.22V6.78H14l0,.34Zm0-.33-.17,0v.3H14V6.78Z"/><path class="cls-5" d="M14.08,6.81h.06v0h0v0h.06v0h0v0h.06v.1l0,0H14.1l0,0v-.1Z"/><path d="M14.32,6.94h-.23l0,0v-.1h.07v0h0v0l.07,0v.06h0v0l.07,0v.13l0,0Zm-.2-.13h0v.09l.23,0V6.81h-.05v0h0V6.81h-.05v0h0l0-.05Z"/><polygon class="cls-5" points="14.3 6.93 14.31 7.1 14.11 7.1 14.11 6.93 14.3 6.93"/><path d="M14.32,7.11h-.21V6.93h.2l0,.19Zm0-.18h-.17V7.1h.18V6.93Z"/><path class="cls-5" d="M13.56,6.81h.06v0h0v0h.06v0h0v0h.06v.1l0,0h-.21s0,0,0,0v-.1Z"/><path d="M13.8,6.94h-.23l0,0v-.1h.07v0h0v0h.07v0h0v0h.07v.12l0,0Zm-.19-.13h0v.09l.23,0V6.81h-.05l0,0h-.06V6.81h-.05v0h-.05V6.81Z"/><polygon class="cls-5" points="13.79 6.93 13.79 7.1 13.59 7.1 13.6 6.93 13.79 6.93"/><path d="M13.81,7.11h-.22V6.93h.21l0,.19Zm0-.18H13.6V7.1h.18V6.93Z"/><path class="cls-5" d="M13.75,7.56a.33.33,0,0,1,.2-.33.34.34,0,0,1,.2.33Z"/><path class="cls-5" d="M13.58,7.23l0,.31h.2a.29.29,0,0,1,.2-.3.29.29,0,0,1,.2.3h.2l0-.31Z"/><path d="M14.37,7.55h-.22a.33.33,0,0,0-.2-.3.28.28,0,0,0-.19.29h-.21l0-.32h.75l0,.33Zm-.44-.31h-.35l0,.3h.19a.26.26,0,0,1,.18-.29Zm0,0a.29.29,0,0,1,.19.3h.18l0-.3Z"/><path class="cls-5" d="M13.54,7.54h.83a0,0,0,0,1,0,.08h-.83a0,0,0,1,1,0-.08Z"/><path d="M14.37,7.63h-.83a0,0,0,0,1,0-.1h.83a.05.05,0,0,1,0,.1Zm-.83-.08v.06h.83v0l-.84,0Z"/><path class="cls-5" d="M13.84,7.54A.22.22,0,0,1,14,7.33a.24.24,0,0,1,.12.21Z"/><path d="M14.08,7.55h-.24a.22.22,0,0,1,.1-.23.22.22,0,0,1,.14.22Zm-.14-.21a.28.28,0,0,0-.09.2h.2a.23.23,0,0,0-.11-.19Z"/><path class="cls-5" d="M13.55,7.1h.8s0,0,0,0a0,0,0,0,1,0,0h-.8a0,0,0,0,1,0,0,0,0,0,0,1,0,0Z"/><path d="M14.35,7.18h-.8a0,0,0,0,1,0,0,0,0,0,0,1,0,0h.8a0,0,0,0,1,0,0,0,0,0,0,1,0,0Zm-.8-.07v0h.8a0,0,0,0,0,0,0l-.82,0Z"/><path class="cls-5" d="M13.57,7.17h.76s0,0,0,0a0,0,0,0,1,0,0h-.76a0,0,0,0,1,0,0s0,0,0,0Z"/><path d="M14.33,7.25h-.76a0,0,0,0,1,0,0,0,0,0,0,1,0,0h.76a0,0,0,0,1,0,0,0,0,0,0,1,0,0Zm-.76-.07v.05h.76l0,0-.78,0Z"/><path d="M13.93,6.88a0,0,0,1,1,0,0V7h0V6.88Z"/><path d="M14.19,7a0,0,0,1,1,0,0v.06h0V7Z"/><path d="M13.67,7a0,0,0,1,1,0,0v.06h0V7Z"/><path class="cls-5" d="M9.37,8.92h.06V9h0v0h.07V9h0v0h.06V9s0,0,0,0H9.4s0,0,0,0v-.1Z"/><path d="M9.61,9.05H9.39l0,0v-.1h.07V9h0v0h.08V9h0v0h.07V9l0,0Zm-.19-.13H9.37V9l.23,0,0,0v-.1H9.58V9H9.54l0-.05h0l0,0H9.43V8.92Z"/><polygon class="cls-5" points="9.6 9.05 9.61 9.37 9.4 9.36 9.41 9.05 9.6 9.05 9.6 9.05"/><path d="M9.62,9.38H9.4V9.05h.2l0,.34Zm0-.33H9.41v.31l.19,0,0-.3Z"/><path class="cls-5" d="M9.63,9.07h.06v0h0v0h.06v0h.05v0H9.9v.1s0,0,0,0H9.66l0,0v-.1Z"/><path d="M9.87,9.21H9.65l0,0v-.1h.07v.06l0,0v0h.07l0,.06,0,0v0H9.9v.12l0,0Zm-.19-.14h0v.09l.23,0,0,0v-.1H9.84v0H9.79V9.07h0l0,0H9.69V9.07Z"/><polygon class="cls-5" points="9.86 9.19 9.87 9.37 9.66 9.37 9.67 9.19 9.86 9.19"/><path d="M9.88,9.38H9.66V9.19h.2l0,.2Zm0-.19-.18,0v.16l.18,0V9.19Z"/><path class="cls-5" d="M9.11,9.07h.06v0h.05v0h0v0h.05v0h.06v.1a0,0,0,0,1,0,0H9.14l0,0v-.1Z"/><path d="M9.35,9.21H9.13l0,0v-.1h.07v.06l0,0,0,0h.07l0,.06,0,0v0h.07v.12l0,0Zm-.19-.14H9.11v.09l.23,0,0,0v-.1h0v0H9.27V9.07h0v0H9.17V9.07Z"/><polygon class="cls-5" points="9.34 9.2 9.35 9.37 9.14 9.37 9.15 9.2 9.34 9.2"/><path d="M9.36,9.38H9.14V9.19h.2l0,.2Zm0-.18H9.15v.16h.17V9.2Z"/><path class="cls-5" d="M9.3,9.83a.36.36,0,0,1,.2-.34.34.34,0,0,1,.21.34Z"/><path class="cls-5" d="M9.14,9.5l0,.31h.2c0-.26.19-.3.2-.3a.3.3,0,0,1,.2.3h.2l0-.32Z"/><path d="M9.92,9.82H9.71a.3.3,0,0,0-.21-.3.27.27,0,0,0-.18.29H9.11l0-.33h.74l.05.34ZM9.48,9.5H9.14l0,.3.19,0a.27.27,0,0,1,.17-.29Zm0,0a.32.32,0,0,1,.2.31h.17l0-.3Z"/><path class="cls-5" d="M9.09,9.81h.83s0,0,0,0a0,0,0,0,1,0,0H9.09a0,0,0,0,1,0,0s0,0,0,0Z"/><path d="M9.92,9.9H9.09s0,0,0-.05a0,0,0,0,1,0,0h.83a0,0,0,0,1,0,0s0,.05,0,.05Zm-.83-.08v0h.83l0,0-.85,0Z"/><path class="cls-5" d="M9.39,9.81A.21.21,0,0,1,9.5,9.6a.22.22,0,0,1,.12.21Z"/><path d="M9.63,9.82H9.39c0-.18.1-.23.11-.23a.21.21,0,0,1,.13.22ZM9.5,9.61a.22.22,0,0,0-.1.2h.21a.21.21,0,0,0-.11-.19Z"/><path class="cls-5" d="M9.11,9.37H9.9a0,0,0,0,1,0,0s0,0,0,0H9.11s0,0,0,0a0,0,0,0,1,0,0Z"/><path d="M9.9,9.45H9.11s0,0,0,0,0-.05,0-.05H9.9s0,0,0,.05,0,0,0,0Zm-.79-.07v0H9.9l0,0-.81,0Z"/><path class="cls-5" d="M9.13,9.44h.75a0,0,0,1,1,0,.06H9.13a0,0,0,1,1,0-.06Z"/><path d="M9.88,9.52H9.13a0,0,0,0,1-.05,0,.05.05,0,0,1,.05-.05h.75a.05.05,0,0,1,0,.05,0,0,0,0,1,0,0Zm-.75-.07v0h.75l0,0-.77,0Z"/><path d="M9.48,9.15a0,0,0,0,1,0,0v.07h0V9.15Z"/><path d="M9.74,9.26a0,0,0,1,1,0,0v.06h0V9.26Z"/><path d="M9.22,9.26a0,0,0,1,1,0,0v.06h0V9.26Z"/><path class="cls-5" d="M13.69,11.31l0,0,0,0,0,0,0,0,0,0,0,0,0,0,0,0,.05,0-.07.07h0l-.15-.15a0,0,0,0,1,0,0l.07-.07Z"/><path d="M13.79,11.59h0l-.16-.16v-.05l.07-.07.06,0,0,.05h0v0l.06.05,0,0,0,0v0l.07,0-.1.1Zm-.11-.27-.06.07.17.19v0l.07-.07,0,0v0l-.05,0,0,0,0,0v0l-.05,0,0-.05,0,0Z"/><polygon class="cls-5" points="13.75 11.56 13.54 11.79 13.39 11.65 13.63 11.43 13.75 11.56"/><path d="M13.54,11.81l-.16-.16.24-.23.14.13-.22.26Zm.08-.37-.22.21.14.13.2-.23-.12-.11Z"/><path class="cls-5" d="M13.76,11.6l0,.05,0,0,0,0,0,0,.05.05,0,0,0,0,0,0,0,0-.07.07h0l-.15-.15a0,0,0,0,1,0,0l.07-.07Z"/><path d="M13.86,11.88h0l-.15-.16v-.05l.07-.07.06.05,0,0,0,0v0l.07,0,0,0h0v0l.06,0-.1.1Zm-.11-.27-.05.07.16.19v0l.07-.07,0,0v0l-.05,0,0,0,0,0v0l-.05,0,0,0,0,0Z"/><polygon class="cls-5" points="13.83 11.85 13.72 11.98 13.58 11.83 13.7 11.72 13.83 11.85 13.83 11.85"/><path d="M13.72,12l-.15-.15.12-.13.15.13-.12.15Zm0-.26-.1.11.13.12.1-.12-.13-.11Z"/><path class="cls-5" d="M13.39,11.24l0,0,0,0,0,0,0,0,0,0,0,0,0,0,0,0,0,0-.07.07h0l-.15-.15s0,0,0,0l.06-.07Z"/><path d="M13.5,11.51h0l-.15-.15v0l.07-.07,0,0,0,.05h0l0,0,.06,0,0,.05h0v0l.06,0-.09.1Zm-.11-.27-.06.07.17.19h0l.07-.08,0,0v0l0,0,0-.05,0,0,0,0,0,0,0-.05,0,0Z"/><polygon class="cls-5" points="13.47 11.48 13.35 11.61 13.21 11.47 13.33 11.35 13.47 11.48"/><path d="M13.35,11.63l-.15-.15.13-.14.15.14-.13.15Zm0-.27-.1.12.13.11.11-.11-.14-.12Z"/><path class="cls-5" d="M13,11.9a.33.33,0,0,1,.37-.09.31.31,0,0,1-.09.38L13,11.9Z"/><path class="cls-5" d="M13.11,11.55l-.24.2.14.14a.29.29,0,0,1,.36-.07.31.31,0,0,1-.08.35l.15.15.19-.25-.52-.52Z"/><path d="M13.44,12.34l-.15-.16a.32.32,0,0,0,.07-.35h0a.31.31,0,0,0-.12,0,.3.3,0,0,0-.22.1l-.16-.14.25-.22.53.52-.2.28Zm-.06-.51,0,.09a.32.32,0,0,1-.11.26l.14.12.18-.24-.24-.23Zm-.28-.27-.22.2.14.12a.32.32,0,0,1,.33-.08l-.25-.24Z"/><path class="cls-5" d="M12.86,11.74l.59.59s0,0,0,.05h0l-.59-.58s0,0,0-.05a0,0,0,0,1,0,0Z"/><path d="M13.41,12.4h0l-.58-.59s0,0,0-.06l0,0,.61.6a0,0,0,0,1,0,.06l0,0Zm-.6-.61.6.6,0,0-.58-.62,0,.05Z"/><path class="cls-5" d="M13.07,12a.24.24,0,0,1,.23-.07.21.21,0,0,1-.07.23L13.07,12Z"/><path d="M13.23,12.13,13.06,12c.13-.15.24-.09.24-.09a.21.21,0,0,1-.06.25Zm0-.24a.22.22,0,0,0-.16.07l.15.14a.24.24,0,0,0,.06-.21Z"/><path class="cls-5" d="M13.18,11.44l.56.56a0,0,0,0,1,0,.05h0l-.57-.56a0,0,0,0,1,0-.05Z"/><path d="M13.72,12.07h0l-.56-.56s0-.05,0-.06h.06l.56.57s0,0,0,.06Zm-.55-.62,0,0,.58.58v0l-.56-.59Z"/><path class="cls-5" d="M13.15,11.5l.53.54a0,0,0,0,1,0,0s0,0,0,0l-.54-.54a0,0,0,0,1,0,0s0,0,.05,0Z"/><path d="M13.65,12.11h0l-.53-.54s0-.05,0-.06h.06l.54.54s0,.05,0,.06l0,0Zm-.51-.6,0,0,.54.56,0,0-.53-.57Z"/><path d="M13.6,11.55s.05,0,0,0l-.05.05,0,0,0,0Z"/><path d="M13.71,11.81a0,0,0,1,1,0,0l0,0,0,0,0,0Z"/><path d="M13.34,11.44a0,0,0,1,1,0,0l0,0,0,0,0,0Z"/><path class="cls-5" d="M13.81,8.92h.06V9h.05v0H14V9h0v0h.06V9l0,0h-.22l0,0v-.1Z"/><path d="M14.06,9.05h-.23l0,0v-.1h.07l0,.05h0l0,0H14V9h0v0h.07l0,.12,0,0Zm-.2-.13h0V9l.24,0V8.92H14V9h0V8.92h-.05V9h-.06V8.92Z"/><polygon class="cls-5" points="14.04 9.05 14.05 9.37 13.84 9.37 13.86 9.05 14.04 9.05"/><path d="M14.07,9.38h-.23V9.05H14l0,.34Zm0-.33h-.17v.31l.18,0v-.3Z"/><path class="cls-5" d="M14.07,9.07h.06v0h0v0h.06v0h0v0h.06v.1a0,0,0,0,1,0,0H14.1l0,0v-.1Z"/><path d="M14.31,9.21h-.22l0,0v-.1h.07l0,.06,0,0v0h.07l0,.06,0,0,0,0h.08v.12l0,0Zm-.19-.14h0v.09l.23,0,0,0v-.1h-.05v0h-.06V9.07h-.05l0,0h-.06V9.07Z"/><polygon class="cls-5" points="14.3 9.2 14.31 9.37 14.1 9.37 14.11 9.2 14.3 9.2"/><path d="M14.32,9.38H14.1V9.19h.2l0,.2Zm0-.18h-.18v.16l.17,0V9.2Z"/><path class="cls-5" d="M13.56,9.07h0v0h.05v0h.06v0h0v0h.06v.1a0,0,0,0,1,0,0h-.21s0,0,0,0v-.1Z"/><path d="M13.79,9.21h-.22l0,0v-.1h.07v.06l0,0,0,0h.08v.06l0,0v0h.07v.12l0,0Zm-.19-.14h0v.09l.22,0,0,0v-.1h-.05v0h0V9.07h-.05v0h-.06V9.07Z"/><polygon class="cls-5" points="13.78 9.2 13.79 9.37 13.59 9.37 13.59 9.2 13.78 9.2"/><path d="M13.57,9.38V9.19h.2l0,.19Zm.2-.18h-.18v.14h.19l0-.15Z"/><path class="cls-5" d="M13.75,9.83a.34.34,0,0,1,.19-.34.33.33,0,0,1,.21.34Z"/><path class="cls-5" d="M13.58,9.5l0,.31h.2c0-.26.19-.3.2-.3a.32.32,0,0,1,.2.3h.2l0-.31Z"/><path d="M14.37,9.82h-.22a.32.32,0,0,0-.2-.3.27.27,0,0,0-.19.29h-.21l0-.32.74,0,.06.34Zm-.44-.32h-.35l0,.3h.19a.27.27,0,0,1,.18-.3Zm0,0a.32.32,0,0,1,.19.31h.18l0-.3Z"/><path class="cls-5" d="M13.53,9.81h.83s0,0,0,0a0,0,0,0,1,0,0h-.83a0,0,0,0,1,0,0,0,0,0,0,1,0,0Z"/><path d="M14.36,9.9h-.83s0,0,0-.05a0,0,0,0,1,0,0h.83a0,0,0,0,1,.05,0,.05.05,0,0,1-.05.05Zm-.83-.08v0h.83l0,0-.85,0Z"/><path class="cls-5" d="M13.83,9.81A.21.21,0,0,1,14,9.6a.22.22,0,0,1,.11.21Z"/><path d="M14.07,9.82h-.24c0-.18.1-.23.11-.23s.13.05.13.22Zm-.13-.21a.22.22,0,0,0-.09.2h.2a.23.23,0,0,0-.11-.19Z"/><path class="cls-5" d="M13.55,9.37h.8s0,0,0,0,0,0,0,0h-.8s0,0,0,0a0,0,0,0,1,0,0Z"/><path d="M14.35,9.45h-.8a0,0,0,0,1,0,0,0,0,0,0,1,0,0h.8a0,0,0,0,1,0,0,0,0,0,0,1,0,0Zm-.8-.07v0h.8s0,0,0,0l-.81,0Z"/><path class="cls-5" d="M13.57,9.44h.76a0,0,0,0,1,0,0,0,0,0,0,1,0,0h-.76s0,0,0,0a0,0,0,0,1,0,0Z"/><path d="M14.33,9.52h-.76s0,0,0,0,0-.05,0-.05h.76s0,0,0,.05a0,0,0,0,1,0,0Zm-.76-.07v0h.76s0,0,0,0l-.77,0Z"/><path d="M13.93,9.15s0,0,0,0v.08h0V9.15Z"/><path d="M14.19,9.26a0,0,0,1,1,0,0v.06h0V9.26Z"/><path d="M13.67,9.26a0,0,0,1,1,0,0v.06h0V9.26Z"/><path class="cls-5" d="M9.59,11.5l0,0,0,0,0,0,0,0,.05,0,0,0,0,0,0,0,0,0,.07.07s0,0,0,0l-.15.15s0,0,0,0l-.07-.07Z"/><path d="M9.67,11.59l0,0-.07-.06,0-.06.05,0v0l0,0,0-.06.05,0v0h0l0-.06.1.07v.05l-.19.17Zm-.05-.13,0,0,.07.06,0,0,.15-.15-.07-.09,0,0h0l0,.05-.05,0,0,0,0,0,0,0-.05,0Z"/><polygon class="cls-5" points="9.84 11.43 10.07 11.64 9.93 11.79 9.71 11.56 9.84 11.43"/><path d="M9.93,11.81l-.23-.24.13-.15.25.21-.15.18Zm-.1-.37-.11.13.21.2.14-.13-.24-.2Z"/><path class="cls-5" d="M9.88,11.42l0,0,0,0,0,0,0,0,.05,0,0,0,0,0,0,0,0,0,.07.07a0,0,0,0,1,0,0l-.15.15h0l-.07-.07Z"/><path d="M10,11.51h0l-.07-.07.05-.06,0,0,0,0h0l0-.06,0,0v0l0,0,0-.06.09.08v0l-.18.16Zm-.05-.12,0,0,.08.07v0l.15-.15-.07-.09,0,0,0,0,0,0,0,0,0,0h0l0,.05,0,0Z"/><polygon class="cls-5" points="10.13 11.35 10.26 11.46 10.11 11.61 10 11.48 10.13 11.35"/><path d="M10.11,11.62,10,11.49l.13-.15.14.12-.15.16Zm0-.26-.12.13.11.1.14-.13-.13-.1Z"/><path class="cls-5" d="M9.52,11.79l0,0,0,0,0,0,0,0,0-.05,0,0,0,0,0,0,0,0,.07.07a0,0,0,0,1,0,0l-.15.15h0l-.07-.07Z"/><path d="M9.6,11.88h0l-.07-.07,0-.06,0,0v0h0l0-.06.05,0v0l0,0,0-.06.08.08v0l-.18.17Zm0-.13,0,.05.08.06h0l.15-.15-.06-.09,0,0,0,0,0,0-.05,0,0,.05h0l0,0,0,0Z"/><polygon class="cls-5" points="9.77 11.71 9.89 11.83 9.75 11.97 9.63 11.85 9.77 11.71"/><path d="M9.75,12l-.13-.13.14-.15.14.11L9.75,12Zm0-.27-.12.14.11.1.13-.14-.12-.1Z"/><path class="cls-5" d="M10.18,12.19a.35.35,0,0,1-.09-.38.33.33,0,0,1,.38.09l-.29.29Z"/><path class="cls-5" d="M9.83,12.07l.2.24.14-.14a.28.28,0,0,1-.07-.35.31.31,0,0,1,.36.07l.14-.15-.25-.19-.52.52Z"/><path d="M10,12.33l-.21-.25.52-.54.27.19-.15.17a.34.34,0,0,0-.23-.1.25.25,0,0,0-.12,0h0a.27.27,0,0,0,.07.33l-.15.17Zm.05-.5-.24.25.19.22.13-.14a.27.27,0,0,1-.1-.25.19.19,0,0,1,0-.08Zm.15-.05a.32.32,0,0,1,.23.1l.13-.14-.25-.18-.23.24.12,0Z"/><path class="cls-5" d="M10,12.32l.59-.58h.05a0,0,0,0,1,0,0l-.58.59s0,0-.05,0,0,0,0,0Z"/><path d="M10.05,12.4l0,0s0-.05,0-.07l.59-.58h.07a.08.08,0,0,1,0,.07l-.62.6Zm.58-.66-.6.59v0h0l.58-.59v0Z"/><path class="cls-5" d="M10.23,12.11a.24.24,0,0,1-.07-.23.23.23,0,0,1,.23.07l-.16.16Z"/><path d="M10.23,12.13h0a.23.23,0,0,1-.07-.24s.13-.06.25.06l-.17.19Zm-.06-.23a.2.2,0,0,0,.06.19l.15-.15c-.11-.08-.21,0-.21,0Z"/><path class="cls-5" d="M9.72,12l.56-.56h.05a0,0,0,0,1,0,.05l-.56.56h0a0,0,0,0,1,0-.05Z"/><path d="M9.75,12.07l0,0V12l.56-.56h.07a0,0,0,0,1,0,.07l-.59.57Zm0,0v0l.56-.56v0h0L9.73,12v0Z"/><path class="cls-5" d="M9.78,12l.54-.54h0s0,0,0,.05l-.54.54A0,0,0,0,1,9.78,12Z"/><path d="M9.81,12.11l0,0a0,0,0,0,1,0-.06l.54-.54h.06a.06.06,0,0,1,0,.07l-.57.55Zm0,0h0l.54-.54v0h0l-.55.55v0Z"/><path d="M9.83,11.57a0,0,0,1,1,0,0l.06.06,0,0-.06-.06Z"/><path d="M10.09,11.47a0,0,0,1,1,0,0l0,0,0,0-.05,0Z"/><path d="M9.73,11.84s0-.05,0,0l0,0,0,0,0,0Z"/></g></g></g></g></g></svg>